<svg xmlns="http://www.w3.org/2000/svg" width="224" height="112" fill="none"><path fill="#6D7079" d="M86.122 67.262v.207h-8.774v-.207c.986-.174 1.375-.416 1.48-1.178V54.58c0-2.114-.775-3.154-2.36-3.154a2.512 2.512 0 0 0-1.45.495 2.446 2.446 0 0 0-.878 1.238c.072.4.108.807.106 1.214v10.814c0 1.282.388 1.803 1.583 2.08v.207h-8.385v-.212c1.197-.275 1.582-.797 1.582-2.08V54.576c0-2.115-.81-3.155-2.36-3.155a2.385 2.385 0 0 0-1.37.447 2.324 2.324 0 0 0-.85 1.148v12.166c0 1.283.387 1.803 1.582 2.08v.207H57.15v-.207c1.373-.312 2.078-.902 2.078-2.29v-11.05c0-1.837-.493-2.392-2.078-2.53v-.209l7.293-1.975v3.258c.307-.995.94-1.86 1.801-2.462a4.833 4.833 0 0 1 2.956-.866c2.642 0 4.299 1.317 4.826 3.467a5.045 5.045 0 0 1 1.918-2.55 5.182 5.182 0 0 1 3.086-.917c3.277 0 5.004 2.08 5.004 5.235v10.606c.009 1.386.714 1.976 2.088 2.283zm18.641-3.565c-.599 2.84-2.467 4.298-4.935 4.298a3.42 3.42 0 0 1-2.482-.77 3.323 3.323 0 0 1-.824-1.023 3.274 3.274 0 0 1-.359-1.257l-.07-.275a4.77 4.77 0 0 1-1.853 2.479 4.9 4.9 0 0 1-3.008.846 4.45 4.45 0 0 1-1.786-.229 4.396 4.396 0 0 1-1.542-.916 4.311 4.311 0 0 1-1.037-1.45 4.25 4.25 0 0 1-.356-1.737c0-3.085 2.537-5.096 6.59-5.928l2.924-.589v-.733c0-2.669-.987-4.505-3.947-4.505-2.29 0-3.91 1.074-4.686 3.778l-.28-.07c.559-3.986 3.241-6.482 7.4-6.482 4.686 0 6.729 2.947 6.729 7.384v6.966c0 1.214.599 1.837 1.375 1.837.669 0 1.444-.38 1.831-1.663l.316.039zm-8.739.382v-6.067l-1.374.242c-2.748.555-3.276 2.253-3.276 3.952 0 1.767.88 3.154 2.572 3.154.44.033.879-.074 1.253-.304.374-.231.663-.573.826-.977z"/><path fill="#6D7079" d="M123.896 67.263v.208h-8.878v-.208c1.163-.275 1.583-.797 1.583-2.079V54.617c0-2.115-.811-3.19-2.467-3.19a2.884 2.884 0 0 0-1.582.457 2.81 2.81 0 0 0-1.06 1.242v12.063c0 1.282.387 1.802 1.583 2.079v.208h-8.878v-.213c1.374-.311 2.079-.901 2.079-2.29v-11.05c0-1.837-.494-2.392-2.079-2.53v-.208l7.294-1.976v3.4a5.088 5.088 0 0 1 1.994-2.598 5.228 5.228 0 0 1 3.188-.872c3.352 0 5.144 2.016 5.144 5.269v10.573c.001 1.385.706 1.975 2.079 2.282zm11.981-3.878c-.774 2.53-2.677 4.61-5.743 4.61-2.96 0-4.369-1.837-4.369-4.54V50.42h-2.043v-.173a22.59 22.59 0 0 0 7.152-6.239h.142v5.72h3.558v.692h-3.563v12.236c0 1.594.67 2.669 1.973 2.669a2.712 2.712 0 0 0 1.667-.575c.473-.372.804-.89.94-1.47l.286.104z"/><path fill="#6D7079" d="M150.501 61.202c-.881 4.991-4.087 6.794-7.152 6.794-4.088 0-7.822-3.12-7.822-9.082 0-5.684 3.207-9.775 8.034-9.775 3.417 0 6.941 2.115 6.906 7.834h-10.853c.353 4.437 2.679 6.898 6.097 6.898a4.51 4.51 0 0 0 2.734-.627 4.4 4.4 0 0 0 1.81-2.112l.246.07zm-10.923-5.48v.381h6.095c.036-4.437-1.127-5.997-2.886-5.997-1.975.004-3.209 2.153-3.209 5.616zm24.42-6.582v4.991h-.176a3.933 3.933 0 0 0-1.833-.312c-2.289 0-3.805 1.213-3.805 5.823v5.338c0 1.557.881 2.045 2.783 2.29v.208H150.89v-.215c1.374-.312 2.08-.901 2.08-2.29V54.234c0-1.975-.53-2.669-2.08-2.807v-.208l7.083-2.01v7.764h.176c.28-5.58 2.396-7.834 5.462-7.834h.387zm-1.551 15.944a2.865 2.865 0 0 1 .872-2.008 2.958 2.958 0 0 1 2.052-.831 2.95 2.95 0 0 1 2.03.842c.539.53.847 1.247.857 1.997a2.835 2.835 0 0 1-.84 2.025 2.93 2.93 0 0 1-4.117.011 2.869 2.869 0 0 1-.634-.934 2.82 2.82 0 0 1-.22-1.102z"/></svg>