<svg xmlns="http://www.w3.org/2000/svg" width="224" height="112" fill="none"><path fill="#6D7079" d="m76.52 58.986 3.598-.993c.06.8.43 1.545 1.03 2.071.704.59 1.602.89 2.516.839a3.11 3.11 0 0 0 1.921-.53 1.574 1.574 0 0 0 .696-1.304 1.468 1.468 0 0 0-.517-1.123 3.136 3.136 0 0 0-1.533-.658l-2.584-.586a6.31 6.31 0 0 1-3.468-1.912 4.848 4.848 0 0 1-1.213-3.288c0-.756.166-1.503.488-2.186a5.068 5.068 0 0 1 1.372-1.76 6.62 6.62 0 0 1 4.55-1.646 8.442 8.442 0 0 1 2.504.35 6.25 6.25 0 0 1 1.833.864c.461.335.87.738 1.212 1.197.302.39.554.819.75 1.274.154.375.263.768.326 1.17l-3.42.993a2.749 2.749 0 0 0-.243-.821 3.648 3.648 0 0 0-.54-.823 2.485 2.485 0 0 0-.976-.667 3.788 3.788 0 0 0-1.446-.257 2.727 2.727 0 0 0-1.8.593 1.772 1.772 0 0 0-.715 1.412 1.61 1.61 0 0 0 .483 1.167 2.41 2.41 0 0 0 1.292.644l2.632.547a6.734 6.734 0 0 1 3.638 1.862 4.583 4.583 0 0 1 1.265 3.242c0 .727-.14 1.447-.412 2.12a6.397 6.397 0 0 1-1.187 1.89 5.553 5.553 0 0 1-2.045 1.389 7.334 7.334 0 0 1-2.837.528 8.524 8.524 0 0 1-3.195-.568 5.942 5.942 0 0 1-2.228-1.461 7.415 7.415 0 0 1-1.24-1.796 5.39 5.39 0 0 1-.507-1.773zm13.662-8.841V46.46h.894a2.546 2.546 0 0 0 2.01-.763 2.9 2.9 0 0 0 .68-2.006V41.03h3.756v5.43h3.615v3.686h-3.615v8.202a2.305 2.305 0 0 0 .533 1.696 2.33 2.33 0 0 0 1.69.523c.48.002.96-.046 1.431-.142v3.443a6.675 6.675 0 0 1-2.556.385 5.168 5.168 0 0 1-2.057-.305 5.207 5.207 0 0 1-1.776-1.091 5.18 5.18 0 0 1-1.096-1.781 5.216 5.216 0 0 1-.304-2.073v-8.857h-3.205zm11.984 9.179a4.757 4.757 0 0 1 .334-1.975 4.718 4.718 0 0 1 1.116-1.656 6.924 6.924 0 0 1 3.809-1.714l4.471-.688c.861-.11 1.292-.506 1.292-1.187a2.263 2.263 0 0 0-.823-1.806 3.73 3.73 0 0 0-2.469-.702 3.518 3.518 0 0 0-2.513.88 3.447 3.447 0 0 0-1.077 2.242l-3.776-.846a6.25 6.25 0 0 1 2.233-4.224 7.441 7.441 0 0 1 5.078-1.737 9.986 9.986 0 0 1 3.442.544 5.79 5.79 0 0 1 2.347 1.5 6.18 6.18 0 0 1 1.28 2.14 7.8 7.8 0 0 1 .416 2.588v8.535c-.015.945.061 1.89.226 2.82h-3.923a8.268 8.268 0 0 1-.199-2.24 5.963 5.963 0 0 1-2.075 1.975 6.322 6.322 0 0 1-3.3.812 5.928 5.928 0 0 1-4.261-1.548 4.916 4.916 0 0 1-1.212-1.68 4.974 4.974 0 0 1-.416-2.033zm4.14-.302a2.178 2.178 0 0 0 .674 1.61 2.561 2.561 0 0 0 1.866.66 5.468 5.468 0 0 0 1.662-.238c.5-.158.967-.409 1.375-.74a3.23 3.23 0 0 0 .963-1.41 6.153 6.153 0 0 0 .342-2.162v-.793l-4.54.702a3.23 3.23 0 0 0-1.699.765 2.06 2.06 0 0 0-.643 1.603v.003zm13.819 5.018V46.46h4.001v2.19a4.814 4.814 0 0 1 2.15-1.99 6.664 6.664 0 0 1 2.988-.71 6.408 6.408 0 0 1 3.18.778 4.843 4.843 0 0 1 2.086 2.268 6.168 6.168 0 0 1 2.397-2.323 6.093 6.093 0 0 1 3.244-.724 6.31 6.31 0 0 1 2.249.397 5.955 5.955 0 0 1 1.916 1.181 5.36 5.36 0 0 1 1.368 2.107c.351.96.521 1.976.505 2.998v11.409h-3.895V53.267a3.958 3.958 0 0 0-.836-2.64 3.107 3.107 0 0 0-2.509-.993 3.308 3.308 0 0 0-2.604 1.125 4.035 4.035 0 0 0-1.003 2.791v10.49h-4.139V53.268a4 4 0 0 0-.828-2.631 3.086 3.086 0 0 0-2.516-1.003 3.343 3.343 0 0 0-2.623 1.103 4.063 4.063 0 0 0-.985 2.817v10.49l-4.146-.002zm29.065 6.863V46.46h4.035v2.355a5.126 5.126 0 0 1 2.144-1.983 7.105 7.105 0 0 1 3.379-.778 7.259 7.259 0 0 1 3.243.593 7.322 7.322 0 0 1 2.655 1.97 9.941 9.941 0 0 1 2.147 6.606 9.84 9.84 0 0 1-2.244 6.653 7.475 7.475 0 0 1-2.676 1.987 7.422 7.422 0 0 1-3.266.62 7.134 7.134 0 0 1-3.179-.68 5.307 5.307 0 0 1-2.101-1.73v8.828l-4.137.002zm4.105-15.677a6.01 6.01 0 0 0 1.307 4.038 4.25 4.25 0 0 0 1.508 1.156 4.204 4.204 0 0 0 1.856.378 4.233 4.233 0 0 0 3.379-1.526 5.996 5.996 0 0 0 1.307-4.046 5.875 5.875 0 0 0-1.298-3.974 4.278 4.278 0 0 0-1.526-1.142 4.245 4.245 0 0 0-1.865-.363 4.228 4.228 0 0 0-3.364 1.518 5.85 5.85 0 0 0-1.304 3.958v.003zm13.8 3.76 3.598-.993c.06.8.431 1.545 1.031 2.071.704.59 1.602.89 2.516.839a3.113 3.113 0 0 0 1.921-.53 1.578 1.578 0 0 0 .696-1.304 1.46 1.46 0 0 0-.517-1.123 3.134 3.134 0 0 0-1.533-.658l-2.583-.586a6.3 6.3 0 0 1-3.466-1.912 4.846 4.846 0 0 1-1.216-3.288c0-.756.167-1.503.488-2.186a5.078 5.078 0 0 1 1.373-1.76 6.62 6.62 0 0 1 4.55-1.646 8.444 8.444 0 0 1 2.504.35 6.236 6.236 0 0 1 1.832.864c.461.335.871.739 1.214 1.197.301.39.552.819.748 1.274.154.375.264.768.327 1.17l-3.419.993a2.772 2.772 0 0 0-.244-.821 3.657 3.657 0 0 0-.541-.823 2.488 2.488 0 0 0-.975-.667 3.788 3.788 0 0 0-1.446-.257 2.73 2.73 0 0 0-1.799.593 1.77 1.77 0 0 0-.522.62 1.769 1.769 0 0 0-.194.792 1.596 1.596 0 0 0 .483 1.168c.356.341.806.566 1.291.643l2.632.547a6.736 6.736 0 0 1 3.639 1.862 4.59 4.59 0 0 1 1.264 3.242 5.66 5.66 0 0 1-.413 2.12 6.394 6.394 0 0 1-1.186 1.89 5.545 5.545 0 0 1-2.046 1.389c-.9.362-1.864.542-2.835.528a8.52 8.52 0 0 1-3.196-.568 5.932 5.932 0 0 1-2.227-1.461 7.42 7.42 0 0 1-1.241-1.796 5.455 5.455 0 0 1-.508-1.773zM46.46 46.139a.735.735 0 0 0 .038-.149 3.608 3.608 0 0 1 1.287-2.296c.497-.4 1.09-.657 1.72-.745a.622.622 0 0 0 .122-.031 3.55 3.55 0 0 1 .372-.02 3.49 3.49 0 0 1 2.33.877 3.552 3.552 0 0 1 1.17 2.215.542.542 0 0 0 .174.355c.1.091.232.141.367.139h.128a.54.54 0 0 0 .54-.493 3.53 3.53 0 0 1 1.157-2.214 3.468 3.468 0 0 1 2.321-.878 3.49 3.49 0 0 1 2.331.876 3.552 3.552 0 0 1 1.17 2.215.54.54 0 0 0 .54.494h.1a.539.539 0 0 0 .54-.493 3.552 3.552 0 0 1 1.162-2.209 3.49 3.49 0 0 1 4.782.132 3.578 3.578 0 0 1 .131 4.833 3.496 3.496 0 0 1-2.188 1.172.53.53 0 0 0-.352.175.54.54 0 0 0-.137.37v.1a.543.543 0 0 0 .138.37c.09.102.216.165.35.176.85.11 1.632.53 2.196 1.18a3.56 3.56 0 0 1 .868 2.353 3.54 3.54 0 0 1-.87 2.344 3.477 3.477 0 0 1-2.193 1.167.531.531 0 0 0-.352.175.54.54 0 0 0-.137.37v.131a.544.544 0 0 0 .489.546c.85.11 1.63.53 2.195 1.18a3.56 3.56 0 0 1 .851 2.697.733.733 0 0 0-.04.148 3.6 3.6 0 0 1-1.285 2.297c-.497.4-1.092.657-1.721.745a.743.743 0 0 0-.121.03 3.489 3.489 0 0 1-2.703-.856 3.551 3.551 0 0 1-1.17-2.215.542.542 0 0 0-.174-.355.532.532 0 0 0-.366-.139h-.13a.53.53 0 0 0-.54.493 3.53 3.53 0 0 1-1.157 2.214 3.467 3.467 0 0 1-2.32.878 3.489 3.489 0 0 1-2.331-.876 3.552 3.552 0 0 1-1.17-2.216.542.542 0 0 0-.175-.354.532.532 0 0 0-.366-.139h-.1a.53.53 0 0 0-.366.139.54.54 0 0 0-.174.355 3.55 3.55 0 0 1-1.16 2.208 3.487 3.487 0 0 1-2.318.883 3.51 3.51 0 0 1-2.471-1.015 3.579 3.579 0 0 1-.131-4.833 3.496 3.496 0 0 1 2.188-1.172.531.531 0 0 0 .49-.545v-.1a.543.543 0 0 0-.49-.546c-.85-.11-1.63-.53-2.195-1.18a3.561 3.561 0 0 1-.868-2.353 3.54 3.54 0 0 1 .87-2.344 3.477 3.477 0 0 1 2.193-1.167.531.531 0 0 0 .49-.546v-.13a.543.543 0 0 0-.49-.546c-.85-.11-1.63-.53-2.195-1.18a3.561 3.561 0 0 1-.85-2.697h.005zm3.048-4.337a.812.812 0 0 0-.131-.023 4.686 4.686 0 0 0-2.987 1.695 4.736 4.736 0 0 0-1.05 2.387.723.723 0 0 0 .018.113 4.605 4.605 0 0 0-.023.457c.008.846.238 1.674.668 2.4a4.736 4.736 0 0 0 1.778 1.73 4.736 4.736 0 0 0-1.779 1.731 4.793 4.793 0 0 0-.667 2.401c.008.846.238 1.675.668 2.4a4.735 4.735 0 0 0 1.778 1.731 4.67 4.67 0 0 0-1.787 1.726 4.728 4.728 0 0 0-.643 2.796.587.587 0 0 0-.014.183 4.74 4.74 0 0 0 1.34 2.725 4.663 4.663 0 0 0 2.7 1.353c.06.005.122 0 .181-.014a4.617 4.617 0 0 0 2.77-.649 4.676 4.676 0 0 0 1.709-1.804 4.736 4.736 0 0 0 1.714 1.795 4.68 4.68 0 0 0 2.378.674 4.679 4.679 0 0 0 2.378-.674 4.736 4.736 0 0 0 1.715-1.795 4.737 4.737 0 0 0 1.714 1.795c.719.434 1.54.667 2.378.674.148 0 .298-.007.439-.021a.722.722 0 0 0 .132.022 4.674 4.674 0 0 0 2.98-1.694 4.73 4.73 0 0 0 1.051-2.387.748.748 0 0 0-.018-.113c.015-.15.022-.301.022-.457a4.791 4.791 0 0 0-.667-2.4 4.734 4.734 0 0 0-1.777-1.73 4.736 4.736 0 0 0 1.778-1.732c.43-.726.66-1.555.666-2.4a4.791 4.791 0 0 0-.667-2.4 4.734 4.734 0 0 0-1.777-1.731 4.67 4.67 0 0 0 1.786-1.726 4.731 4.731 0 0 0 .643-2.797.646.646 0 0 0 .014-.182 4.732 4.732 0 0 0-1.34-2.725 4.654 4.654 0 0 0-2.699-1.353.574.574 0 0 0-.182.014 4.615 4.615 0 0 0-2.77.649 4.675 4.675 0 0 0-1.708 1.804 4.736 4.736 0 0 0-1.715-1.795 4.68 4.68 0 0 0-2.378-.674 4.68 4.68 0 0 0-2.378.674 4.737 4.737 0 0 0-1.714 1.795 4.737 4.737 0 0 0-1.714-1.795 4.68 4.68 0 0 0-2.379-.674c-.148 0-.298.007-.44.022h.006z"/><path fill="#6D7079" d="m66.912 68.49-.092-.006c-.037 0-.076-.008-.114-.013a5.428 5.428 0 0 1-3.245-.803 5.679 5.679 0 0 1-1.233-1.03 5.586 5.586 0 0 1-1.857 1.357 5.54 5.54 0 0 1-2.24.49 5.428 5.428 0 0 1-2.855-.818 5.699 5.699 0 0 1-1.23-1.026c-.357.4-.77.745-1.224 1.026a5.468 5.468 0 0 1-2.875.818c-.115 0-.231 0-.347-.011a1.388 1.388 0 0 1-.288.006h-.049a5.527 5.527 0 0 1-3.196-1.601 5.623 5.623 0 0 1-1.586-3.226v-.051a1.57 1.57 0 0 1 .006-.29 5.596 5.596 0 0 1 1.816-4.488 5.683 5.683 0 0 1-1.017-1.242 5.555 5.555 0 0 1-.809-2.882c.005-.78.17-1.55.485-2.262a5.637 5.637 0 0 1 1.343-1.874 5.7 5.7 0 0 1-1.019-1.245 5.555 5.555 0 0 1-.793-3.301 1.209 1.209 0 0 1-.009-.084l-.007-.093.012-.092a5.606 5.606 0 0 1 1.241-2.827 5.527 5.527 0 0 1 3.537-2.006l.09-.013.093.007c.038 0 .076.008.114.013a5.435 5.435 0 0 1 3.246.803 5.67 5.67 0 0 1 1.232 1.03 5.588 5.588 0 0 1 1.857-1.357 5.54 5.54 0 0 1 2.24-.49 5.435 5.435 0 0 1 2.856.818c.456.282.87.627 1.23 1.026.357-.4.77-.745 1.224-1.026a5.467 5.467 0 0 1 3.22-.807c.096-.012.193-.014.29-.006h.048a5.52 5.52 0 0 1 3.197 1.6c.425.426.778.918 1.045 1.458.276.556.458 1.153.54 1.769v.05c.007.097.005.195-.007.291a5.597 5.597 0 0 1-1.816 4.488c.396.363.738.781 1.017 1.242.528.867.808 1.864.81 2.882-.005.78-.17 1.55-.485 2.261a5.632 5.632 0 0 1-1.345 1.875c.397.363.74.782 1.02 1.244a5.565 5.565 0 0 1 .794 3.3c0 .029.007.058.009.086l.007.092-.013.093a5.605 5.605 0 0 1-1.24 2.826 5.527 5.527 0 0 1-3.538 2.007l-.09.013zm-3.287-5.19a2.67 2.67 0 0 0 .883 1.665 2.62 2.62 0 0 0 1.756.654c.07 0 .14 0 .21-.008a1.66 1.66 0 0 1 .14-.03h.027c.472-.067.918-.26 1.291-.561.53-.432.877-1.052.971-1.733v-.025c.01-.06.023-.118.039-.176 0-.057.006-.116.006-.173a2.679 2.679 0 0 0-.648-1.773 2.632 2.632 0 0 0-1.65-.892 1.395 1.395 0 0 1-.898-.462 1.42 1.42 0 0 1-.356-.951v-.13a1.412 1.412 0 0 1 .342-.935c.224-.26.534-.426.87-.47h.052a2.618 2.618 0 0 0 1.636-.883c.42-.486.651-1.11.649-1.755a2.678 2.678 0 0 0-.648-1.773 2.632 2.632 0 0 0-1.65-.893 1.394 1.394 0 0 1-.897-.462 1.42 1.42 0 0 1-.357-.951v-.1a1.414 1.414 0 0 1 .342-.935 1.39 1.39 0 0 1 .87-.47h.052a2.65 2.65 0 0 0 1.628-.89c.42-.484.653-1.105.657-1.748a2.695 2.695 0 0 0-.752-1.876 2.641 2.641 0 0 0-1.858-.76 2.61 2.61 0 0 0-1.739.656 2.658 2.658 0 0 0-.875 1.652v.05c-.043.34-.209.653-.465.88a1.383 1.383 0 0 1-.926.345h-.1a1.392 1.392 0 0 1-.941-.36 1.418 1.418 0 0 1-.46-.906 2.67 2.67 0 0 0-.883-1.666 2.623 2.623 0 0 0-1.756-.654 2.61 2.61 0 0 0-1.739.655 2.657 2.657 0 0 0-.875 1.652v.052c-.043.34-.209.653-.465.88a1.384 1.384 0 0 1-.926.345h-.128a1.392 1.392 0 0 1-.942-.36 1.417 1.417 0 0 1-.46-.906 2.67 2.67 0 0 0-.883-1.666 2.623 2.623 0 0 0-1.756-.654c-.07 0-.14 0-.21.009a1.573 1.573 0 0 1-.14.03h-.027c-.472.067-.919.26-1.292.56a2.706 2.706 0 0 0-.97 1.733v.025c-.01.06-.023.119-.04.177 0 .057-.004.115-.004.172a2.675 2.675 0 0 0 .648 1.773 2.63 2.63 0 0 0 1.65.893c.345.036.665.2.896.462.232.261.36.6.357.95v.131c.003.344-.119.676-.342.935a1.387 1.387 0 0 1-.87.47h-.052a2.618 2.618 0 0 0-1.636.883 2.664 2.664 0 0 0-.65 1.755 2.68 2.68 0 0 0 .649 1.772c.423.491 1.01.809 1.65.892.345.037.664.202.896.463.232.262.36.6.357.952v.1c.003.343-.119.675-.342.934a1.387 1.387 0 0 1-.87.47h-.052a2.651 2.651 0 0 0-1.628.89 2.697 2.697 0 0 0-.657 1.749 2.69 2.69 0 0 0 .752 1.874 2.637 2.637 0 0 0 1.858.76 2.644 2.644 0 0 0 1.732-.664 2.69 2.69 0 0 0 .881-1.643v-.026l.005-.027a1.393 1.393 0 0 1 1.392-1.224h.099c.348-.002.683.127.942.36.26.235.423.558.459.907a2.67 2.67 0 0 0 .884 1.665c.487.427 1.111.66 1.756.654a2.61 2.61 0 0 0 1.739-.655 2.657 2.657 0 0 0 .875-1.653v-.025l.005-.026a1.41 1.41 0 0 1 .465-.879c.256-.225.586-.348.926-.345h.129c.346 0 .68.13.937.364.257.234.42.556.455.903z"/><path fill="#6D7079" d="M58.143 58.117a4.706 4.706 0 0 1-1.83-.365 4.743 4.743 0 0 1-1.549-1.047 4.83 4.83 0 0 1-1.4-3.41c.001-.285.113-.557.312-.758a1.056 1.056 0 0 1 1.5 0c.198.2.31.473.31.757 0 .711.281 1.393.78 1.895a2.647 2.647 0 0 0 1.877.786 2.64 2.64 0 0 0 1.877-.786 2.699 2.699 0 0 0 .78-1.895 1.082 1.082 0 0 1 .31-.758 1.062 1.062 0 0 1 .75-.313c.281 0 .551.113.75.314.199.2.31.473.31.757a4.83 4.83 0 0 1-1.399 3.41 4.707 4.707 0 0 1-3.378 1.412z"/></svg>