<svg xmlns="http://www.w3.org/2000/svg" width="224" height="112" fill="none"><g fill="#6D7079" clip-path="url(#a)"><path d="m69.275 78.474 5.853-2.106a4.197 4.197 0 0 0 2.784-3.962c0-2.677-2.463-4.675-5.068-4.104l-6.104 1.284c-2.141.465-3.676 2.356-3.676 4.534-.036 3.212 3.176 5.425 6.21 4.354zm5.996-42.547-5.925-2.391c-3.034-1.214-6.318 1-6.318 4.247a4.618 4.618 0 0 0 3.463 4.462l6.21 1.57c2.642.679 5.176-1.32 5.176-4.033.035-1.677-1-3.212-2.606-3.855zM50 48.24c0 3.354 2.641 6.103 5.996 6.21l26.27.928a3.72 3.72 0 0 0 3.856-3.712c0-1.714-1.178-3.248-2.891-3.605l-25.593-5.89C53.712 41.243 50 44.206 50 48.24zm27.912 13.173v.32a4.184 4.184 0 0 1-3.533 4.141l-5.925 1c-2.82.464-5.39-1.714-5.39-4.57v-.32a4.64 4.64 0 0 1 4.569-4.64l5.996-.108c2.356-.071 4.283 1.856 4.283 4.177zm31.982-12.993h3.391v4.034h-3.391v7.067c0 1.464.678 1.963 1.999 1.963.535 0 1.177-.071 1.392-.142v3.783c-.429.178-1.25.428-2.57.428-3.284 0-5.354-1.963-5.354-5.21v-7.854h-3.034V48.42h.856c1.785 0 2.606-1.177 2.606-2.677v-2.355h4.105v5.032zm21.487 8.424c0 5.175-3.819 8.959-8.852 8.959s-8.852-3.784-8.852-8.96c0-5.21 3.819-8.958 8.852-8.958s8.852 3.748 8.852 8.959zm-4.568 0c0-3.177-2.071-4.819-4.284-4.819-2.213 0-4.283 1.606-4.283 4.819 0 3.14 2.07 4.783 4.283 4.783 2.213 0 4.284-1.606 4.284-4.783zm19.988-8.569 3.64 10.886 3.106-10.886h4.533l-5.283 16.883h-4.569l-3.926-11.53-3.89 11.53h-4.641l-5.389-16.883h4.783l3.105 10.85 3.676-10.85h4.855zm16.062 7.284 4.14-.607c.964-.143 1.285-.607 1.285-1.213 0-1.214-.928-2.178-2.855-2.178-1.999 0-3.07 1.285-3.212 2.749l-4.034-.857c.286-2.641 2.713-5.568 7.246-5.568 5.354 0 7.353 3.034 7.353 6.425v8.28c0 .893.107 2.106.214 2.677h-4.176c-.107-.428-.179-1.356-.179-2.034-.856 1.32-2.463 2.498-4.961 2.498-3.605 0-5.782-2.427-5.782-5.068-.072-2.998 2.141-4.676 4.961-5.104zm5.425 2.891v-.75l-3.819.572c-1.178.178-2.106.82-2.106 2.141 0 1 .714 1.963 2.178 1.963 1.963 0 3.747-.928 3.747-3.926z"/></g><defs><clipPath id="a"><path fill="#fff" d="M50 33h123v46H50z"/></clipPath></defs></svg>