<svg xmlns="http://www.w3.org/2000/svg" width="304" height="128" fill="none"><path fill="#fff" d="M0 0h304v128H0z"/><path fill="#0E0E11" d="M24.15 23.273V32h-1.32v-7.406h-.052l-2.088 1.363v-1.261l2.178-1.423h1.283zm5.4 8.872c-.674-.003-1.249-.18-1.726-.533-.477-.352-.843-.865-1.095-1.538-.253-.673-.38-1.485-.38-2.433 0-.946.127-1.755.38-2.425.255-.67.622-1.182 1.1-1.534.48-.352 1.053-.529 1.72-.529.668 0 1.24.178 1.718.533.477.352.842.864 1.095 1.534.256.668.384 1.475.384 2.42 0 .952-.127 1.765-.38 2.438-.252.67-.617 1.183-1.095 1.538-.477.353-1.05.529-1.721.529zm0-1.138c.59 0 1.052-.288 1.385-.865.335-.577.503-1.41.503-2.501 0-.725-.077-1.337-.23-1.837-.151-.503-.368-.883-.653-1.142a1.427 1.427 0 0 0-1.005-.392c-.588 0-1.05.29-1.385.87-.335.579-.505 1.413-.507 2.5 0 .728.075 1.343.226 1.846.153.5.37.88.651 1.138.282.255.62.383 1.015.383zm48.246 1.112c-.585 0-1.108-.1-1.568-.302a2.661 2.661 0 0 1-1.087-.84 2.229 2.229 0 0 1-.426-1.253h1.338c.017.259.104.483.26.674.159.187.366.332.622.434.256.103.54.154.852.154.344 0 .648-.06.912-.18a1.49 1.49 0 0 0 .627-.498c.15-.216.226-.464.226-.745 0-.293-.076-.55-.226-.772a1.47 1.47 0 0 0-.652-.528c-.284-.128-.628-.192-1.032-.192h-.737v-1.074h.737c.324 0 .608-.058.853-.175.247-.116.44-.278.58-.485.138-.21.208-.456.208-.738 0-.27-.061-.504-.183-.703a1.23 1.23 0 0 0-.512-.473 1.661 1.661 0 0 0-.775-.17c-.284 0-.55.052-.797.157a1.48 1.48 0 0 0-.597.444 1.14 1.14 0 0 0-.247.686h-1.274c.014-.472.154-.887.418-1.244a2.7 2.7 0 0 1 1.056-.84 3.44 3.44 0 0 1 1.458-.303c.56 0 1.043.11 1.449.329.409.215.724.504.946.865.224.36.335.755.332 1.184.003.489-.133.904-.409 1.245-.273.34-.636.57-1.09.686v.068c.579.088 1.028.318 1.346.69.32.372.48.834.477 1.385.003.48-.13.91-.4 1.291-.268.381-.633.68-1.096.9-.463.215-.993.323-1.59.323zm8.007-8.846V32h-1.321v-7.406h-.051l-2.088 1.363v-1.261l2.177-1.423h1.283z"/><path fill="#6D7079" d="M37.85 32v-8.727h1.057v3.886h4.653v-3.886h1.057V32H43.56v-3.903h-4.653V32H37.85zm11.405.136c-.59 0-1.109-.14-1.555-.422a2.866 2.866 0 0 1-1.04-1.18c-.247-.506-.37-1.096-.37-1.773 0-.681.123-1.277.37-1.785a2.86 2.86 0 0 1 1.04-1.185c.446-.281.964-.422 1.555-.422s1.108.14 1.551.422a2.82 2.82 0 0 1 1.04 1.185c.25.508.375 1.104.375 1.785 0 .677-.125 1.267-.375 1.773-.247.506-.593.9-1.04 1.18-.443.282-.96.422-1.55.422zm0-.903c.45 0 .819-.115 1.108-.345.29-.23.505-.533.644-.908s.209-.781.209-1.219c0-.437-.07-.845-.21-1.223a2.06 2.06 0 0 0-.643-.916c-.29-.233-.659-.35-1.108-.35-.449 0-.818.117-1.108.35a2.06 2.06 0 0 0-.643.916 3.51 3.51 0 0 0-.209 1.223c0 .438.07.844.209 1.22.14.374.354.677.643.907.29.23.66.345 1.108.345zm8.626-1.91v-3.869h1.006V32h-1.006v-1.108h-.068a2.147 2.147 0 0 1-.716.848c-.324.23-.733.345-1.227.345-.41 0-.773-.09-1.09-.268a1.88 1.88 0 0 1-.75-.818c-.183-.367-.274-.828-.274-1.385v-4.16h1.006v4.091c0 .478.134.858.4 1.142.27.285.614.427 1.032.427.25 0 .504-.064.763-.192.261-.128.48-.324.656-.588.179-.264.268-.601.268-1.01zM60.73 32v-6.546h.972v.99h.068c.12-.325.335-.587.648-.79a1.907 1.907 0 0 1 1.056-.302 10.785 10.785 0 0 1 .529.017v1.023a2.982 2.982 0 0 0-.235-.038 2.284 2.284 0 0 0-.379-.03 1.78 1.78 0 0 0-.852.2 1.47 1.47 0 0 0-.801 1.334V32H60.73zm9.101-5.08-.903.256a1.68 1.68 0 0 0-.252-.439 1.22 1.22 0 0 0-.443-.358c-.187-.094-.427-.14-.72-.14-.4 0-.734.092-1.001.277-.265.181-.397.413-.397.694 0 .25.091.448.273.593.182.144.466.265.852.362l.972.238c.585.143 1.021.36 1.308.652.287.29.43.664.43 1.121 0 .375-.107.71-.323 1.006a2.148 2.148 0 0 1-.895.699c-.384.17-.83.255-1.338.255-.668 0-1.22-.145-1.658-.434-.437-.29-.714-.713-.83-1.27l.954-.239c.09.352.262.617.515.793.256.176.59.264 1.002.264.468 0 .84-.1 1.116-.298.279-.202.418-.444.418-.725a.761.761 0 0 0-.239-.57c-.159-.157-.403-.273-.733-.35l-1.09-.256c-.6-.142-1.04-.362-1.322-.66-.278-.301-.417-.678-.417-1.13 0-.369.103-.696.31-.98.211-.284.496-.507.857-.669a3.008 3.008 0 0 1 1.236-.243c.648 0 1.156.142 1.526.427.372.284.636.659.792 1.125zm21.926-3.647h1.261l2.966 7.244h.103l2.966-7.244h1.261V32h-.989v-6.63h-.085L96.512 32h-.955l-2.727-6.63h-.085V32h-.989v-8.727zM102.295 32v-6.546h1.006V32h-1.006zm.512-7.636a.715.715 0 0 1-.507-.2.645.645 0 0 1-.209-.482c0-.188.07-.348.209-.482a.715.715 0 0 1 .507-.2c.196 0 .363.067.503.2a.637.637 0 0 1 .213.482.638.638 0 0 1-.213.481.702.702 0 0 1-.503.2zm3.342 3.698V32h-1.006v-6.546h.972v1.023h.085c.153-.332.386-.6.699-.8.312-.205.716-.308 1.21-.308.443 0 .831.091 1.163.273.333.179.591.452.776.818.185.364.277.824.277 1.38V32h-1.006v-4.09c0-.515-.133-.916-.4-1.203-.267-.29-.634-.434-1.1-.434-.321 0-.608.07-.861.209-.25.139-.447.342-.592.609-.145.267-.217.59-.217.971zm10.139 1.262v-3.87h1.005V32h-1.005v-1.108h-.069a2.15 2.15 0 0 1-.715.848c-.324.23-.733.345-1.228.345a2.19 2.19 0 0 1-1.091-.268 1.882 1.882 0 0 1-.75-.818c-.181-.367-.272-.828-.272-1.385v-4.16h1.005v4.091c0 .478.134.858.401 1.142.27.285.614.427 1.031.427.25 0 .504-.064.763-.192.261-.128.48-.324.656-.588.179-.264.269-.601.269-1.01zm5.694-3.87v.853h-3.392v-.852h3.392zm-2.404-1.568h1.006v6.239c0 .284.041.497.124.64a.64.64 0 0 0 .324.28c.133.046.274.069.421.069.111 0 .202-.006.273-.017l.171-.035.204.904a2.035 2.035 0 0 1-.285.077 2.104 2.104 0 0 1-.465.042 2.01 2.01 0 0 1-.835-.183 1.658 1.658 0 0 1-.673-.558c-.176-.25-.265-.566-.265-.946v-6.512zm6.591 8.25c-.631 0-1.175-.139-1.632-.417a2.8 2.8 0 0 1-1.053-1.176c-.244-.506-.366-1.094-.366-1.765 0-.67.122-1.261.366-1.772a2.892 2.892 0 0 1 1.031-1.202c.443-.29.96-.435 1.551-.435a3.1 3.1 0 0 1 1.01.17 2.5 2.5 0 0 1 .908.555c.273.253.49.588.652 1.005.162.418.243.932.243 1.543v.426h-5.046v-.87h4.023c0-.369-.074-.698-.221-.988a1.673 1.673 0 0 0-.623-.686 1.741 1.741 0 0 0-.946-.251c-.4 0-.747.1-1.039.298a1.96 1.96 0 0 0-.669.767 2.244 2.244 0 0 0-.235 1.014v.58c0 .494.085.913.256 1.257.173.34.413.6.72.78a2.11 2.11 0 0 0 1.07.264 2.2 2.2 0 0 0 .716-.11c.215-.078.402-.191.558-.342.156-.153.277-.343.362-.57l.972.272c-.103.33-.275.62-.516.87-.241.246-.54.44-.895.579a3.316 3.316 0 0 1-1.197.204zm8.876-5.216-.903.256a1.682 1.682 0 0 0-.252-.439 1.215 1.215 0 0 0-.443-.358c-.187-.094-.427-.14-.72-.14-.401 0-.734.092-1.002.277-.264.181-.396.413-.396.694 0 .25.091.448.273.593.182.144.466.265.852.362l.972.238c.585.143 1.021.36 1.308.652.287.29.43.664.43 1.121 0 .375-.108.71-.323 1.006a2.157 2.157 0 0 1-.895.699c-.384.17-.83.255-1.338.255-.668 0-1.221-.145-1.658-.434-.438-.29-.715-.713-.831-1.27l.955-.239c.09.352.262.617.515.793.256.176.59.264 1.002.264.468 0 .84-.1 1.116-.298.278-.202.418-.444.418-.725a.762.762 0 0 0-.239-.57c-.159-.157-.403-.273-.733-.35l-1.091-.256c-.599-.142-1.04-.362-1.321-.66-.278-.301-.417-.678-.417-1.13 0-.369.103-.696.311-.98.21-.284.495-.507.856-.669a3.011 3.011 0 0 1 1.236-.243c.648 0 1.156.142 1.525.427.373.284.637.659.793 1.125zm5.008 5.08v-6.546h1.006V32h-1.006zm.512-7.636a.715.715 0 0 1-.507-.2.641.641 0 0 1-.209-.482.64.64 0 0 1 .209-.482.715.715 0 0 1 .507-.2.7.7 0 0 1 .502.2.635.635 0 0 1 .214.482.635.635 0 0 1-.214.481.698.698 0 0 1-.502.2zm3.342 3.698V32h-1.006v-6.546h.972v1.023h.085c.153-.332.386-.6.699-.8.312-.205.716-.308 1.21-.308.443 0 .831.091 1.163.273.333.179.591.452.776.818.184.364.277.824.277 1.38V32h-1.006v-4.09c0-.515-.133-.916-.401-1.203-.267-.29-.633-.434-1.099-.434-.321 0-.608.07-.861.209-.25.139-.447.342-.592.609-.145.267-.217.59-.217.971zm12.235-2.608v.853h-3.392v-.852h3.392zm-2.403-1.568h1.005v6.239c0 .284.042.497.124.64a.64.64 0 0 0 .324.28c.133.046.274.069.422.069.11 0 .201-.006.272-.017l.171-.035.204.904a2.035 2.035 0 0 1-.285.077 2.104 2.104 0 0 1-.465.042 2.01 2.01 0 0 1-.835-.183 1.658 1.658 0 0 1-.673-.558c-.176-.25-.264-.566-.264-.946v-6.512zm6.505 8.25c-.591 0-1.11-.14-1.556-.422a2.868 2.868 0 0 1-1.04-1.18c-.247-.506-.37-1.096-.37-1.773 0-.681.123-1.277.37-1.785.25-.509.597-.904 1.04-1.185.446-.281.965-.422 1.556-.422.591 0 1.108.14 1.551.422.446.281.792.676 1.04 1.185.25.508.375 1.104.375 1.785 0 .677-.125 1.267-.375 1.773-.248.506-.594.9-1.04 1.18-.443.282-.96.422-1.551.422zm0-.903c.448 0 .818-.115 1.108-.345.289-.23.504-.533.643-.908a3.48 3.48 0 0 0 .209-1.219c0-.437-.07-.845-.209-1.223a2.064 2.064 0 0 0-.643-.916c-.29-.233-.66-.35-1.108-.35-.449 0-.819.117-1.108.35-.29.233-.505.538-.644.916a3.515 3.515 0 0 0-.209 1.223c0 .438.07.844.209 1.22.139.374.354.677.644.907.289.23.659.345 1.108.345zm7.347-5.779v.853h-3.392v-.852h3.392zm-2.403-1.568h1.006v6.239c0 .284.041.497.123.64a.64.64 0 0 0 .324.28c.134.046.274.069.422.069.111 0 .202-.006.273-.017l.17-.035.205.904a2.096 2.096 0 0 1-.286.077 2.1 2.1 0 0 1-.464.042c-.285 0-.563-.06-.836-.183a1.658 1.658 0 0 1-.673-.558c-.176-.25-.264-.566-.264-.946v-6.512zm5.842 8.267c-.415 0-.791-.078-1.129-.234a1.932 1.932 0 0 1-.805-.686c-.199-.301-.299-.665-.299-1.091 0-.375.074-.679.222-.912.148-.236.345-.42.592-.554a3.12 3.12 0 0 1 .818-.298 10.1 10.1 0 0 1 .908-.162c.398-.051.72-.09.967-.115.25-.029.432-.075.546-.14.116-.066.175-.18.175-.342v-.034c0-.42-.116-.747-.346-.98-.227-.233-.572-.35-1.035-.35-.48 0-.857.106-1.129.316-.273.21-.465.435-.576.673l-.954-.34c.17-.398.397-.708.682-.93a2.55 2.55 0 0 1 .937-.468 3.89 3.89 0 0 1 1.006-.137 4 4 0 0 1 .724.077c.276.048.541.15.797.303.259.153.473.385.644.694.17.31.255.725.255 1.244V32h-1.005v-.886h-.052a1.745 1.745 0 0 1-.341.456c-.159.162-.37.3-.634.413-.265.114-.587.17-.968.17zm.154-.903c.397 0 .733-.078 1.005-.234a1.59 1.59 0 0 0 .622-.605c.142-.248.214-.508.214-.78v-.92c-.043.05-.137.097-.282.14a4.65 4.65 0 0 1-.494.106 22.717 22.717 0 0 1-.963.128c-.261.034-.506.09-.733.166a1.267 1.267 0 0 0-.546.337c-.136.148-.204.35-.204.605 0 .35.129.614.388.793.261.176.592.264.993.264zm5.687-7.977V32h-1.005v-8.727h1.005z"/><rect width="40" height="8" x="20" y="52" fill="#E1E2E5" rx="4"/><rect width="72" height="8" x="68" y="52" fill="#87F7DC" rx="4"/><rect width="136" height="8" x="148" y="52" fill="#8792F7" rx="4"/><path stroke="#E8EAED" d="M20 75.5h264"/><rect width="8" height="8" x="20" y="96" fill="#E1E2E5" rx="4"/><path fill="#0E0E11" d="M37.057 104v-8.727h2.949c.684 0 1.244.123 1.679.37.437.245.761.576.971.993.21.418.316.884.316 1.398 0 .514-.105.982-.316 1.402-.207.42-.528.756-.963 1.006-.434.247-.991.37-1.67.37h-2.114v-.937h2.08c.468 0 .845-.081 1.129-.243.284-.162.49-.38.618-.656a2.19 2.19 0 0 0 .196-.942c0-.35-.066-.662-.196-.937a1.398 1.398 0 0 0-.622-.648c-.287-.16-.668-.239-1.142-.239h-1.858V104h-1.057zm9.407.153c-.415 0-.791-.078-1.13-.234a1.94 1.94 0 0 1-.805-.686c-.199-.301-.298-.665-.298-1.091 0-.375.074-.679.221-.912.148-.236.346-.42.593-.554a3.12 3.12 0 0 1 .818-.298 10.1 10.1 0 0 1 .908-.162c.397-.051.72-.09.967-.115.25-.029.432-.075.545-.14.117-.066.175-.18.175-.342v-.034c0-.42-.115-.747-.345-.98-.227-.233-.572-.35-1.036-.35-.48 0-.856.106-1.129.316-.273.21-.464.435-.575.673l-.955-.34c.17-.398.398-.708.682-.93.287-.224.6-.38.938-.468.34-.091.676-.137 1.005-.137.21 0 .452.026.725.077.275.048.54.15.797.303.258.153.473.385.643.694.17.31.256.725.256 1.245V104h-1.006v-.886h-.051a1.775 1.775 0 0 1-.34.456 1.99 1.99 0 0 1-.636.413c-.264.114-.587.17-.967.17zm.153-.903c.398 0 .733-.078 1.006-.234a1.602 1.602 0 0 0 .835-1.385v-.921c-.042.051-.136.098-.281.141a4.63 4.63 0 0 1-.495.106 20.937 20.937 0 0 1-.963.128 3.89 3.89 0 0 0-.733.166 1.261 1.261 0 0 0-.545.337c-.136.148-.205.349-.205.605 0 .35.13.614.388.793.262.176.593.264.993.264zm8.807-1.926v-3.87h1.006V104h-1.006v-1.108h-.068a2.15 2.15 0 0 1-.716.848c-.324.23-.733.345-1.227.345-.41 0-.773-.089-1.09-.268a1.883 1.883 0 0 1-.75-.818c-.183-.367-.274-.829-.274-1.385v-4.16h1.006v4.091c0 .478.134.858.4 1.143.27.284.614.426 1.032.426.25 0 .504-.064.763-.192.261-.128.48-.324.656-.588.179-.264.268-.601.268-1.01zm7.484-2.403-.903.255a1.682 1.682 0 0 0-.251-.439 1.22 1.22 0 0 0-.444-.358c-.187-.094-.427-.14-.72-.14-.4 0-.734.092-1.001.277-.264.181-.396.413-.396.694 0 .25.09.448.272.593.182.144.466.265.852.362l.972.238c.585.142 1.021.36 1.308.652.287.29.43.664.43 1.121 0 .375-.107.71-.323 1.006a2.155 2.155 0 0 1-.895.699c-.384.17-.83.255-1.338.255-.668 0-1.22-.145-1.658-.434-.437-.29-.714-.713-.83-1.27l.954-.239c.09.352.263.617.515.793.256.176.59.264 1.002.264.469 0 .84-.099 1.116-.298.279-.202.418-.443.418-.725a.762.762 0 0 0-.239-.571c-.159-.156-.403-.272-.733-.349l-1.09-.256c-.6-.142-1.04-.362-1.322-.66-.278-.302-.417-.678-.417-1.13 0-.369.104-.696.31-.98a2.13 2.13 0 0 1 .857-.669 3.008 3.008 0 0 1 1.236-.243c.648 0 1.156.142 1.526.427.372.283.636.658.792 1.124zm4.378 5.215c-.63 0-1.175-.139-1.632-.417a2.806 2.806 0 0 1-1.053-1.176c-.244-.506-.366-1.094-.366-1.765 0-.67.122-1.261.366-1.772a2.89 2.89 0 0 1 1.031-1.202c.444-.29.96-.435 1.552-.435a3.1 3.1 0 0 1 1.01.17c.332.114.635.3.907.555.273.253.49.588.652 1.005.162.418.243.932.243 1.543v.426h-5.045v-.869h4.022c0-.37-.073-.699-.221-.989a1.67 1.67 0 0 0-.622-.686 1.742 1.742 0 0 0-.946-.251c-.401 0-.748.1-1.04.298a1.97 1.97 0 0 0-.67.767 2.252 2.252 0 0 0-.234 1.014v.58c0 .494.086.913.256 1.257.173.341.413.601.72.78.307.176.664.264 1.07.264.264 0 .503-.037.716-.111a1.53 1.53 0 0 0 .558-.341c.156-.153.277-.344.362-.571l.972.273a2.157 2.157 0 0 1-.516.869c-.241.247-.54.441-.895.58a3.327 3.327 0 0 1-1.197.204z"/><rect width="8" height="8" x="83" y="96" fill="#87F7DC" rx="4"/><path fill="#0E0E11" d="M100.415 104h-1.108l3.204-8.727h1.091l3.205 8.727h-1.108l-2.608-7.347h-.068L100.415 104zm.409-3.409h4.466v.937h-4.466v-.937zm9.865 3.545c-.614 0-1.142-.145-1.585-.434a2.837 2.837 0 0 1-1.023-1.198c-.239-.508-.358-1.089-.358-1.743 0-.664.122-1.251.366-1.76a2.9 2.9 0 0 1 1.032-1.197c.443-.29.96-.435 1.551-.435.46 0 .875.085 1.244.256.37.17.672.41.908.716.236.307.382.665.439 1.074h-1.006a1.562 1.562 0 0 0-.511-.793c-.262-.233-.614-.35-1.057-.35a1.77 1.77 0 0 0-1.031.307 1.99 1.99 0 0 0-.686.857c-.162.367-.243.797-.243 1.291 0 .506.079.946.238 1.321.162.375.39.666.682.874.296.207.642.311 1.04.311.261 0 .499-.045.712-.136.213-.091.393-.222.541-.392.147-.171.253-.375.315-.614h1.006a2.34 2.34 0 0 1-.422 1.044 2.364 2.364 0 0 1-.882.733c-.364.179-.787.268-1.27.268zm6.891-6.681v.852h-3.392v-.853h3.392zm-2.404-1.569h1.006v6.239c0 .284.041.497.123.639a.645.645 0 0 0 .324.281c.134.046.274.069.422.069.111 0 .202-.006.273-.017l.17-.035.205.904a2.156 2.156 0 0 1-.75.119c-.284 0-.563-.061-.835-.183a1.659 1.659 0 0 1-.674-.558c-.176-.25-.264-.566-.264-.946v-6.512zm3.916 8.114v-6.546h1.006V104h-1.006zm.512-7.636a.715.715 0 0 1-.507-.2.641.641 0 0 1-.209-.482.64.64 0 0 1 .209-.482.715.715 0 0 1 .507-.2c.196 0 .363.067.503.2a.637.637 0 0 1 .213.482.638.638 0 0 1-.213.481.702.702 0 0 1-.503.2zm7.688 1.09-2.42 6.546h-1.023l-2.42-6.546h1.091l1.806 5.216h.069l1.806-5.216h1.091zm3.838 6.682c-.631 0-1.175-.139-1.632-.417a2.803 2.803 0 0 1-1.053-1.176c-.244-.506-.367-1.094-.367-1.765 0-.67.123-1.261.367-1.772a2.892 2.892 0 0 1 1.031-1.202c.443-.29.96-.435 1.551-.435a3.1 3.1 0 0 1 1.01.17 2.5 2.5 0 0 1 .908.555c.273.253.49.588.652 1.005.162.418.243.932.243 1.543v.426h-5.046v-.869h4.023c0-.37-.074-.699-.221-.989a1.673 1.673 0 0 0-.623-.686 1.741 1.741 0 0 0-.946-.251c-.4 0-.747.1-1.039.298a1.96 1.96 0 0 0-.669.767 2.244 2.244 0 0 0-.235 1.014v.58c0 .494.085.913.256 1.257.173.341.413.601.72.78.307.176.663.264 1.07.264.264 0 .502-.037.716-.111.215-.077.402-.19.558-.341.156-.153.277-.344.362-.571l.972.273a2.171 2.171 0 0 1-.516.869 2.52 2.52 0 0 1-.895.58 3.325 3.325 0 0 1-1.197.204z"/><rect width="8" height="8" x="147" y="96" fill="#8792F7" rx="4"/><path fill="#0E0E11" d="M164.057 104v-8.727h5.267v.937h-4.21v2.95h3.937v.937h-3.937v2.965h4.278V104h-5.335zm7.785-6.546 1.569 2.677 1.568-2.677h1.159l-2.114 3.273 2.114 3.273h-1.159l-1.568-2.54-1.569 2.54h-1.159l2.08-3.273-2.08-3.273h1.159zm8.577 0v.853h-3.392v-.853h3.392zm-2.403-1.568h1.006v6.239c0 .284.041.497.123.639a.637.637 0 0 0 .324.281c.134.046.274.069.422.069.111 0 .202-.006.273-.017l.17-.035.205.904a2.2 2.2 0 0 1-.75.119c-.284 0-.563-.061-.836-.183a1.662 1.662 0 0 1-.673-.558c-.176-.25-.264-.566-.264-.946v-6.512zm3.916 8.114v-6.546h.972v.99h.068c.119-.325.335-.588.648-.79a1.903 1.903 0 0 1 1.056-.302c.074 0 .167.002.277.004.111.003.195.008.252.013v1.023a2.968 2.968 0 0 0-.234-.038c-.12-.02-.246-.03-.38-.03a1.78 1.78 0 0 0-.852.2 1.47 1.47 0 0 0-.801 1.334V104h-1.006zm6.391.153c-.415 0-.791-.078-1.129-.234a1.942 1.942 0 0 1-.806-.686c-.198-.301-.298-.665-.298-1.091 0-.375.074-.679.222-.912.148-.236.345-.42.592-.554a3.12 3.12 0 0 1 .818-.298 10.1 10.1 0 0 1 .908-.162c.398-.051.72-.09.967-.115.25-.029.432-.075.546-.14.116-.066.174-.18.174-.342v-.034c0-.42-.115-.747-.345-.98-.227-.233-.572-.35-1.035-.35-.48 0-.857.106-1.129.316-.273.21-.465.435-.576.673l-.954-.34c.17-.398.397-.708.682-.93a2.55 2.55 0 0 1 .937-.468 3.89 3.89 0 0 1 1.006-.137 4 4 0 0 1 .724.077c.276.048.541.15.797.303.259.153.473.385.643.694.171.31.256.725.256 1.245V104h-1.006v-.886h-.051a1.748 1.748 0 0 1-.341.456c-.159.162-.37.299-.635.413-.264.114-.586.17-.967.17zm.154-.903c.397 0 .733-.078 1.005-.234a1.597 1.597 0 0 0 .835-1.385v-.921c-.042.051-.136.098-.281.141a4.65 4.65 0 0 1-.494.106 21.302 21.302 0 0 1-.963.128c-.262.034-.506.09-.733.166a1.265 1.265 0 0 0-.546.337c-.136.148-.204.349-.204.605 0 .35.129.614.388.793.261.176.592.264.993.264z"/></svg>