<svg xmlns="http://www.w3.org/2000/svg" width="64" height="64" fill="none"><path fill="#000" fill-rule="evenodd" d="M14.312 13.818c1.75 1.415 2.407 1.307 5.695 1.089l30.996-1.852c.657 0 .11-.652-.109-.76l-5.148-3.703c-.986-.761-2.3-1.634-4.819-1.416L10.915 9.354c-1.095.108-1.314.653-.878 1.089l4.275 3.375zm1.86 7.186v32.444c0 1.743.877 2.395 2.848 2.288l34.064-1.961c1.972-.108 2.192-1.307 2.192-2.724V18.825c0-1.414-.547-2.176-1.754-2.067l-35.597 2.067c-1.314.11-1.752.764-1.752 2.179zm33.629 1.74c.218.981 0 1.961-.988 2.071l-1.642.326v23.952c-1.425.761-2.739 1.197-3.834 1.197-1.753 0-2.192-.545-3.505-2.177L29.096 31.347v16.222l3.397.762s0 1.96-2.74 1.96l-7.556.435c-.22-.436 0-1.524.766-1.742l1.972-.543V26.992l-2.738-.218c-.22-.981.327-2.395 1.862-2.505l8.106-.543L43.337 40.71V25.685l-2.848-.325c-.219-1.2.656-2.07 1.752-2.178l7.56-.438zM8.395 6.414l31.218-2.286c3.834-.327 4.82-.108 7.23 1.633l9.965 6.968C58.452 13.927 59 14.253 59 15.559v38.216c0 2.395-.877 3.811-3.943 4.028L18.803 59.98c-2.302.109-3.397-.217-4.603-1.742l-7.338-9.473C5.547 47.023 5 45.718 5 44.192V10.224c0-1.959.877-3.592 3.395-3.81z" clip-rule="evenodd"/></svg>