<svg xmlns="http://www.w3.org/2000/svg" width="304" height="102" fill="none"><path fill="#fff" d="M0 0h304v102H0z"/><path fill="#0E0E11" d="M26.415 38h-3.296V27.818h3.4c.998 0 1.855.204 2.57.612a4.03 4.03 0 0 1 1.646 1.745c.385.755.577 1.662.577 2.72 0 1.06-.194 1.971-.582 2.734a4.083 4.083 0 0 1-1.67 1.76c-.73.407-1.611.611-2.645.611zm-1.76-1.342h1.675c.776 0 1.42-.146 1.934-.438.514-.295.898-.72 1.154-1.277.255-.56.382-1.243.382-2.049 0-.799-.127-1.476-.382-2.033a2.705 2.705 0 0 0-1.129-1.268c-.5-.288-1.122-.433-1.864-.433h-1.77v7.498zm11.739 1.496c-.752 0-1.4-.16-1.944-.482a3.271 3.271 0 0 1-1.253-1.367c-.291-.59-.437-1.281-.437-2.074 0-.782.146-1.471.437-2.068a3.397 3.397 0 0 1 1.233-1.397c.53-.334 1.15-.502 1.86-.502.43 0 .848.072 1.252.214a3.03 3.03 0 0 1 1.09.671c.32.305.574.701.76 1.188.185.484.278 1.073.278 1.765v.527H33.6v-1.113h4.614c0-.392-.08-.738-.239-1.04a1.803 1.803 0 0 0-.671-.72 1.875 1.875 0 0 0-1.005-.264 1.94 1.94 0 0 0-1.093.308 2.068 2.068 0 0 0-.716.796 2.296 2.296 0 0 0-.249 1.059v.87c0 .51.09.944.269 1.302.182.358.436.632.76.82.325.186.705.28 1.139.28.282 0 .538-.04.77-.12a1.599 1.599 0 0 0 .99-.97l1.407.254a2.549 2.549 0 0 1-.607 1.089 2.941 2.941 0 0 1-1.089.72c-.434.17-.93.254-1.486.254zm11.24-7.79L44.863 38h-1.59l-2.775-7.636h1.596l1.934 5.876h.08l1.929-5.876h1.596zM49.03 38v-7.636h1.486V38H49.03zm.75-8.815a.945.945 0 0 1-.666-.258.84.84 0 0 1-.273-.627.83.83 0 0 1 .273-.626.935.935 0 0 1 .666-.264c.259 0 .48.088.662.264a.824.824 0 0 1 .278.626.837.837 0 0 1-.278.627.928.928 0 0 1-.662.258zm5.953 8.97c-.74 0-1.376-.168-1.91-.503a3.325 3.325 0 0 1-1.223-1.397c-.285-.593-.427-1.273-.427-2.038 0-.776.146-1.46.437-2.054a3.352 3.352 0 0 1 1.233-1.397c.53-.334 1.155-.502 1.875-.502.58 0 1.097.108 1.55.323a2.714 2.714 0 0 1 1.602 2.243h-1.447a1.734 1.734 0 0 0-.547-.925c-.282-.259-.66-.388-1.134-.388-.414 0-.777.11-1.088.328-.309.216-.549.524-.721.925-.173.398-.259.868-.259 1.412 0 .557.085 1.037.254 1.442.169.404.407.717.716.94.311.221.677.332 1.098.332.282 0 .537-.051.766-.154a1.57 1.57 0 0 0 .582-.452c.159-.196.27-.431.333-.706h1.447a2.81 2.81 0 0 1-.483 1.322 2.774 2.774 0 0 1-1.078.915c-.448.222-.973.333-1.577.333zm8.017 0c-.752 0-1.4-.162-1.944-.483a3.272 3.272 0 0 1-1.252-1.367c-.292-.59-.438-1.281-.438-2.074 0-.782.146-1.471.438-2.068a3.398 3.398 0 0 1 1.233-1.397c.53-.334 1.15-.502 1.859-.502.43 0 .849.072 1.253.214.404.142.767.366 1.089.671.321.305.575.701.76 1.188.186.484.279 1.073.279 1.765v.527h-6.07v-1.113h4.613c0-.392-.08-.738-.239-1.04a1.803 1.803 0 0 0-.67-.72 1.875 1.875 0 0 0-1.005-.264 1.94 1.94 0 0 0-1.094.308 2.07 2.07 0 0 0-.716.796 2.296 2.296 0 0 0-.248 1.059v.87c0 .51.09.944.268 1.302.183.358.436.632.76.82.326.186.705.28 1.14.28.281 0 .538-.04.77-.12a1.599 1.599 0 0 0 .99-.97l1.406.254a2.548 2.548 0 0 1-.606 1.089 2.94 2.94 0 0 1-1.09.72c-.433.17-.929.254-1.486.254zm10.853.014a3.12 3.12 0 0 1-1.312-.268 2.211 2.211 0 0 1-.93-.79c-.225-.346-.338-.768-.338-1.269 0-.43.083-.785.249-1.064.165-.278.39-.498.67-.66.283-.163.597-.286.945-.369a9.383 9.383 0 0 1 1.064-.189l1.114-.129c.285-.036.492-.094.621-.174.13-.08.194-.209.194-.388v-.035c0-.434-.122-.77-.368-1.009-.242-.238-.603-.358-1.083-.358-.5 0-.895.111-1.184.333-.285.22-.482.463-.591.731l-1.397-.318c.166-.464.407-.838.726-1.123a2.942 2.942 0 0 1 1.108-.627 4.328 4.328 0 0 1 1.318-.199c.305 0 .628.037.97.11.344.07.666.198.964.387.301.19.548.46.74.81.193.349.289.801.289 1.358V38H76.92v-1.044h-.06c-.096.192-.24.381-.432.567-.192.185-.44.34-.74.462-.302.123-.664.184-1.085.184zm.324-1.193c.41 0 .762-.081 1.053-.244.296-.162.52-.374.672-.636a1.65 1.65 0 0 0 .233-.85v-.985c-.053.053-.155.103-.308.15-.149.043-.32.08-.512.114-.192.03-.38.058-.562.084l-.457.06a3.685 3.685 0 0 0-.79.184c-.236.086-.425.21-.567.373-.14.159-.21.371-.21.636 0 .368.137.646.408.835.272.186.619.279 1.04.279zm6.911-3.51V38h-1.486v-7.636h1.427v1.242h.094a2.18 2.18 0 0 1 .825-.974c.378-.245.854-.368 1.427-.368.52 0 .976.11 1.367.328.392.216.695.537.91.965.216.427.323.956.323 1.586V38H85.24v-4.678c0-.554-.144-.986-.433-1.298-.288-.315-.684-.472-1.188-.472-.345 0-.651.074-.92.224a1.611 1.611 0 0 0-.631.656c-.153.285-.229.63-.229 1.034zm9.74 4.683a2.96 2.96 0 0 1-1.65-.472c-.481-.318-.86-.77-1.134-1.357-.272-.59-.408-1.298-.408-2.123 0-.826.137-1.532.412-2.118.279-.587.66-1.036 1.144-1.348a2.974 2.974 0 0 1 1.646-.467c.474 0 .855.08 1.143.239.292.156.517.338.676.547.163.209.289.392.378.552h.09v-3.784h1.486V38H93.91v-1.188h-.124a4.02 4.02 0 0 1-.388.557 2.157 2.157 0 0 1-.686.547c-.291.155-.67.233-1.133.233zm.328-1.268c.427 0 .789-.112 1.084-.338.298-.228.523-.545.676-.95.156-.404.233-.874.233-1.411 0-.53-.076-.995-.228-1.392-.153-.398-.376-.708-.671-.93-.295-.222-.66-.333-1.094-.333-.448 0-.82.116-1.119.348a2.127 2.127 0 0 0-.676.95c-.15.4-.224.853-.224 1.357 0 .51.076.97.229 1.377.152.408.378.73.676.97.302.235.673.352 1.114.352zM101.308 38V27.818h3.629c.792 0 1.449.144 1.969.433.52.288.91.682 1.168 1.183.259.497.388 1.057.388 1.68a3.59 3.59 0 0 1-.393 1.69 2.835 2.835 0 0 1-1.173 1.184c-.52.288-1.175.432-1.964.432h-2.495v-1.302h2.356c.501 0 .907-.086 1.218-.259a1.62 1.62 0 0 0 .686-.715c.146-.302.219-.645.219-1.03a2.3 2.3 0 0 0-.219-1.024 1.569 1.569 0 0 0-.691-.7c-.311-.17-.722-.254-1.233-.254h-1.929V38h-1.536zm10.322-10.182V38h-1.486V27.818h1.486zm4.222 10.351a3.12 3.12 0 0 1-1.312-.268 2.214 2.214 0 0 1-.93-.79c-.225-.346-.338-.768-.338-1.269 0-.43.083-.785.249-1.064.165-.278.389-.498.671-.66a3.51 3.51 0 0 1 .945-.369 9.38 9.38 0 0 1 1.063-.189l1.114-.129c.285-.036.492-.094.622-.174.129-.08.193-.209.193-.388v-.035c0-.434-.122-.77-.367-1.009-.242-.238-.604-.358-1.084-.358-.501 0-.895.111-1.184.333-.285.22-.482.463-.591.731l-1.397-.318c.166-.464.408-.838.726-1.123a2.94 2.94 0 0 1 1.108-.627 4.331 4.331 0 0 1 1.318-.199c.305 0 .628.037.969.11.345.07.667.198.965.387.301.19.548.46.741.81.192.349.288.801.288 1.358V38h-1.452v-1.044h-.059a2.141 2.141 0 0 1-.433.567c-.192.185-.439.34-.741.462-.301.123-.663.184-1.084.184zm.324-1.193c.411 0 .762-.081 1.054-.244.295-.162.518-.374.671-.636.156-.265.233-.549.233-.85v-.985c-.053.053-.155.103-.308.15-.149.043-.32.08-.512.114-.192.03-.379.058-.562.084l-.457.06a3.701 3.701 0 0 0-.791.184c-.235.086-.424.21-.566.373-.14.159-.209.371-.209.636 0 .368.136.646.408.835.271.186.618.279 1.039.279zm8.989-6.612v1.193h-4.171v-1.193h4.171zm-3.052-1.83h1.486v7.224c0 .288.044.505.13.651a.67.67 0 0 0 .333.293c.139.05.29.075.452.075.12 0 .224-.008.313-.025.09-.016.16-.03.209-.04l.269 1.228a2.497 2.497 0 0 1-.368.1 2.916 2.916 0 0 1-.597.06 2.62 2.62 0 0 1-1.094-.21 1.877 1.877 0 0 1-.82-.675c-.209-.305-.313-.688-.313-1.149v-7.532zm8.331 1.83v1.193h-4.315v-1.193h4.315zM127.312 38v-8.521c0-.478.104-.874.313-1.188.209-.319.486-.556.83-.712.345-.159.72-.238 1.124-.238.298 0 .554.025.766.075.212.046.369.089.472.129l-.348 1.203a7.006 7.006 0 0 0-.269-.07 1.518 1.518 0 0 0-.397-.044c-.362 0-.62.089-.776.268-.152.179-.229.438-.229.776V38h-1.486zm7.582.154c-.716 0-1.341-.164-1.875-.492a3.323 3.323 0 0 1-1.243-1.377c-.295-.59-.442-1.28-.442-2.068 0-.792.147-1.485.442-2.078a3.316 3.316 0 0 1 1.243-1.383c.534-.328 1.159-.492 1.875-.492s1.34.164 1.874.492a3.31 3.31 0 0 1 1.243 1.383c.295.593.442 1.285.442 2.078 0 .788-.147 1.478-.442 2.068a3.316 3.316 0 0 1-1.243 1.377c-.534.328-1.158.492-1.874.492zm.005-1.248c.464 0 .848-.122 1.153-.368a2.15 2.15 0 0 0 .676-.98 3.89 3.89 0 0 0 .224-1.346c0-.488-.075-.935-.224-1.343a2.187 2.187 0 0 0-.676-.989c-.305-.249-.689-.373-1.153-.373-.468 0-.855.124-1.164.373a2.22 2.22 0 0 0-.681.99 3.956 3.956 0 0 0-.219 1.342c0 .49.073.94.219 1.347.149.408.376.734.681.98.309.245.696.367 1.164.367zM140.113 38v-7.636h1.436v1.213h.08c.139-.411.384-.734.736-.97a2.103 2.103 0 0 1 1.203-.358 6.372 6.372 0 0 1 .631.035v1.422a2.649 2.649 0 0 0-.318-.055 3.031 3.031 0 0 0-.457-.035 1.94 1.94 0 0 0-.94.224 1.66 1.66 0 0 0-.885 1.497V38h-1.486zm5.373 0v-7.636h1.426v1.242h.095c.159-.42.419-.748.78-.984.362-.238.794-.358 1.298-.358.51 0 .938.12 1.283.358.348.239.605.567.77.985h.08c.182-.408.472-.733.87-.975.398-.245.872-.368 1.422-.368.692 0 1.258.217 1.695.652.441.434.661 1.088.661 1.963V38h-1.486v-4.981c0-.518-.141-.892-.423-1.124a1.537 1.537 0 0 0-1.009-.348c-.484 0-.86.149-1.129.447-.268.295-.402.675-.402 1.139V38h-1.482v-5.076c0-.414-.129-.747-.388-1-.258-.251-.595-.377-1.009-.377a1.44 1.44 0 0 0-.78.224c-.236.145-.426.35-.572.611a1.868 1.868 0 0 0-.214.91V38h-1.486z"/><rect width="62" height="24" x="22" y="55" fill="#F0F1FE" rx="12"/><path fill="#8792F7" d="M31.696 71h-1.398l3.14-8.727h1.522L38.1 71h-1.397l-2.467-7.142h-.068L31.696 71zm.234-3.418h4.535v1.108H31.93v-1.108zm8.603-.468V71h-1.274v-6.546h1.223v1.066h.08a1.87 1.87 0 0 1 .708-.835c.324-.21.732-.316 1.223-.316.446 0 .837.094 1.172.282.335.184.595.46.78.826.185.367.277.82.277 1.36V71h-1.274v-4.01c0-.474-.124-.845-.37-1.112-.248-.27-.588-.405-1.02-.405-.295 0-.558.064-.788.192a1.38 1.38 0 0 0-.541.562c-.13.245-.196.54-.196.887zm8.348 4.014c-.528 0-1-.135-1.415-.405-.412-.273-.736-.66-.971-1.163-.233-.506-.35-1.113-.35-1.82 0-.707.118-1.312.354-1.815.239-.503.565-.888.98-1.155.415-.267.885-.4 1.41-.4.407 0 .733.067.98.204.25.133.444.29.58.469.14.179.247.336.324.473h.077v-3.243h1.274V71H50.88v-1.019h-.107c-.077.14-.187.299-.332.478a1.847 1.847 0 0 1-.588.469c-.25.133-.574.2-.972.2zm.281-1.087c.367 0 .676-.096.93-.29.255-.196.448-.467.579-.814.133-.346.2-.75.2-1.21 0-.454-.065-.852-.196-1.193a1.754 1.754 0 0 0-.575-.797c-.253-.19-.566-.285-.938-.285-.383 0-.703.1-.959.298a1.84 1.84 0 0 0-.58.814 3.321 3.321 0 0 0-.19 1.163c0 .438.065.831.195 1.18.13.35.324.627.58.832.258.201.576.302.954.302zm4.78.959v-6.546h1.232v1.04h.068c.12-.352.33-.629.63-.83a1.804 1.804 0 0 1 1.032-.308 5.436 5.436 0 0 1 .541.03v1.22a2.292 2.292 0 0 0-.272-.048 2.597 2.597 0 0 0-.392-.03c-.302 0-.57.064-.806.192a1.425 1.425 0 0 0-.758 1.283V71h-1.274zm7.129.132c-.614 0-1.15-.14-1.607-.422a2.844 2.844 0 0 1-1.065-1.18c-.253-.506-.38-1.097-.38-1.773 0-.679.127-1.273.38-1.781a2.838 2.838 0 0 1 1.065-1.185c.458-.281.993-.422 1.607-.422.613 0 1.149.14 1.606.422.458.281.813.676 1.066 1.185.252.508.379 1.102.379 1.781 0 .676-.127 1.267-.38 1.773a2.836 2.836 0 0 1-1.065 1.18c-.457.282-.993.422-1.606.422zm.004-1.07c.398 0 .727-.105.989-.315.26-.21.454-.49.58-.84.127-.349.19-.734.19-1.154a3.34 3.34 0 0 0-.19-1.15 1.874 1.874 0 0 0-.58-.849c-.262-.213-.591-.32-.99-.32-.4 0-.732.107-.996.32a1.903 1.903 0 0 0-.584.848c-.125.35-.188.733-.188 1.15 0 .421.063.806.188 1.156.128.35.322.629.584.84.264.21.596.314.997.314zm4.469.938v-6.546h1.274V71h-1.274zm.644-7.555a.81.81 0 0 1-.572-.222.72.72 0 0 1-.234-.537c0-.21.078-.39.234-.537.16-.15.35-.226.572-.226.221 0 .41.076.566.226.16.148.239.327.239.537 0 .208-.08.386-.239.537a.795.795 0 0 1-.567.222zm4.795 7.683c-.529 0-1-.135-1.415-.405-.412-.273-.736-.66-.972-1.163-.233-.506-.35-1.113-.35-1.82 0-.707.119-1.312.355-1.815.238-.503.565-.888.98-1.155.414-.267.885-.4 1.41-.4.406 0 .733.067.98.204.25.133.443.29.58.469.139.179.247.336.324.473h.076v-3.243h1.275V71H72.98v-1.019h-.106c-.077.14-.188.299-.333.478a1.848 1.848 0 0 1-.588.469c-.25.133-.574.2-.971.2zm.28-1.087c.367 0 .677-.096.93-.29.255-.196.449-.467.58-.814.133-.346.2-.75.2-1.21a3.34 3.34 0 0 0-.196-1.193 1.752 1.752 0 0 0-.576-.797c-.252-.19-.565-.285-.937-.285-.384 0-.703.1-.959.298-.256.199-.449.47-.58.814a3.321 3.321 0 0 0-.191 1.163c0 .438.065.831.196 1.18.13.35.324.627.58.832.258.201.576.302.954.302z"/><rect width="37" height="24" x="92" y="55" fill="#F0F1FE" rx="12"/><path fill="#8792F7" d="M102.276 62.273V71h-1.317v-8.727h1.317zm9.498 4.363c0 .932-.17 1.733-.511 2.404-.341.667-.808 1.182-1.402 1.542-.591.358-1.263.537-2.016.537-.756 0-1.43-.179-2.024-.537-.591-.36-1.057-.876-1.398-1.546-.341-.67-.511-1.47-.511-2.4 0-.931.17-1.731.511-2.399.341-.67.807-1.184 1.398-1.542.594-.361 1.268-.542 2.024-.542.753 0 1.425.18 2.016.542.594.358 1.061.872 1.402 1.542.341.668.511 1.468.511 2.4zm-1.304 0c0-.71-.115-1.308-.345-1.794-.227-.488-.54-.858-.937-1.108a2.438 2.438 0 0 0-1.343-.379c-.503 0-.952.127-1.346.38-.395.25-.708.619-.938 1.107-.227.486-.341 1.084-.341 1.794s.114 1.31.341 1.799c.23.486.543.855.938 1.108.394.25.843.375 1.346.375.5 0 .948-.125 1.343-.375.397-.253.71-.623.937-1.108.23-.489.345-1.088.345-1.799zm7.706-2.07a1.246 1.246 0 0 0-.563-.938c-.329-.225-.744-.337-1.244-.337-.358 0-.668.057-.929.17a1.435 1.435 0 0 0-.609.46 1.087 1.087 0 0 0-.213.661c0 .208.048.387.144.537.1.15.229.277.388.38.162.099.335.183.52.251.185.065.362.12.533.162l.852.221c.278.069.564.161.857.278.292.116.563.27.813.46s.452.426.606.707c.156.281.234.618.234 1.01 0 .494-.128.933-.384 1.317-.252.383-.62.686-1.103.907-.48.222-1.061.333-1.743.333-.654 0-1.219-.104-1.696-.311-.477-.208-.851-.502-1.121-.882-.27-.384-.419-.838-.447-1.364h1.321c.025.315.128.578.307.788.181.208.413.363.694.465.284.1.595.15.933.15.373 0 .703-.06.993-.176.293-.119.523-.284.691-.494.167-.213.251-.462.251-.746a.914.914 0 0 0-.222-.635 1.63 1.63 0 0 0-.592-.409 5.804 5.804 0 0 0-.839-.285l-1.032-.281c-.699-.19-1.252-.47-1.662-.84-.406-.37-.609-.858-.609-1.466 0-.503.136-.942.409-1.317a2.687 2.687 0 0 1 1.108-.873 3.8 3.8 0 0 1 1.577-.316c.591 0 1.112.104 1.564.312.454.207.812.492 1.074.856.261.36.397.776.409 1.244h-1.27z"/><rect width="69" height="24" x="137" y="55" fill="#F0F1FE" rx="12"/><path fill="#8792F7" d="m147.668 71-2.421-8.727h1.385l1.7 6.758h.081l1.769-6.758h1.372l1.768 6.762h.081l1.696-6.762h1.39L154.064 71h-1.325l-1.837-6.537h-.068L148.997 71h-1.329zm9.919 0v-6.546h1.274V71h-1.274zm.643-7.555a.813.813 0 0 1-.571-.222.721.721 0 0 1-.234-.537c0-.21.078-.39.234-.537.16-.15.35-.226.571-.226.222 0 .411.076.567.226a.707.707 0 0 1 .239.537c0 .208-.08.386-.239.537a.795.795 0 0 1-.567.222zm3.619 3.669V71h-1.274v-6.546h1.223v1.066h.081c.151-.347.387-.625.708-.835.324-.21.731-.316 1.223-.316.446 0 .836.094 1.172.282.335.184.595.46.779.826.185.367.277.82.277 1.36V71h-1.274v-4.01c0-.474-.123-.845-.371-1.112-.247-.27-.586-.405-1.018-.405-.295 0-.558.064-.788.192a1.379 1.379 0 0 0-.542.562c-.13.245-.196.54-.196.887zm8.348 4.014c-.528 0-1-.135-1.414-.405-.412-.273-.736-.66-.972-1.163-.233-.506-.349-1.113-.349-1.82 0-.707.118-1.312.353-1.815.239-.503.566-.888.98-1.155a2.55 2.55 0 0 1 1.411-.4c.406 0 .733.067.98.204.25.133.443.29.58.469.139.179.247.336.323.473h.077v-3.243h1.274V71h-1.244v-1.019h-.107a3.3 3.3 0 0 1-.332.478 1.847 1.847 0 0 1-.588.469c-.25.133-.574.2-.972.2zm.282-1.087c.366 0 .676-.096.929-.29a1.79 1.79 0 0 0 .579-.814c.134-.346.201-.75.201-1.21 0-.454-.066-.852-.197-1.193a1.747 1.747 0 0 0-.575-.797c-.253-.19-.565-.285-.937-.285-.384 0-.703.1-.959.298-.256.199-.449.47-.58.814a3.34 3.34 0 0 0-.191 1.163c0 .438.065.831.196 1.18.13.35.323.627.579.832.259.201.577.302.955.302zm7.537 1.091c-.614 0-1.149-.14-1.607-.422a2.847 2.847 0 0 1-1.065-1.18c-.253-.506-.379-1.097-.379-1.773 0-.679.126-1.273.379-1.781a2.841 2.841 0 0 1 1.065-1.185c.458-.281.993-.422 1.607-.422s1.149.14 1.607.422c.457.281.812.676 1.065 1.185.253.508.379 1.102.379 1.781 0 .676-.126 1.267-.379 1.773a2.85 2.85 0 0 1-1.065 1.18c-.458.282-.993.422-1.607.422zm.004-1.07c.398 0 .728-.105.989-.315.261-.21.454-.49.579-.84a3.33 3.33 0 0 0 .192-1.154c0-.418-.064-.801-.192-1.15a1.876 1.876 0 0 0-.579-.849c-.261-.213-.591-.32-.989-.32-.4 0-.733.107-.997.32a1.908 1.908 0 0 0-.584.848c-.125.35-.187.733-.187 1.15 0 .421.062.806.187 1.156.128.35.323.629.584.84.264.21.597.314.997.314zm5.689.938-1.926-6.546h1.317l1.282 4.807h.064l1.287-4.806h1.317l1.278 4.785h.064l1.275-4.785h1.316L189.061 71h-1.299l-1.33-4.726h-.098L185.005 71h-1.296zm13.388-4.947-1.155.204a1.364 1.364 0 0 0-.23-.422 1.135 1.135 0 0 0-.417-.328 1.515 1.515 0 0 0-.661-.128c-.361 0-.662.081-.903.243-.242.16-.362.365-.362.618 0 .219.081.395.243.529.161.133.423.242.784.328l1.039.238c.603.14 1.052.354 1.347.644.295.29.443.666.443 1.129 0 .392-.113.741-.341 1.048-.224.304-.538.543-.942.716-.4.174-.865.26-1.393.26-.733 0-1.331-.156-1.794-.469-.463-.315-.747-.762-.852-1.342l1.231-.188c.077.322.235.564.473.73.239.161.55.242.933.242.418 0 .752-.087 1.002-.26.25-.176.375-.39.375-.643a.67.67 0 0 0-.23-.516c-.151-.14-.382-.244-.695-.315l-1.108-.243c-.611-.14-1.062-.361-1.355-.665-.29-.304-.435-.689-.435-1.155 0-.386.108-.724.324-1.014.216-.29.515-.516.895-.677a3.267 3.267 0 0 1 1.308-.248c.708 0 1.265.154 1.671.46.406.305.675.712.805 1.224z"/><rect width="47" height="24" x="214" y="55" fill="#F0F1FE" rx="12"/><path fill="#8792F7" d="M222.959 71v-8.727h1.317v7.593h3.954V71h-5.271zm6.671 0v-6.546h1.274V71h-1.274zm.643-7.555a.813.813 0 0 1-.571-.222.721.721 0 0 1-.234-.537c0-.21.078-.39.234-.537.16-.15.35-.226.571-.226.222 0 .411.076.567.226a.707.707 0 0 1 .239.537c0 .208-.08.386-.239.537a.795.795 0 0 1-.567.222zm3.619 3.669V71h-1.274v-6.546h1.223v1.066h.081c.151-.347.387-.625.708-.835.323-.21.731-.316 1.223-.316.446 0 .836.094 1.172.282.335.184.595.46.779.826.185.367.277.82.277 1.36V71h-1.274v-4.01c0-.474-.123-.845-.371-1.112-.247-.27-.586-.405-1.018-.405-.295 0-.558.064-.788.192a1.379 1.379 0 0 0-.542.562c-.13.245-.196.54-.196.887zm10.044 1.171v-3.83h1.279V71h-1.253v-1.133h-.068c-.151.349-.392.64-.725.873-.329.23-.74.345-1.231.345-.421 0-.793-.092-1.117-.277a1.947 1.947 0 0 1-.758-.83c-.182-.367-.273-.82-.273-1.36v-4.163h1.274v4.01c0 .445.124.8.371 1.065.247.264.568.396.963.396a1.568 1.568 0 0 0 1.304-.72c.159-.242.237-.548.234-.92zm3.997-3.83 1.444 2.548 1.458-2.549h1.393l-2.041 3.273L252.245 71h-1.393l-1.475-2.446-1.47 2.446h-1.398l2.037-3.273-2.011-3.273h1.398z"/></svg>