<svg xmlns="http://www.w3.org/2000/svg" width="296" height="144" fill="none"><path fill="#fff" d="M0 0h296v144H0z"/><path fill="#8792F7" d="M34.572 32h-5.143v10.286h5.143V32.001zm0-10.285h-5.143v5.143h5.143v-5.143zm5.143 5.143h-5.143V32h5.143v-5.143z"/><path fill="#8792F7" d="M29.43 32h-5.144v5.143h5.143v-5.142z"/><path fill="#6D7079" d="M67.977 23.273V32h-1.023L62.2 25.148h-.085V32h-1.057v-8.727h1.023l4.772 6.869h.085v-6.87h1.04zm6.104 6.05v-3.869h1.005V32h-1.005v-1.108h-.069a2.147 2.147 0 0 1-.716.848c-.323.23-.732.345-1.227.345a2.19 2.19 0 0 1-1.09-.268 1.88 1.88 0 0 1-.75-.818c-.183-.367-.273-.828-.273-1.385v-4.16h1.005v4.091c0 .478.134.858.4 1.142.27.285.614.427 1.032.427.25 0 .504-.064.763-.192.261-.128.48-.324.656-.588.18-.264.269-.601.269-1.01zM76.928 32v-6.546h.972v1.023h.085c.136-.35.357-.62.66-.814.305-.196.67-.294 1.096-.294.432 0 .791.098 1.078.294.29.194.516.465.677.814h.069c.167-.338.419-.606.754-.805.335-.202.737-.303 1.206-.303.585 0 1.064.184 1.436.55.372.364.558.93.558 1.7V32h-1.006v-4.38c0-.484-.132-.829-.396-1.036a1.467 1.467 0 0 0-.933-.311c-.46 0-.817.139-1.07.417-.252.276-.379.625-.379 1.049V32h-1.023v-4.483c0-.372-.12-.672-.362-.9-.241-.23-.552-.344-.933-.344-.261 0-.506.07-.733.209a1.581 1.581 0 0 0-.546.58 1.71 1.71 0 0 0-.204.847V32h-1.006zm10.566 0v-8.727H88.5v3.221h.085a9.15 9.15 0 0 1 .307-.434c.134-.18.324-.338.571-.478.25-.142.588-.213 1.014-.213.551 0 1.037.138 1.458.414.42.275.748.666.984 1.171.236.506.354 1.103.354 1.79 0 .694-.118 1.294-.354 1.803-.236.506-.563.898-.98 1.176-.418.276-.9.413-1.445.413-.42 0-.757-.07-1.01-.208a1.871 1.871 0 0 1-.583-.482 6.454 6.454 0 0 1-.316-.452h-.12V32h-.97zm.989-3.273c0 .495.072.93.217 1.308.145.375.357.67.635.883.279.21.62.315 1.023.315.42 0 .771-.11 1.052-.332a2.03 2.03 0 0 0 .64-.904 3.54 3.54 0 0 0 .217-1.27c0-.46-.071-.875-.213-1.244a1.923 1.923 0 0 0-.635-.882c-.281-.219-.635-.328-1.061-.328-.41 0-.753.103-1.031.31a1.868 1.868 0 0 0-.631.862c-.142.366-.213.794-.213 1.282zm9.072 3.41c-.63 0-1.174-.14-1.632-.418a2.804 2.804 0 0 1-1.052-1.176c-.245-.506-.367-1.094-.367-1.765 0-.67.122-1.261.367-1.772a2.89 2.89 0 0 1 1.031-1.202c.443-.29.96-.435 1.551-.435.341 0 .678.057 1.01.17.333.114.635.3.908.555.273.253.49.588.652 1.005.162.418.243.932.243 1.543v.426H95.22v-.87h4.023c0-.369-.074-.698-.222-.988a1.67 1.67 0 0 0-.622-.686 1.742 1.742 0 0 0-.946-.251c-.4 0-.747.1-1.04.298-.29.196-.512.452-.669.767a2.254 2.254 0 0 0-.234 1.014v.58c0 .494.085.913.256 1.257.173.34.413.6.72.78a2.11 2.11 0 0 0 1.07.264c.264 0 .502-.037.715-.11.216-.078.402-.191.558-.342.157-.153.278-.343.363-.57l.971.272a2.15 2.15 0 0 1-.515.87c-.242.246-.54.44-.895.579a3.318 3.318 0 0 1-1.198.204zm4.24-.137v-6.546h.972v.99h.068c.12-.325.335-.587.648-.79a1.906 1.906 0 0 1 1.057-.302c.074 0 .166.002.277.005a3.7 3.7 0 0 1 .251.012v1.023a2.968 2.968 0 0 0-.234-.038c-.12-.02-.246-.03-.379-.03-.319 0-.603.067-.853.2a1.47 1.47 0 0 0-.801 1.334V32h-1.006zm10.499.136c-.591 0-1.109-.14-1.555-.422a2.868 2.868 0 0 1-1.04-1.18c-.247-.506-.371-1.096-.371-1.773 0-.681.124-1.277.371-1.785.25-.509.597-.904 1.04-1.185.446-.281.964-.422 1.555-.422s1.108.14 1.552.422c.446.281.792.676 1.039 1.185.25.508.375 1.104.375 1.785 0 .677-.125 1.267-.375 1.773-.247.506-.593.9-1.039 1.18-.444.282-.961.422-1.552.422zm0-.903c.449 0 .819-.115 1.108-.345.29-.23.505-.533.644-.908a3.48 3.48 0 0 0 .209-1.219c0-.437-.07-.845-.209-1.223a2.058 2.058 0 0 0-.644-.916c-.289-.233-.659-.35-1.108-.35-.448 0-.818.117-1.108.35a2.064 2.064 0 0 0-.643.916 3.515 3.515 0 0 0-.209 1.223c0 .438.07.844.209 1.22.139.374.354.677.643.907.29.23.66.345 1.108.345zm7.416-5.779v.853h-3.528v-.852h3.528zM117.239 32v-7.449c0-.375.088-.687.264-.937.176-.25.405-.438.686-.563.281-.125.578-.187.891-.187.247 0 .448.02.605.06.156.04.272.076.349.11l-.29.87a4.967 4.967 0 0 0-.213-.064 1.286 1.286 0 0 0-.349-.039c-.333 0-.573.084-.72.252-.145.167-.218.413-.218.737V32h-1.005zm7.75 0h-1.108l3.205-8.727h1.09L131.381 32h-1.108l-2.608-7.347h-.068L124.989 32zm.409-3.41h4.466v.938h-4.466v-.937zm9.865 3.546c-.613 0-1.142-.145-1.585-.434a2.837 2.837 0 0 1-1.023-1.198c-.238-.508-.358-1.09-.358-1.743 0-.664.122-1.251.367-1.76.247-.51.591-.91 1.031-1.197.443-.29.96-.435 1.551-.435.46 0 .875.085 1.244.256.37.17.672.41.908.716.236.307.382.665.439 1.074h-1.006a1.555 1.555 0 0 0-.511-.793c-.261-.233-.614-.35-1.057-.35-.392 0-.736.103-1.031.308a1.998 1.998 0 0 0-.686.856c-.162.367-.243.797-.243 1.291 0 .506.079.946.239 1.321.161.375.389.667.681.874.296.207.642.311 1.04.311.262 0 .499-.046.712-.136a1.47 1.47 0 0 0 .541-.393c.148-.17.253-.375.315-.613h1.006a2.325 2.325 0 0 1-1.304 1.777c-.364.179-.787.268-1.27.268zm6.703 0c-.613 0-1.142-.145-1.585-.434a2.837 2.837 0 0 1-1.023-1.198c-.238-.508-.358-1.09-.358-1.743 0-.664.123-1.251.367-1.76.247-.51.591-.91 1.031-1.197.443-.29.96-.435 1.551-.435.46 0 .875.085 1.245.256.369.17.671.41.907.716.236.307.382.665.439 1.074h-1.006a1.555 1.555 0 0 0-.511-.793c-.261-.233-.614-.35-1.057-.35-.392 0-.736.103-1.031.308a1.998 1.998 0 0 0-.686.856c-.162.367-.243.797-.243 1.291 0 .506.08.946.239 1.321.162.375.389.667.681.874a1.77 1.77 0 0 0 1.04.311c.262 0 .499-.046.712-.136a1.47 1.47 0 0 0 .541-.393c.148-.17.253-.375.315-.613h1.006a2.325 2.325 0 0 1-1.304 1.777c-.363.179-.787.268-1.27.268zm6.703 0c-.591 0-1.109-.14-1.555-.422a2.868 2.868 0 0 1-1.04-1.18c-.247-.506-.371-1.096-.371-1.773 0-.681.124-1.277.371-1.785.25-.509.597-.904 1.04-1.185.446-.281.964-.422 1.555-.422s1.108.14 1.552.422c.446.281.792.676 1.039 1.185.25.508.375 1.104.375 1.785 0 .677-.125 1.267-.375 1.773-.247.506-.593.9-1.039 1.18-.444.282-.961.422-1.552.422zm0-.903c.449 0 .819-.115 1.108-.345.29-.23.505-.533.644-.908a3.48 3.48 0 0 0 .209-1.219c0-.437-.07-.845-.209-1.223a2.058 2.058 0 0 0-.644-.916c-.289-.233-.659-.35-1.108-.35-.448 0-.818.117-1.108.35a2.064 2.064 0 0 0-.643.916 3.515 3.515 0 0 0-.209 1.223c0 .438.07.844.209 1.22.139.374.354.677.643.907.29.23.66.345 1.108.345zm8.626-1.91v-3.869h1.006V32h-1.006v-1.108h-.068a2.144 2.144 0 0 1-.716.848c-.323.23-.733.345-1.227.345-.409 0-.773-.09-1.091-.268a1.882 1.882 0 0 1-.75-.818c-.182-.367-.273-.828-.273-1.385v-4.16h1.006v4.091c0 .478.134.858.401 1.142.27.285.613.427 1.031.427.25 0 .504-.064.763-.192.261-.128.48-.324.656-.588.179-.264.268-.601.268-1.01zm3.854-1.26V32h-1.006v-6.546h.972v1.023h.085c.153-.332.386-.6.699-.8.312-.205.716-.308 1.21-.308.443 0 .831.091 1.163.273.333.179.591.452.776.818.185.364.277.824.277 1.38V32h-1.006v-4.09c0-.515-.133-.916-.4-1.203-.267-.29-.634-.434-1.1-.434-.321 0-.608.07-.861.209-.25.139-.447.342-.592.609-.145.267-.217.59-.217.971zm8.86-2.608v.852h-3.392v-.852h3.392zm-2.403-1.569h1.006v6.239c0 .284.041.497.123.64a.64.64 0 0 0 .324.28c.133.046.274.069.422.069.111 0 .202-.006.273-.017l.17-.035.205.904a2.096 2.096 0 0 1-.286.077 2.1 2.1 0 0 1-.464.042c-.285 0-.563-.06-.836-.183a1.658 1.658 0 0 1-.673-.558c-.176-.25-.264-.566-.264-.946v-6.512zm8.435 3.035-.903.255a1.682 1.682 0 0 0-.252-.439 1.215 1.215 0 0 0-.443-.358c-.187-.094-.427-.14-.72-.14-.401 0-.734.092-1.001.277-.265.181-.397.413-.397.694 0 .25.091.448.273.593.182.144.466.265.852.362l.972.238c.585.143 1.021.36 1.308.652.287.29.431.664.431 1.121 0 .375-.108.71-.324 1.006a2.151 2.151 0 0 1-.895.699c-.384.17-.83.255-1.338.255-.668 0-1.22-.145-1.658-.434-.437-.29-.714-.713-.831-1.27l.955-.239c.091.352.262.617.515.793.256.176.59.264 1.002.264.468 0 .841-.1 1.116-.298.279-.202.418-.444.418-.725a.762.762 0 0 0-.239-.57c-.159-.157-.403-.273-.733-.35l-1.091-.256c-.599-.142-1.04-.362-1.321-.66-.278-.301-.417-.678-.417-1.13 0-.369.103-.696.311-.98.21-.284.495-.507.856-.669a3.011 3.011 0 0 1 1.236-.243c.648 0 1.156.142 1.526.427.372.284.636.659.792 1.125zm7.667 5.215c-.59 0-1.109-.14-1.555-.422a2.868 2.868 0 0 1-1.04-1.18c-.247-.506-.37-1.096-.37-1.773 0-.681.123-1.277.37-1.785.25-.509.597-.904 1.04-1.185.446-.281.965-.422 1.555-.422.591 0 1.108.14 1.552.422.446.281.792.676 1.039 1.185.25.508.375 1.104.375 1.785 0 .677-.125 1.267-.375 1.773-.247.506-.593.9-1.039 1.18-.444.282-.961.422-1.552.422zm0-.903c.449 0 .819-.115 1.108-.345.29-.23.505-.533.644-.908a3.48 3.48 0 0 0 .209-1.219c0-.437-.07-.845-.209-1.223a2.058 2.058 0 0 0-.644-.916c-.289-.233-.659-.35-1.108-.35-.448 0-.818.117-1.108.35a2.064 2.064 0 0 0-.643.916 3.515 3.515 0 0 0-.209 1.223c0 .438.07.844.209 1.22.139.374.354.677.643.907.29.23.66.345 1.108.345zm4.502 3.222v-9h.971v1.04h.119c.074-.114.177-.26.307-.435.134-.18.324-.338.571-.478.25-.142.588-.213 1.014-.213.552 0 1.037.138 1.458.414.42.275.748.666.984 1.171.236.506.354 1.103.354 1.79 0 .694-.118 1.294-.354 1.803-.236.506-.562.898-.98 1.176a2.56 2.56 0 0 1-1.444.413c-.421 0-.758-.07-1.01-.208a1.867 1.867 0 0 1-.584-.482 6.326 6.326 0 0 1-.316-.452h-.085v3.46h-1.005zm.988-5.728c0 .495.073.93.217 1.308.145.375.357.67.635.883.279.21.62.315 1.023.315.421 0 .771-.11 1.053-.332.284-.225.497-.526.639-.904a3.54 3.54 0 0 0 .217-1.27c0-.46-.071-.875-.213-1.244a1.922 1.922 0 0 0-.635-.882c-.281-.219-.635-.328-1.061-.328-.409 0-.753.103-1.031.31a1.863 1.863 0 0 0-.631.862c-.142.366-.213.794-.213 1.282zm9.068 3.41c-.63 0-1.174-.14-1.632-.418a2.805 2.805 0 0 1-1.052-1.176c-.245-.506-.367-1.094-.367-1.765 0-.67.122-1.261.367-1.772a2.892 2.892 0 0 1 1.031-1.202c.443-.29.96-.435 1.551-.435a3.1 3.1 0 0 1 1.01.17c.332.114.635.3.908.555.272.253.49.588.652 1.005.162.418.243.932.243 1.543v.426h-5.046v-.87h4.023c0-.369-.074-.698-.222-.988a1.67 1.67 0 0 0-.622-.686 1.741 1.741 0 0 0-.946-.251c-.401 0-.747.1-1.04.298a1.974 1.974 0 0 0-.669.767 2.256 2.256 0 0 0-.234 1.014v.58c0 .494.085.913.256 1.257.173.34.413.6.72.78a2.11 2.11 0 0 0 1.069.264c.265 0 .503-.037.716-.11.216-.078.402-.191.558-.342a1.55 1.55 0 0 0 .363-.57l.971.272c-.102.33-.274.62-.515.87a2.52 2.52 0 0 1-.895.579 3.318 3.318 0 0 1-1.198.204zm5.246-4.075V32h-1.006v-6.546h.972v1.023h.085c.154-.332.387-.6.699-.8.313-.205.716-.308 1.21-.308.443 0 .831.091 1.164.273.332.179.591.452.775.818.185.364.277.824.277 1.38V32h-1.005v-4.09c0-.515-.134-.916-.401-1.203-.267-.29-.634-.434-1.099-.434-.321 0-.608.07-.861.209-.25.139-.448.342-.593.609-.144.267-.217.59-.217.971zm8.758 4.074c-.63 0-1.174-.139-1.632-.417a2.805 2.805 0 0 1-1.052-1.176c-.245-.506-.367-1.094-.367-1.765 0-.67.122-1.261.367-1.772.247-.515.59-.915 1.031-1.202.443-.29.96-.435 1.551-.435a3.1 3.1 0 0 1 1.01.17c.332.114.635.3.908.555.272.253.49.588.652 1.005.162.418.242.932.242 1.543v.426h-5.045v-.87h4.023c0-.369-.074-.698-.222-.988a1.67 1.67 0 0 0-.622-.686 1.741 1.741 0 0 0-.946-.251c-.401 0-.747.1-1.04.298a1.96 1.96 0 0 0-.669.767 2.256 2.256 0 0 0-.234 1.014v.58c0 .494.085.913.255 1.257.174.34.414.6.721.78.306.176.663.264 1.069.264a2.2 2.2 0 0 0 .716-.11c.216-.078.402-.191.558-.342a1.55 1.55 0 0 0 .363-.57l.971.272c-.102.33-.274.62-.515.87a2.52 2.52 0 0 1-.895.579 3.321 3.321 0 0 1-1.198.204zm6.712 0a2.563 2.563 0 0 1-1.445-.413c-.417-.278-.744-.67-.98-1.176-.236-.509-.354-1.11-.354-1.803 0-.687.118-1.284.354-1.79.236-.505.564-.896.985-1.171.42-.276.906-.414 1.457-.414.426 0 .763.071 1.01.213.25.14.44.299.571.478.133.176.237.32.311.434h.085v-3.221h1.006V32h-.972v-1.006h-.119c-.074.12-.179.27-.315.452-.137.179-.331.34-.584.482-.253.139-.59.208-1.01.208zm.136-.903c.404 0 .745-.105 1.023-.315a1.98 1.98 0 0 0 .635-.883c.145-.377.217-.813.217-1.308 0-.488-.071-.916-.213-1.282a1.869 1.869 0 0 0-.63-.861c-.279-.208-.623-.311-1.032-.311-.426 0-.781.11-1.065.328-.281.216-.493.51-.635.882a3.51 3.51 0 0 0-.209 1.244c0 .466.071.89.213 1.27.145.378.358.68.639.904.285.221.637.332 1.057.332z"/><path fill="#000" d="M64.35 45.273h1.313v6.187c0 .56-.11 1.039-.332 1.436a2.218 2.218 0 0 1-.925.912c-.398.208-.863.311-1.398.311-.491 0-.933-.09-1.325-.268a2.18 2.18 0 0 1-.925-.78c-.224-.344-.336-.761-.336-1.253h1.308c0 .242.056.45.166.627.114.176.269.313.465.413.199.097.426.145.682.145.278 0 .514-.058.707-.175a1.13 1.13 0 0 0 .447-.524c.103-.23.154-.511.154-.844v-6.187zm5.885 8.86c-.614 0-1.15-.142-1.607-.423a2.844 2.844 0 0 1-1.065-1.18c-.253-.506-.38-1.097-.38-1.773 0-.679.127-1.273.38-1.781a2.838 2.838 0 0 1 1.065-1.185c.458-.281.993-.422 1.607-.422.613 0 1.149.14 1.606.422.458.281.813.676 1.066 1.185.252.508.379 1.102.379 1.781 0 .676-.127 1.267-.38 1.773a2.836 2.836 0 0 1-1.065 1.18c-.457.282-.993.422-1.606.422zm.004-1.07c.398 0 .727-.106.989-.316.261-.21.454-.49.58-.84a3.34 3.34 0 0 0 .19-1.154 3.34 3.34 0 0 0-.19-1.15 1.874 1.874 0 0 0-.58-.849c-.262-.213-.591-.32-.989-.32-.4 0-.733.107-.997.32a1.905 1.905 0 0 0-.584.848c-.125.35-.188.733-.188 1.15 0 .421.063.806.188 1.156.128.35.323.629.584.84.264.21.596.315.997.315zm5.743-2.95V54h-1.274v-8.727h1.257v3.247h.081a1.88 1.88 0 0 1 .703-.84c.316-.207.728-.31 1.236-.31.449 0 .841.092 1.176.276.338.185.6.46.784.827.188.364.282.818.282 1.364V54h-1.275v-4.01c0-.48-.123-.852-.37-1.116-.247-.268-.591-.401-1.032-.401-.3 0-.57.064-.81.192a1.382 1.382 0 0 0-.557.562c-.134.245-.2.54-.2.887zm7.219 0V54h-1.274v-6.545h1.223v1.065h.08c.151-.347.387-.625.708-.835.324-.21.732-.316 1.223-.316.446 0 .837.094 1.172.282.335.184.595.46.78.826.185.367.277.82.277 1.36V54h-1.274v-4.01c0-.474-.124-.845-.371-1.112-.247-.27-.587-.405-1.018-.405-.296 0-.559.064-.789.192a1.378 1.378 0 0 0-.541.562c-.13.245-.196.54-.196.887zm13.936-2.548a1.245 1.245 0 0 0-.563-.937c-.33-.225-.744-.337-1.244-.337-.358 0-.668.057-.93.17-.26.111-.464.265-.609.46a1.087 1.087 0 0 0-.212.661c0 .208.048.387.144.537.1.15.23.277.388.38.162.099.335.183.52.251.185.065.362.12.533.162l.852.221a6.5 6.5 0 0 1 .856.277c.293.117.564.27.814.46.25.191.452.427.605.708.157.281.235.618.235 1.01 0 .494-.128.933-.384 1.317-.252.383-.62.686-1.103.907-.48.222-1.061.333-1.743.333-.654 0-1.219-.104-1.696-.311-.477-.208-.851-.502-1.121-.882-.27-.384-.419-.838-.447-1.364h1.32c.026.315.129.578.307.788.182.208.414.363.695.465.284.1.595.15.933.15.372 0 .703-.06.993-.176.293-.119.523-.284.69-.494a1.17 1.17 0 0 0 .252-.746.916.916 0 0 0-.222-.635 1.639 1.639 0 0 0-.592-.409 5.795 5.795 0 0 0-.84-.285l-1.03-.282c-.7-.19-1.254-.47-1.663-.839-.406-.37-.609-.858-.609-1.466 0-.503.136-.942.41-1.317a2.686 2.686 0 0 1 1.107-.873 3.8 3.8 0 0 1 1.577-.316c.59 0 1.112.104 1.564.312.454.207.812.492 1.073.856.262.36.398.776.41 1.244h-1.27zM99.997 54v-6.545h1.223v1.065h.081c.137-.36.36-.642.669-.844.31-.204.681-.307 1.112-.307.438 0 .804.103 1.1.307a1.8 1.8 0 0 1 .66.844h.069c.156-.35.404-.628.745-.835.341-.21.747-.316 1.219-.316.594 0 1.078.186 1.453.559.378.372.567.933.567 1.683V54h-1.274v-4.27c0-.443-.121-.764-.362-.963a1.32 1.32 0 0 0-.866-.298c-.414 0-.737.128-.967.383-.23.253-.345.578-.345.976V54h-1.27v-4.35c0-.356-.111-.642-.332-.857-.222-.216-.51-.324-.865-.324-.242 0-.465.064-.669.191a1.41 1.41 0 0 0-.49.525 1.596 1.596 0 0 0-.184.78V54h-1.274zm10.606 0v-6.545h1.274V54h-1.274zm.643-7.555a.81.81 0 0 1-.571-.222.721.721 0 0 1-.234-.537c0-.21.078-.39.234-.537a.803.803 0 0 1 .571-.226c.222 0 .411.076.567.226a.706.706 0 0 1 .238.537.714.714 0 0 1-.238.537.795.795 0 0 1-.567.222zm5.4 1.01v1.022h-3.575v-1.022h3.575zm-2.616-1.569h1.274v6.192c0 .247.037.433.111.558a.58.58 0 0 0 .285.252c.12.042.249.064.388.064.102 0 .192-.007.269-.022l.179-.034.23 1.053a2.138 2.138 0 0 1-.316.085 2.494 2.494 0 0 1-.511.051 2.247 2.247 0 0 1-.938-.179 1.612 1.612 0 0 1-.703-.58c-.179-.26-.268-.589-.268-.984v-6.456zm5.441 4.228V54h-1.275v-8.727h1.257v3.247h.081c.154-.352.388-.632.704-.84.315-.207.727-.31 1.235-.31.449 0 .841.092 1.177.276.338.185.599.46.784.827.187.364.281.818.281 1.364V54h-1.274v-4.01c0-.48-.124-.852-.371-1.116-.247-.268-.591-.401-1.031-.401a1.69 1.69 0 0 0-.81.192 1.378 1.378 0 0 0-.558.562c-.134.245-.2.54-.2.887z"/><rect width="43" height="20" x="131" y="40" fill="#F3F5F6" rx="10"/><path fill="#000" d="M137.656 52.295V51.23l3.772-5.957h.839v1.568h-.533l-2.697 4.27v.068h5.169v1.116h-6.55zM141.794 54v-2.028l.009-.486v-6.213h1.248V54h-1.257zm3.897 0v-.955l2.953-3.06c.316-.332.575-.623.78-.873.207-.253.362-.493.464-.72.103-.227.154-.469.154-.724 0-.29-.068-.54-.205-.75a1.332 1.332 0 0 0-.558-.49 1.774 1.774 0 0 0-.797-.175c-.312 0-.585.064-.818.192a1.313 1.313 0 0 0-.537.54 1.705 1.705 0 0 0-.187.819h-1.257c0-.531.122-.996.366-1.394.244-.397.58-.705 1.006-.924.426-.222.91-.333 1.453-.333.548 0 1.031.11 1.449.328.42.216.748.512.984.887.236.372.354.792.354 1.261 0 .324-.061.64-.183.95-.12.31-.329.655-.627 1.036a17.65 17.65 0 0 1-1.244 1.377l-1.735 1.815v.064h3.929V54h-5.744zm10.398.12c-.585 0-1.108-.101-1.568-.303a2.659 2.659 0 0 1-1.087-.84 2.23 2.23 0 0 1-.426-1.253h1.338c.017.259.104.483.26.674.159.187.366.332.622.434.256.103.54.154.852.154.344 0 .648-.06.912-.18.267-.118.476-.285.627-.498.15-.216.225-.464.225-.745 0-.293-.075-.55-.225-.772a1.472 1.472 0 0 0-.652-.528c-.284-.128-.628-.192-1.032-.192h-.737v-1.074h.737c.324 0 .608-.058.853-.175.247-.116.44-.278.579-.485.139-.21.209-.456.209-.738 0-.27-.061-.504-.183-.703-.12-.201-.29-.36-.512-.473a1.658 1.658 0 0 0-.775-.17c-.284 0-.55.052-.797.157a1.48 1.48 0 0 0-.597.444c-.153.19-.235.419-.247.686h-1.274c.014-.472.153-.887.418-1.245a2.7 2.7 0 0 1 1.056-.839 3.444 3.444 0 0 1 1.458-.303c.56 0 1.042.11 1.449.328.409.216.724.505.946.866.224.36.335.755.332 1.184.003.489-.133.904-.409 1.245-.273.34-.636.57-1.091.686v.068c.58.088 1.029.318 1.347.69.321.372.48.834.477 1.385.003.48-.131.91-.401 1.291-.267.381-.632.68-1.095.9-.463.215-.993.323-1.589.323zm4.696-.12v-.955l2.953-3.06c.315-.332.575-.623.78-.873.207-.253.362-.493.464-.72.103-.227.154-.469.154-.724 0-.29-.069-.54-.205-.75a1.332 1.332 0 0 0-.558-.49 1.777 1.777 0 0 0-.797-.175 1.67 1.67 0 0 0-.818.192 1.313 1.313 0 0 0-.537.54 1.705 1.705 0 0 0-.188.819h-1.257c0-.531.122-.996.367-1.394a2.486 2.486 0 0 1 1.005-.924 3.108 3.108 0 0 1 1.454-.333c.548 0 1.031.11 1.448.328.421.216.749.512.985.887.236.372.353.792.353 1.261 0 .324-.061.64-.183.95-.119.31-.328.655-.626 1.036a17.65 17.65 0 0 1-1.244 1.377l-1.735 1.815v.064h3.929V54h-5.744z"/><rect width="215" height="47" x="60.5" y="76.5" stroke="#E8EAED" rx="7.5"/><path fill="#8792F7" d="M83.375 103.75h-1.912c-.185-.795-1.023-1.446-1.367-1.875a4.997 4.997 0 0 1-.603-5.29 4.999 4.999 0 1 1 8.41 5.292c-.344.428-1.18 1.078-1.366 1.873h-1.912v-3.125h-1.25v3.125zM86.5 105v.625a1.249 1.249 0 0 1-1.25 1.25h-2.5a1.248 1.248 0 0 1-1.25-1.25V105h5z"/><path fill="#0E0E11" d="M100.879 104v-8h4.961v1.04h-3.754v2.437h3.398v1.035h-3.398V104h-1.207zm6.276 0v-6h1.129v.953h.063a1.45 1.45 0 0 1 .578-.762c.278-.187.594-.28.945-.28a5.005 5.005 0 0 1 .496.026v1.118a2.088 2.088 0 0 0-.25-.043 2.384 2.384 0 0 0-.359-.028c-.276 0-.522.059-.738.176a1.303 1.303 0 0 0-.696 1.176V104h-1.168zm6.593.121c-.591 0-1.1-.126-1.527-.379a2.567 2.567 0 0 1-.985-1.074c-.229-.464-.343-1.007-.343-1.629 0-.615.114-1.156.343-1.625.232-.469.555-.835.969-1.098.417-.263.904-.394 1.461-.394.339 0 .667.056.984.168.318.112.603.288.856.527.252.24.452.551.598.934.145.38.218.842.218 1.386v.415h-4.769v-.875h3.625c0-.308-.063-.58-.188-.817a1.421 1.421 0 0 0-.527-.566 1.474 1.474 0 0 0-.789-.207c-.328 0-.615.08-.86.242a1.628 1.628 0 0 0-.562.625c-.13.255-.195.532-.195.832v.684c0 .401.07.742.211 1.023.143.281.342.496.597.644.255.146.554.219.895.219.221 0 .423-.031.605-.094a1.259 1.259 0 0 0 .778-.761l1.105.199a1.98 1.98 0 0 1-.477.855 2.3 2.3 0 0 1-.855.567c-.341.133-.73.199-1.168.199zm6.456 0c-.591 0-1.1-.126-1.527-.379a2.567 2.567 0 0 1-.985-1.074c-.229-.464-.343-1.007-.343-1.629 0-.615.114-1.156.343-1.625.232-.469.555-.835.969-1.098.417-.263.904-.394 1.461-.394.339 0 .667.056.984.168.318.112.603.288.856.527.253.24.452.551.598.934.145.38.218.842.218 1.386v.415h-4.769v-.875h3.625c0-.308-.063-.58-.188-.817a1.41 1.41 0 0 0-.527-.566 1.474 1.474 0 0 0-.789-.207c-.328 0-.615.08-.859.242-.243.159-.43.367-.563.625-.13.255-.195.532-.195.832v.684c0 .401.07.742.211 1.023.143.281.342.496.597.644.255.146.554.219.895.219.221 0 .423-.031.605-.094a1.259 1.259 0 0 0 .778-.761l1.105.199a1.988 1.988 0 0 1-.476.855 2.312 2.312 0 0 1-.856.567c-.341.133-.73.199-1.168.199zm6.481-7.082V96h6.191v1.04h-2.496V104h-1.203v-6.96h-2.492zm6.842 6.961v-6h1.129v.953h.063a1.45 1.45 0 0 1 .578-.762c.279-.187.594-.28.945-.28a5.005 5.005 0 0 1 .496.026v1.118a2.088 2.088 0 0 0-.25-.043 2.384 2.384 0 0 0-.359-.028c-.276 0-.522.059-.738.176a1.303 1.303 0 0 0-.696 1.176V104h-1.168zm4.222 0v-6h1.168v6h-1.168zm.59-6.926a.744.744 0 0 1-.524-.203.66.66 0 0 1-.214-.492.65.65 0 0 1 .214-.492.737.737 0 0 1 .524-.207.72.72 0 0 1 .519.207c.146.135.219.3.219.492 0 .19-.073.354-.219.492a.727.727 0 0 1-.519.203zm3.895 7.059c-.38 0-.724-.07-1.031-.211a1.73 1.73 0 0 1-.73-.621c-.177-.271-.266-.603-.266-.996 0-.339.065-.618.195-.836.131-.219.306-.392.528-.52.221-.127.468-.224.742-.289.273-.065.552-.114.836-.148l.875-.102c.224-.028.387-.074.488-.137.102-.062.152-.164.152-.304v-.028c0-.34-.096-.605-.289-.793-.19-.187-.474-.28-.851-.28-.393 0-.703.086-.93.26a1.401 1.401 0 0 0-.465.575l-1.097-.25c.13-.365.32-.659.57-.883a2.33 2.33 0 0 1 .871-.492 3.401 3.401 0 0 1 1.035-.156c.24 0 .494.029.762.086.271.055.523.156.758.305.237.148.431.36.582.636.151.274.226.63.226 1.067V104h-1.14v-.82h-.047a1.676 1.676 0 0 1-.34.445 1.795 1.795 0 0 1-.582.363 2.246 2.246 0 0 1-.852.145zm.254-.938c.323 0 .599-.063.828-.191.232-.128.408-.294.528-.5a1.3 1.3 0 0 0 .183-.668v-.774a.603.603 0 0 1-.242.118 3.957 3.957 0 0 1-.402.09l-.442.066-.359.047a2.886 2.886 0 0 0-.621.144 1.073 1.073 0 0 0-.445.293c-.11.125-.164.292-.164.5 0 .289.106.508.32.657.213.145.486.218.816.218zM147.919 96v8h-1.168v-8h1.168z"/><rect width="57" height="36" x="213" y="82" fill="#F3F5F6" rx="4"/><path fill="#0E0E11" d="M234.828 100c0 .854-.156 1.589-.469 2.203a3.44 3.44 0 0 1-1.285 1.414c-.541.328-1.157.492-1.847.492-.693 0-1.312-.164-1.856-.492-.542-.331-.969-.803-1.281-1.418-.313-.614-.469-1.347-.469-2.199 0-.854.156-1.587.469-2.2.312-.614.739-1.085 1.281-1.413.544-.331 1.163-.496 1.856-.496.69 0 1.306.165 1.847.496.544.328.973.8 1.285 1.414.313.612.469 1.345.469 2.199zm-1.195 0c0-.651-.106-1.2-.317-1.644-.208-.448-.494-.787-.859-1.016a2.232 2.232 0 0 0-1.23-.348 2.24 2.24 0 0 0-1.235.348c-.362.229-.648.568-.859 1.016-.209.445-.313.993-.313 1.644 0 .651.104 1.201.313 1.648.211.446.497.784.859 1.016.362.229.774.344 1.235.344.458 0 .868-.115 1.23-.344.365-.232.651-.57.859-1.016.211-.447.317-.997.317-1.648zm2.606 6.25V98h1.141v.973h.098c.067-.125.165-.27.293-.434.127-.164.304-.307.531-.43.226-.125.526-.187.898-.187.485 0 .917.122 1.297.367.38.245.678.598.895 1.059.218.46.328 1.015.328 1.664 0 .648-.108 1.204-.324 1.668-.217.461-.514.816-.891 1.066a2.311 2.311 0 0 1-1.293.371c-.365 0-.663-.061-.895-.183a1.713 1.713 0 0 1-.539-.43c-.13-.164-.23-.31-.3-.438h-.071v3.184h-1.168zm1.145-5.25c0 .422.061.792.183 1.109.123.318.3.567.532.746.231.178.515.266.851.266.349 0 .641-.092.875-.277.235-.188.412-.442.531-.762.123-.32.184-.681.184-1.082 0-.396-.06-.751-.18-1.066a1.63 1.63 0 0 0-.531-.746c-.234-.183-.527-.274-.879-.274-.338 0-.625.087-.859.262a1.608 1.608 0 0 0-.528.73 3.065 3.065 0 0 0-.179 1.094zm8.23 3.121c-.591 0-1.1-.126-1.527-.379a2.559 2.559 0 0 1-.984-1.074c-.23-.464-.344-1.007-.344-1.629 0-.615.114-1.156.344-1.625.231-.469.554-.835.968-1.098.417-.263.904-.394 1.461-.394.339 0 .667.056.985.168a2.4 2.4 0 0 1 .855.527c.253.24.452.551.598.934.146.38.218.842.218 1.386v.415h-4.769v-.875h3.625c0-.308-.063-.58-.188-.817a1.41 1.41 0 0 0-.527-.566 1.474 1.474 0 0 0-.789-.207c-.328 0-.615.08-.859.242-.243.159-.43.367-.563.625-.13.255-.195.532-.195.832v.684c0 .401.07.742.211 1.023.143.281.342.496.597.644.256.146.554.219.895.219.221 0 .423-.031.605-.094a1.259 1.259 0 0 0 .778-.761l1.105.199a1.988 1.988 0 0 1-.476.855 2.312 2.312 0 0 1-.856.567c-.341.133-.73.199-1.168.199zm5.038-3.684V104h-1.168v-6h1.121v.977h.075c.138-.318.354-.573.648-.766.297-.193.671-.29 1.121-.29.409 0 .767.087 1.074.259.308.169.546.422.715.757.17.336.254.752.254 1.247V104h-1.168v-3.676c0-.435-.113-.775-.34-1.02-.226-.247-.537-.37-.933-.37-.271 0-.512.058-.723.175a1.263 1.263 0 0 0-.496.516 1.7 1.7 0 0 0-.18.812z"/></svg>