<svg xmlns="http://www.w3.org/2000/svg" width="28" height="28" fill="none"><g clip-path="url(#a)"><path fill="#FBBB00" d="m7.667 16.373-.792 2.956-2.894.061A11.324 11.324 0 0 1 2.625 14c0-1.886.459-3.665 1.272-5.231l2.577.472 1.129 2.561A6.762 6.762 0 0 0 7.238 14c0 .835.151 1.635.429 2.373z"/><path fill="#518EF8" d="M25.176 11.875a11.39 11.39 0 0 1-.05 4.5c-.554 2.608-2 4.884-4.005 6.496v-.001l-3.246-.166-.46-2.867c1.33-.78 2.37-2 2.918-3.462H14.25v-4.5h10.926z"/><path fill="#28B446" d="M21.12 22.87h.001A11.327 11.327 0 0 1 14 25.375 11.373 11.373 0 0 1 3.98 19.39l3.687-3.017a6.763 6.763 0 0 0 9.748 3.464l3.705 3.033z"/><path fill="#F14336" d="M21.26 5.244 17.577 8.26a6.766 6.766 0 0 0-9.972 3.542L3.897 8.768h-.001A11.373 11.373 0 0 1 14 2.625c2.76 0 5.29.983 7.26 2.619z"/></g><defs><clipPath id="a"><path fill="#fff" d="M2.625 2.625h22.75v22.75H2.625z"/></clipPath></defs></svg>