<svg xmlns="http://www.w3.org/2000/svg" width="24" height="24" fill="none"><path fill="#2B2B31" d="M19.621 7.242c-.572.253-1.18.42-1.801.493A3.147 3.147 0 0 0 19.2 6a6.268 6.268 0 0 1-1.992.761 3.136 3.136 0 0 0-5.345 2.86 8.906 8.906 0 0 1-6.465-3.277 3.136 3.136 0 0 0 .97 4.188 3.126 3.126 0 0 1-1.42-.392v.039a3.139 3.139 0 0 0 2.516 3.076 3.158 3.158 0 0 1-1.417.054 3.139 3.139 0 0 0 2.93 2.178 6.296 6.296 0 0 1-4.643 1.3 8.872 8.872 0 0 0 4.807 1.41c5.77 0 8.926-4.78 8.926-8.926 0-.135-.004-.271-.01-.405a6.372 6.372 0 0 0 1.565-1.623v-.001z"/></svg>