<svg xmlns="http://www.w3.org/2000/svg" width="64" height="64" fill="none"><path fill="#2EB67D" d="M51.385 30.153a4.615 4.615 0 1 0-4.616-4.614v4.614h4.616zm-12.923 0a4.615 4.615 0 0 0 4.615-4.615V12.615a4.615 4.615 0 0 0-9.23 0v12.923a4.615 4.615 0 0 0 4.615 4.615z"/><path fill="#E01E5A" d="M12.615 33.847a4.615 4.615 0 1 0 4.616 4.614v-4.614h-4.616zm12.923 0a4.615 4.615 0 0 0-4.615 4.615v12.923a4.615 4.615 0 0 0 9.23 0V38.462a4.615 4.615 0 0 0-4.615-4.615z"/><path fill="#ECB22E" d="M33.846 51.385a4.615 4.615 0 1 0 4.615-4.616h-4.614v4.616zm0-12.924a4.615 4.615 0 0 0 4.616 4.616h12.922a4.615 4.615 0 0 0 0-9.231H38.462a4.615 4.615 0 0 0-4.616 4.615z"/><path fill="#36C5F0" d="M30.154 12.615a4.615 4.615 0 1 0-4.615 4.616h4.614v-4.616zm0 12.924a4.615 4.615 0 0 0-4.616-4.616H12.616a4.615 4.615 0 0 0 0 9.231h12.922a4.615 4.615 0 0 0 4.616-4.615z"/></svg>