<svg xmlns="http://www.w3.org/2000/svg" width="224" height="112" fill="none"><g fill="#6D7079" clip-path="url(#a)"><path d="m91.739 46.674-7.51 4.06-1.437.79.324-1.437 1.437-6.395-4.384 4.096-3.018-14.552-2.191 10.6-7.474-8.085-15.054 8.767L63.067 55.98v15.054l14.084 8.12 14.085-8.12V54.758l-2.515-1.473 3.018-6.61zm-35.391-1.58 10.635-6.18 7.33 7.94-.216.97-4.383-4.132 1.437 6.395.323 1.438-1.437-.79-7.51-4.06 3.055 6.646-1.042.61-8.192-8.838zm19.546 30.504-10.348-5.965v-12l10.348 5.964v12zm-5.677-18.109-1.437-3.126-.863-1.904 2.156 1.185 5.03 2.731-1.113-4.994-.072-.288.215.216 1.51 1.401.538-2.587.826-3.952.144-.61.216 1.005.754 3.593.54 2.587 1.508-1.401.216-.216-.072.288-1.114 4.994 5.03-2.73 2.156-1.186-.862 1.904-1.437 3.126-6.935 4.024-6.934-4.06zm18.54.144v11.964l-10.348 5.965V63.633l10.347-6zm31.115-3.521h-9.485v2.407h9.198v3.342h-9.198v2.55h9.628v3.27h-13.653V50.879h13.546v3.234h-.036zm4.994 11.568h-4.419l4.958-5.532-5.102-5.498h4.743l2.838 3.09 2.731-3.09h4.276l-4.743 5.426 5.03 5.605h-4.455l-2.947-3.162-2.91 3.162zm14.623-11.03v1.402c.468-.503 1.941-1.617 4.42-1.617h.251c4.204 0 5.569 2.874 5.569 5.497v.324c0 2.407-1.401 5.605-5.605 5.605h-.287c-2.515 0-3.88-1.15-4.348-1.617v5.21h-3.88V54.65h3.88zm3.27 2.66h-.215c-2.336 0-3.055 1.544-3.055 2.802v.072c0 1.221.719 2.802 3.055 2.802h.215c2.407 0 2.982-1.652 2.982-2.802v-.072c0-1.186-.539-2.803-2.982-2.803zm8.551 8.371V50.627h3.881V65.68h-3.881zm5.39-5.317v-.288c0-1.976.898-5.713 6.827-5.713h.646c6.108 0 6.827 3.773 6.827 5.713v.288c0 1.976-.719 5.605-6.863 5.605h-.61c-5.893 0-6.827-3.63-6.827-5.605zm10.348-.252c0-1.258-.611-2.91-3.054-2.91h-.216c-2.551 0-3.054 1.653-3.054 2.91 0 1.222.503 2.946 3.054 2.946h.216c2.407 0 3.054-1.724 3.054-2.946z"/></g><defs><clipPath id="a"><path fill="#fff" d="M52.8 33h118v46h-118z"/></clipPath></defs></svg>