<svg xmlns="http://www.w3.org/2000/svg" width="296" height="154" fill="none"><path fill="#fff" d="M0 0h296v154H0z"/><path fill="#6D7079" d="M16.531 20.86V20h6v.86h-2.515V28h-.97v-7.14h-2.515zm7.277 9.39a2.016 2.016 0 0 1-.672-.11l.234-.812c.224.057.422.078.594.063a.712.712 0 0 0 .457-.23c.135-.136.259-.356.371-.661l.172-.469L22.745 22h1l1.656 4.781h.063L27.12 22h1l-2.547 6.875a2.6 2.6 0 0 1-.425.77 1.61 1.61 0 0 1-.59.457 1.82 1.82 0 0 1-.75.148zm5.529 0V22h.89v.953h.11c.068-.104.161-.237.281-.398a1.66 1.66 0 0 1 .524-.438c.229-.13.539-.195.93-.195.505 0 .95.126 1.335.379.386.252.686.61.903 1.074.216.463.324 1.01.324 1.64 0 .636-.108 1.187-.324 1.653a2.56 2.56 0 0 1-.899 1.078 2.349 2.349 0 0 1-1.324.379c-.386 0-.694-.064-.926-.191a1.717 1.717 0 0 1-.535-.442 5.913 5.913 0 0 1-.29-.414h-.077v3.172h-.922zm.906-5.25c0 .453.067.853.2 1.2.132.343.326.613.581.808.256.193.568.289.938.289.385 0 .707-.102.965-.305.26-.206.456-.482.586-.828.133-.349.199-.737.199-1.164 0-.422-.065-.802-.195-1.14a1.762 1.762 0 0 0-.582-.81c-.258-.2-.583-.3-.973-.3-.375 0-.69.095-.945.285-.256.188-.448.45-.578.79A3.24 3.24 0 0 0 30.243 25zm8.313 3.125c-.578 0-1.077-.128-1.496-.383a2.57 2.57 0 0 1-.965-1.078c-.224-.463-.336-1.003-.336-1.617 0-.615.112-1.156.336-1.625a2.65 2.65 0 0 1 .945-1.102c.406-.265.88-.398 1.422-.398.312 0 .621.052.926.156.304.104.582.274.832.508.25.232.449.539.597.922.149.383.223.854.223 1.414v.39h-4.625v-.796h3.688c0-.339-.068-.641-.204-.907a1.53 1.53 0 0 0-.57-.629 1.597 1.597 0 0 0-.867-.23c-.367 0-.685.091-.953.273-.266.18-.47.415-.614.704a2.065 2.065 0 0 0-.214.93v.53c0 .454.078.838.234 1.153.159.312.379.55.66.715.281.161.608.242.98.242.243 0 .462-.034.657-.102.198-.07.368-.174.512-.312a1.42 1.42 0 0 0 .332-.524l.89.25a1.974 1.974 0 0 1-.472.797 2.303 2.303 0 0 1-.82.532 3.042 3.042 0 0 1-1.098.187zm8.746.016c-.38 0-.725-.072-1.035-.215a1.777 1.777 0 0 1-.739-.63c-.182-.275-.273-.608-.273-1 0-.343.068-.622.203-.835.135-.216.316-.385.543-.508.227-.122.477-.213.75-.273.276-.063.553-.112.832-.149.365-.047.66-.082.887-.105.229-.026.396-.07.5-.13.107-.059.16-.163.16-.312v-.03c0-.386-.106-.686-.317-.9-.208-.213-.524-.32-.949-.32-.44 0-.785.097-1.035.29-.25.192-.426.398-.527.617l-.875-.313c.156-.364.364-.648.625-.851a2.34 2.34 0 0 1 .86-.43 3.53 3.53 0 0 1 .921-.125c.193 0 .414.023.664.07.253.044.496.137.73.277.238.141.434.353.59.637.157.284.235.664.235 1.14V28h-.922v-.813h-.047a1.63 1.63 0 0 1-.313.418c-.145.149-.34.275-.582.38-.242.104-.537.156-.886.156zm.14-.828c.365 0 .672-.072.922-.215a1.464 1.464 0 0 0 .766-1.27v-.844c-.04.047-.125.09-.258.13-.13.036-.281.068-.453.097a20.14 20.14 0 0 1-.883.117c-.24.031-.463.082-.672.152a1.155 1.155 0 0 0-.5.31c-.125.134-.187.32-.187.554 0 .32.118.562.355.726.24.162.543.242.91.242zm9.824.812c-.563 0-1.047-.133-1.453-.398a2.598 2.598 0 0 1-.938-1.098c-.219-.466-.328-.999-.328-1.598 0-.61.112-1.147.336-1.613.226-.469.541-.835.945-1.098.406-.265.88-.398 1.422-.398.422 0 .802.078 1.14.234.34.157.617.375.833.657.216.28.35.609.402.984h-.922a1.429 1.429 0 0 0-.469-.727c-.24-.213-.562-.32-.968-.32-.36 0-.675.094-.946.281a1.832 1.832 0 0 0-.629.785c-.148.336-.222.73-.222 1.184 0 .463.073.867.218 1.21.149.345.357.612.626.802.27.19.588.285.953.285.24 0 .457-.042.652-.125a1.353 1.353 0 0 0 .786-.922h.921a2.136 2.136 0 0 1-1.195 1.629 2.61 2.61 0 0 1-1.164.246zm6.144 0c-.541 0-1.017-.129-1.426-.387a2.627 2.627 0 0 1-.953-1.082c-.226-.463-.34-1.005-.34-1.625 0-.625.114-1.17.34-1.636a2.62 2.62 0 0 1 .953-1.086c.41-.258.884-.387 1.426-.387.542 0 1.016.129 1.422.387.409.257.727.62.953 1.085.23.467.344 1.012.344 1.637 0 .62-.115 1.162-.344 1.625a2.591 2.591 0 0 1-.953 1.082c-.406.258-.88.387-1.422.387zm0-.828c.412 0 .75-.106 1.016-.317.265-.21.462-.488.59-.832.127-.343.191-.716.191-1.117 0-.4-.064-.774-.191-1.12a1.89 1.89 0 0 0-.59-.84c-.266-.214-.604-.321-1.016-.321-.411 0-.75.107-1.015.32a1.89 1.89 0 0 0-.59.84c-.128.346-.192.72-.192 1.121s.064.774.192 1.117c.127.344.324.622.59.832.265.211.604.317 1.015.317zm4.126.703v-6h.89v.938h.079c.125-.32.327-.57.605-.747.279-.18.614-.27 1.004-.27.396 0 .725.09.989.27.265.178.472.426.62.747h.063c.154-.31.384-.556.692-.739.307-.185.675-.277 1.105-.277.537 0 .975.168 1.316.504.342.333.512.853.512 1.558V28h-.922v-4.016c0-.442-.12-.759-.363-.949a1.345 1.345 0 0 0-.856-.285c-.421 0-.748.128-.98.383-.232.252-.348.573-.348.96V28h-.937v-4.11c0-.34-.11-.615-.332-.824-.222-.21-.507-.316-.856-.316-.24 0-.463.064-.671.191a1.445 1.445 0 0 0-.5.532 1.568 1.568 0 0 0-.188.777V28h-.922zm9.56 0v-6h.891v.938h.078c.125-.32.327-.57.606-.747.278-.18.613-.27 1.004-.27.396 0 .725.09.988.27.266.178.473.426.621.747h.063a1.75 1.75 0 0 1 .691-.739c.307-.185.676-.277 1.106-.277.536 0 .975.168 1.316.504.341.333.512.853.512 1.558V28h-.922v-4.016c0-.442-.121-.759-.364-.949a1.345 1.345 0 0 0-.855-.285c-.422 0-.749.128-.98.383-.232.252-.348.573-.348.96V28h-.938v-4.11c0-.34-.11-.615-.332-.824-.221-.21-.506-.316-.855-.316-.24 0-.464.064-.672.191a1.445 1.445 0 0 0-.5.532 1.568 1.568 0 0 0-.187.777V28h-.922zm11.327.14c-.38 0-.725-.071-1.035-.214a1.777 1.777 0 0 1-.739-.63c-.182-.275-.273-.608-.273-1 0-.343.068-.622.203-.835.136-.216.317-.385.543-.508.227-.122.477-.213.75-.273.276-.063.553-.112.832-.149.365-.047.66-.082.887-.105.229-.026.396-.07.5-.13.107-.059.16-.163.16-.312v-.03c0-.386-.106-.686-.316-.9-.209-.213-.525-.32-.95-.32-.44 0-.785.097-1.035.29-.25.192-.426.398-.527.617l-.875-.313c.156-.364.364-.648.625-.851a2.34 2.34 0 0 1 .86-.43 3.53 3.53 0 0 1 .921-.125c.193 0 .414.023.664.07.253.044.496.137.73.277.238.141.434.353.59.637.157.284.235.664.235 1.14V28h-.922v-.813h-.047c-.062.13-.167.27-.312.418-.146.149-.34.275-.582.38-.243.104-.538.156-.887.156zm.14-.828c.365 0 .672-.071.922-.214a1.464 1.464 0 0 0 .766-1.27v-.844c-.04.047-.125.09-.258.13-.13.036-.281.068-.453.097a20.08 20.08 0 0 1-.883.117c-.24.031-.463.082-.672.152a1.16 1.16 0 0 0-.5.31c-.125.134-.187.32-.187.554 0 .32.118.562.355.726.24.162.543.242.91.242zm5.214-2.921V28h-.921v-6h.89v.938h.078c.14-.305.354-.55.64-.735.287-.187.657-.281 1.11-.281.407 0 .762.083 1.067.25.304.164.541.414.71.75.17.333.255.755.255 1.265V28h-.922v-3.75c0-.471-.123-.838-.368-1.102-.244-.265-.58-.398-1.007-.398-.295 0-.558.064-.79.191a1.37 1.37 0 0 0-.542.559c-.133.245-.2.542-.2.89zm7.779 3.734c-.5 0-.942-.126-1.325-.379a2.561 2.561 0 0 1-.898-1.078c-.216-.466-.324-1.017-.324-1.652 0-.63.108-1.177.324-1.641.216-.463.517-.822.902-1.074a2.384 2.384 0 0 1 1.336-.38c.391 0 .7.066.926.196.229.128.404.274.524.438.122.161.217.294.285.398h.078V20h.922v8h-.891v-.922h-.109a5.71 5.71 0 0 1-.289.414 1.718 1.718 0 0 1-.536.442c-.231.127-.54.191-.925.191zm.125-.828c.369 0 .682-.096.937-.29.255-.195.449-.464.582-.808a3.33 3.33 0 0 0 .199-1.199c0-.448-.065-.84-.195-1.176a1.711 1.711 0 0 0-.578-.789c-.255-.19-.57-.285-.945-.285-.391 0-.716.1-.977.3a1.797 1.797 0 0 0-.582.81 3.216 3.216 0 0 0-.191 1.14c0 .427.065.815.195 1.164.133.346.328.622.586.828.26.203.583.305.969.305zm5.113.765a.676.676 0 0 1-.496-.207.677.677 0 0 1-.207-.496c0-.192.069-.358.207-.496a.676.676 0 0 1 .496-.207.68.68 0 0 1 .496.207.677.677 0 0 1 .207.496.654.654 0 0 1-.098.352.729.729 0 0 1-.253.258.673.673 0 0 1-.352.093zm3.029 0a.678.678 0 0 1-.496-.207.677.677 0 0 1-.207-.496c0-.192.069-.358.207-.496a.678.678 0 0 1 .496-.207.68.68 0 0 1 .496.207.677.677 0 0 1 .207.496.732.732 0 0 1-.351.61.67.67 0 0 1-.352.094zm3.03 0a.678.678 0 0 1-.497-.207.677.677 0 0 1-.207-.496c0-.192.069-.358.207-.496a.678.678 0 0 1 .497-.207c.192 0 .358.07.496.207a.677.677 0 0 1 .207.496.663.663 0 0 1-.098.352.723.723 0 0 1-.254.258.667.667 0 0 1-.351.093z"/><rect width="284" height="32" x="6" y="44" fill="#F3F5F6" rx="4"/><path fill="#0E0E11" d="M42.879 56h1.465l2.547 6.219h.093L49.531 56h1.465v8h-1.148v-5.79h-.075l-2.359 5.778h-.953l-2.36-5.781h-.074V64H42.88v-8zm11.524 8.133c-.38 0-.724-.07-1.03-.211a1.738 1.738 0 0 1-.731-.621c-.178-.271-.266-.603-.266-.996 0-.339.065-.617.195-.836.13-.219.306-.392.528-.52.221-.127.468-.224.742-.289.273-.065.552-.114.836-.148l.875-.102c.224-.028.386-.074.488-.137.102-.062.152-.164.152-.304v-.028c0-.34-.096-.605-.289-.793-.19-.187-.474-.28-.851-.28-.394 0-.703.086-.93.26a1.4 1.4 0 0 0-.465.575l-1.097-.25c.13-.364.32-.659.57-.883.252-.226.543-.39.871-.492a3.403 3.403 0 0 1 1.035-.156c.24 0 .494.029.762.086.27.054.523.156.758.304.237.149.43.361.582.637.15.274.226.63.226 1.067V64h-1.14v-.82h-.047c-.076.15-.189.3-.34.445a1.806 1.806 0 0 1-.582.363 2.26 2.26 0 0 1-.852.145zm.254-.938c.323 0 .6-.063.828-.191a1.34 1.34 0 0 0 .528-.5 1.3 1.3 0 0 0 .183-.668v-.773a.609.609 0 0 1-.242.117 3.772 3.772 0 0 1-.402.09l-.442.066-.359.047a2.899 2.899 0 0 0-.621.144 1.067 1.067 0 0 0-.445.293c-.11.125-.165.292-.165.5 0 .29.107.508.32.657.214.145.486.218.817.218zM58.92 64v-6h1.129v.953h.062a1.45 1.45 0 0 1 .579-.762c.278-.187.593-.28.945-.28a5.002 5.002 0 0 1 .496.026v1.118a2.092 2.092 0 0 0-.25-.043 2.39 2.39 0 0 0-.36-.028c-.276 0-.522.059-.738.176a1.306 1.306 0 0 0-.695 1.176V64H58.92zm5.296-2.035-.008-1.426h.203L66.801 58h1.4l-2.727 2.89h-.184l-1.074 1.075zM63.142 64v-8h1.168v8h-1.168zm3.789 0-2.149-2.852.805-.816L68.364 64h-1.433zm6.99.133c-.38 0-.723-.07-1.03-.211a1.737 1.737 0 0 1-.73-.621c-.178-.271-.267-.603-.267-.996 0-.339.066-.617.196-.836.13-.219.306-.392.527-.52a2.77 2.77 0 0 1 .742-.289 7.39 7.39 0 0 1 .836-.148l.875-.102c.224-.028.387-.074.489-.137.101-.062.152-.164.152-.304v-.028c0-.34-.096-.605-.29-.793-.19-.187-.473-.28-.85-.28-.394 0-.704.086-.93.26a1.4 1.4 0 0 0-.465.575l-1.098-.25c.13-.364.32-.659.57-.883a2.33 2.33 0 0 1 .871-.492 3.403 3.403 0 0 1 1.036-.156c.24 0 .493.029.761.086.271.054.524.156.758.304.237.149.431.361.582.637.151.274.227.63.227 1.067V64h-1.14v-.82h-.048c-.075.15-.188.3-.34.445a1.808 1.808 0 0 1-.582.363c-.236.097-.52.145-.851.145zm.255-.938c.323 0 .599-.063.828-.191a1.34 1.34 0 0 0 .527-.5 1.29 1.29 0 0 0 .184-.668v-.773a.608.608 0 0 1-.242.117 3.769 3.769 0 0 1-.403.09l-.441.066a54.19 54.19 0 0 0-.36.047 2.9 2.9 0 0 0-.62.144 1.067 1.067 0 0 0-.446.293c-.11.125-.164.292-.164.5 0 .29.107.508.32.657.214.145.486.218.817.218zm8.759-3.73-1.059.187a1.254 1.254 0 0 0-.211-.386 1.044 1.044 0 0 0-.383-.301 1.387 1.387 0 0 0-.605-.117c-.331 0-.607.074-.828.222-.222.146-.332.335-.332.567 0 .2.074.362.222.484.149.122.388.223.719.3l.953.22c.552.127.964.324 1.234.59.271.265.407.61.407 1.035 0 .359-.104.68-.313.96a2.047 2.047 0 0 1-.863.657c-.367.159-.793.238-1.277.238-.672 0-1.22-.143-1.645-.43-.424-.289-.685-.699-.781-1.23l1.129-.172c.07.294.215.517.433.668.22.148.504.223.856.223.383 0 .689-.08.918-.239.229-.161.344-.358.344-.59a.613.613 0 0 0-.211-.472c-.138-.128-.35-.224-.637-.29l-1.016-.222c-.56-.127-.974-.33-1.242-.61-.266-.278-.398-.63-.398-1.058 0-.354.099-.664.296-.93.198-.265.472-.472.82-.62a2.995 2.995 0 0 1 1.2-.227c.648 0 1.159.14 1.531.422.373.278.619.652.739 1.12zm5.48.972V64h-1.168v-8H88.4v2.977h.075c.14-.323.355-.58.644-.77.29-.19.667-.285 1.133-.285a2.2 2.2 0 0 1 1.078.254c.31.17.55.422.719.758.172.333.258.75.258 1.25V64h-1.168v-3.676c0-.44-.114-.781-.34-1.023-.227-.245-.542-.367-.945-.367-.276 0-.524.058-.743.175a1.267 1.267 0 0 0-.511.516 1.672 1.672 0 0 0-.184.813zm8.035 3.684c-.591 0-1.1-.126-1.527-.379a2.57 2.57 0 0 1-.984-1.074c-.23-.464-.344-1.007-.344-1.629 0-.614.114-1.156.344-1.625.231-.469.554-.835.968-1.098.417-.263.904-.394 1.461-.394.339 0 .667.056.985.168a2.4 2.4 0 0 1 .855.527c.253.24.452.551.598.934.145.38.218.842.218 1.386v.415h-4.77v-.875h3.626c0-.308-.063-.58-.188-.817a1.41 1.41 0 0 0-.527-.566 1.473 1.473 0 0 0-.789-.207c-.328 0-.615.08-.86.242-.242.159-.43.367-.562.625-.13.255-.195.532-.195.832v.684c0 .4.07.742.21 1.023.144.281.343.496.598.645.256.145.554.218.895.218.221 0 .423-.031.605-.093a1.254 1.254 0 0 0 .777-.762l1.106.199a2 2 0 0 1-.476.855 2.309 2.309 0 0 1-.856.567c-.341.133-.73.2-1.168.2zM101.488 56v8h-1.168v-8h1.168zm1.572 10.25V58h1.14v.973h.098a3.25 3.25 0 0 1 .293-.434c.127-.164.305-.307.531-.43.227-.125.526-.187.899-.187.484 0 .916.122 1.296.367.381.245.679.598.895 1.059.219.46.328 1.015.328 1.664 0 .648-.108 1.204-.324 1.668-.216.46-.513.816-.891 1.066a2.303 2.303 0 0 1-1.293.371c-.364 0-.663-.061-.894-.183a1.692 1.692 0 0 1-.539-.43 3.159 3.159 0 0 1-.301-.438h-.07v3.184h-1.168zm1.144-5.25c0 .422.061.792.184 1.11.122.317.299.566.531.745.232.178.516.266.852.266.348 0 .64-.092.875-.277.234-.188.411-.442.531-.762A3.02 3.02 0 0 0 107.36 61c0-.396-.06-.751-.179-1.066a1.64 1.64 0 0 0-.532-.746c-.234-.183-.527-.274-.878-.274-.339 0-.625.087-.86.262a1.606 1.606 0 0 0-.527.73c-.12.313-.18.677-.18 1.094zm8.231 3.121c-.592 0-1.101-.126-1.528-.379a2.574 2.574 0 0 1-.984-1.074c-.229-.464-.344-1.007-.344-1.629 0-.614.115-1.156.344-1.625.232-.469.555-.835.969-1.098.416-.263.903-.394 1.461-.394.338 0 .666.056.984.168.318.112.603.288.855.527.253.24.452.551.598.934.146.38.219.842.219 1.386v.415h-4.77v-.875h3.625c0-.308-.062-.58-.187-.817a1.417 1.417 0 0 0-.528-.566 1.474 1.474 0 0 0-.789-.207c-.328 0-.614.08-.859.242a1.63 1.63 0 0 0-.563.625c-.13.255-.195.532-.195.832v.684c0 .4.07.742.211 1.023.143.281.343.496.598.645.255.145.553.218.894.218.222 0 .423-.031.606-.093a1.25 1.25 0 0 0 .777-.762l1.106.199a2.01 2.01 0 0 1-.477.855 2.317 2.317 0 0 1-.855.567c-.342.133-.731.2-1.168.2zm6.116-.004c-.485 0-.917-.124-1.297-.37-.378-.25-.675-.606-.891-1.067-.213-.464-.32-1.02-.32-1.668 0-.649.108-1.203.324-1.664.219-.461.518-.814.899-1.059.38-.245.811-.367 1.293-.367.372 0 .671.062.898.187.229.123.406.266.531.43.128.164.227.309.297.434h.07V56h1.168v8h-1.14v-.934h-.098a3.03 3.03 0 0 1-.305.438 1.68 1.68 0 0 1-.539.43c-.229.122-.526.183-.89.183zm.258-.996c.336 0 .619-.088.851-.266.235-.18.412-.428.531-.746.123-.317.184-.687.184-1.109 0-.417-.06-.781-.18-1.094a1.599 1.599 0 0 0-.527-.73c-.232-.175-.518-.262-.859-.262-.352 0-.645.091-.879.273a1.67 1.67 0 0 0-.532.747c-.117.315-.175.67-.175 1.066 0 .401.06.762.179 1.082.12.32.297.574.532.762.237.185.528.277.875.277z"/><path fill="#000" d="M21.062 62.773a4.5 4.5 0 1 1 6.445-5.53 3.094 3.094 0 0 1 1.43 6.016V62.06a1.968 1.968 0 1 0-2.25-3.156v-.029a3.376 3.376 0 1 0-5.625 2.516v1.382zm1.125-1.648h1.125V64.5h-1.125v-3.375zm4.5 0h1.125V64.5h-1.125v-3.375zm-2.25 1.688h1.125v3.375h-1.125v-3.375z"/><rect width="284" height="32" x="6" y="79" fill="#fff" rx="4"/><path fill="#6D7079" d="M42.969 91h1.156l2.719 6.64h.093l2.72-6.64h1.156v8h-.907v-6.078h-.078L47.328 99h-.875l-2.5-6.078h-.078V99h-.906v-8zm12.176 8.125c-.578 0-1.076-.128-1.496-.383a2.569 2.569 0 0 1-.964-1.078c-.224-.463-.336-1.002-.336-1.617s.112-1.156.336-1.625c.226-.471.541-.839.945-1.102.406-.265.88-.398 1.422-.398.312 0 .62.052.925.156.305.104.583.274.833.508.25.232.449.539.597.922.149.383.223.854.223 1.414v.39h-4.625v-.796h3.687c0-.339-.067-.641-.203-.907a1.53 1.53 0 0 0-.57-.628 1.596 1.596 0 0 0-.867-.231c-.367 0-.685.091-.953.273-.266.18-.47.415-.614.704a2.064 2.064 0 0 0-.215.93v.53c0 .454.079.838.235 1.153.159.312.379.55.66.715.281.161.608.242.98.242.243 0 .461-.034.657-.102.198-.07.368-.174.511-.312a1.42 1.42 0 0 0 .332-.524l.891.25a1.974 1.974 0 0 1-.473.797 2.304 2.304 0 0 1-.82.531 3.043 3.043 0 0 1-1.098.188zM59.032 99v-6h.89v.906h.063a1.44 1.44 0 0 1 .594-.722 1.75 1.75 0 0 1 .969-.278c.068 0 .152.002.254.004.101.003.178.007.23.012v.937a2.713 2.713 0 0 0-.215-.035 2.118 2.118 0 0 0-.347-.027 1.63 1.63 0 0 0-.782.184 1.347 1.347 0 0 0-.734 1.223V99h-.922zm6.348.125c-.563 0-1.047-.133-1.453-.398a2.596 2.596 0 0 1-.938-1.098c-.218-.466-.328-.999-.328-1.598 0-.61.112-1.147.336-1.613.227-.469.542-.835.945-1.098.407-.265.88-.398 1.422-.398.422 0 .802.078 1.14.234.34.156.617.375.833.656.216.282.35.61.402.985h-.922a1.429 1.429 0 0 0-.468-.727c-.24-.213-.563-.32-.97-.32-.359 0-.674.094-.944.281a1.832 1.832 0 0 0-.63.785c-.148.336-.222.73-.222 1.184 0 .463.073.867.219 1.21.148.345.357.612.625.802.27.19.588.285.953.285.24 0 .457-.042.652-.125a1.345 1.345 0 0 0 .786-.922h.921a2.135 2.135 0 0 1-1.195 1.629c-.333.164-.721.246-1.164.246zm7.488-2.578V93h.922v6h-.922v-1.016h-.062c-.141.305-.36.564-.657.778-.296.21-.671.316-1.125.316-.375 0-.708-.082-1-.246a1.721 1.721 0 0 1-.687-.75c-.167-.336-.25-.76-.25-1.27V93h.922v3.75c0 .438.122.787.367 1.047.247.26.563.39.945.39.23 0 .463-.058.7-.175.24-.118.44-.297.601-.54.164-.241.246-.55.246-.925zM75.478 99v-6h.891v.906h.063c.109-.297.307-.538.593-.722.287-.185.61-.278.97-.278.067 0 .151.002.253.004.102.003.178.007.23.012v.937a2.713 2.713 0 0 0-.214-.035 2.118 2.118 0 0 0-.348-.027c-.292 0-.552.061-.781.184a1.347 1.347 0 0 0-.734 1.223V99h-.922zm4.093 0v-6h.922v6h-.922zm.469-7a.655.655 0 0 1-.465-.184.59.59 0 0 1-.191-.441.59.59 0 0 1 .191-.441.655.655 0 0 1 .465-.184.64.64 0 0 1 .461.184c.13.122.195.27.195.441a.584.584 0 0 1-.195.441.642.642 0 0 1-.461.184zm5.923 4.547V93h.922v6h-.922v-1.016H85.9c-.14.305-.359.564-.656.778-.297.21-.672.316-1.125.316-.375 0-.708-.082-1-.246a1.722 1.722 0 0 1-.687-.75c-.167-.336-.25-.76-.25-1.27V93h.921v3.75c0 .438.123.787.368 1.047.247.26.562.39.945.39.23 0 .462-.058.7-.175.239-.118.44-.297.6-.54.165-.241.247-.55.247-.925zm6.86-2.203-.828.234a1.538 1.538 0 0 0-.23-.402 1.117 1.117 0 0 0-.407-.328c-.172-.086-.392-.13-.66-.13-.367 0-.673.085-.918.255-.242.166-.363.379-.363.636 0 .23.083.41.25.543.167.133.427.244.781.332l.89.22c.537.13.937.329 1.2.597.263.265.395.608.395 1.027 0 .344-.1.651-.297.922a1.98 1.98 0 0 1-.82.64c-.352.157-.761.235-1.227.235-.612 0-1.119-.133-1.52-.398-.4-.266-.655-.654-.761-1.165l.875-.218c.083.323.24.565.472.726.235.162.54.243.918.243.43 0 .771-.092 1.024-.274.255-.185.383-.406.383-.664a.698.698 0 0 0-.22-.523c-.145-.144-.369-.25-.671-.32l-1-.235c-.55-.13-.953-.332-1.211-.606-.255-.276-.383-.62-.383-1.035 0-.338.095-.638.285-.898.193-.26.455-.465.785-.614a2.758 2.758 0 0 1 1.133-.222c.594 0 1.06.13 1.399.39.34.26.583.605.726 1.032zM97.54 99v-8h4.797v.86h-3.828v2.703h3.469v.859h-3.47V99h-.968zm6.331 0v-6h.922v6h-.922zm.469-7a.655.655 0 0 1-.465-.184.588.588 0 0 1-.191-.441c0-.172.063-.319.191-.441a.655.655 0 0 1 .465-.184.64.64 0 0 1 .461.184c.13.122.195.27.195.441a.585.585 0 0 1-.195.441.642.642 0 0 1-.461.184zm3.063 3.39V99h-.922v-6h.891v.938h.078c.141-.305.354-.55.641-.735.286-.187.656-.281 1.109-.281.406 0 .762.083 1.067.25.304.164.541.414.711.75.169.333.253.755.253 1.266V99h-.921v-3.75c0-.471-.123-.838-.368-1.102-.244-.265-.58-.398-1.007-.398a1.61 1.61 0 0 0-.789.191 1.36 1.36 0 0 0-.543.559c-.133.245-.2.542-.2.89zm7.279 3.75c-.381 0-.726-.071-1.035-.214a1.783 1.783 0 0 1-.739-.63c-.182-.275-.273-.609-.273-1 0-.343.067-.622.203-.835.135-.216.316-.385.543-.508.226-.122.476-.213.75-.273.276-.063.553-.112.832-.149.364-.047.66-.082.887-.105.229-.026.395-.07.5-.13.106-.059.16-.163.16-.312v-.03c0-.386-.106-.686-.317-.9-.208-.213-.524-.32-.949-.32-.44 0-.785.097-1.035.29-.25.192-.426.398-.527.617l-.875-.313c.156-.365.364-.648.625-.851.263-.206.549-.35.859-.43a3.57 3.57 0 0 1 .922-.125c.193 0 .414.023.664.07.253.044.496.137.73.277.237.141.434.353.59.637.157.284.235.664.235 1.14V99h-.922v-.813h-.047a1.65 1.65 0 0 1-.313.419 1.786 1.786 0 0 1-.582.378c-.242.105-.537.157-.886.157zm.14-.828c.365 0 .672-.071.922-.214a1.465 1.465 0 0 0 .766-1.27v-.844c-.039.047-.125.09-.258.13-.13.036-.281.068-.453.097a20.277 20.277 0 0 1-.883.117 3.44 3.44 0 0 0-.672.153c-.206.067-.372.17-.5.308-.125.135-.187.32-.187.555 0 .32.118.562.355.726.24.162.543.243.91.243zm5.214-2.921V99h-.922v-6h.891v.938h.078c.141-.305.354-.55.641-.735.286-.187.656-.281 1.109-.281.406 0 .762.083 1.066.25.305.164.542.414.711.75.17.333.254.755.254 1.266V99h-.922v-3.75c0-.471-.122-.838-.367-1.102-.245-.265-.581-.398-1.008-.398a1.61 1.61 0 0 0-.789.191c-.229.128-.41.314-.543.559-.132.245-.199.542-.199.89zm7.95 3.734c-.562 0-1.047-.133-1.453-.398a2.592 2.592 0 0 1-.937-1.098c-.219-.466-.328-.999-.328-1.598 0-.61.112-1.147.336-1.613.226-.469.541-.835.945-1.098.406-.265.88-.398 1.422-.398.422 0 .802.078 1.14.234.339.156.616.375.832.656.217.282.351.61.403.985h-.922a1.429 1.429 0 0 0-.469-.727c-.239-.213-.562-.32-.969-.32a1.62 1.62 0 0 0-.945.281 1.834 1.834 0 0 0-.629.785c-.148.336-.223.73-.223 1.184 0 .463.073.867.219 1.21.149.345.357.612.625.802.271.19.589.285.953.285.24 0 .457-.042.653-.125.195-.084.36-.203.496-.36a1.38 1.38 0 0 0 .289-.562h.922a2.131 2.131 0 0 1-1.196 1.629c-.333.164-.721.246-1.164.246zm6.223 0c-.578 0-1.077-.128-1.496-.383a2.57 2.57 0 0 1-.965-1.078c-.224-.463-.336-1.002-.336-1.617s.112-1.156.336-1.625a2.66 2.66 0 0 1 .945-1.102c.407-.265.881-.398 1.422-.398.313 0 .621.052.926.156.305.104.582.274.832.508.25.232.449.539.598.922.148.383.222.854.222 1.414v.39h-4.625v-.796h3.688c0-.339-.068-.641-.203-.907a1.529 1.529 0 0 0-.571-.628 1.593 1.593 0 0 0-.867-.231c-.367 0-.685.091-.953.273-.265.18-.47.415-.613.704a2.068 2.068 0 0 0-.215.93v.53c0 .454.078.838.234 1.153.159.312.379.55.661.715.281.161.608.242.98.242.242 0 .461-.034.656-.102.198-.07.369-.174.512-.312.143-.14.254-.315.332-.524l.891.25a1.981 1.981 0 0 1-.473.797 2.304 2.304 0 0 1-.82.531 3.047 3.047 0 0 1-1.098.188zM25 89.375A5.625 5.625 0 1 1 19.375 95H20.5a4.5 4.5 0 1 0 .78-2.531h1.47v1.125h-3.375v-3.375H20.5v1.406a5.614 5.614 0 0 1 4.5-2.25zm.563 2.813v2.579l1.824 1.824-.796.796-2.154-2.155v-3.044h1.125z"/><rect width="284" height="32" x="6" y="114" fill="#fff" rx="4"/><path fill="#6D7079" d="M42.969 134v-8h4.797v.859h-3.828v2.703h3.468v.86h-3.468V134h-.97zm6.266 0v-6h.891v.906h.063c.109-.297.307-.538.593-.722a1.75 1.75 0 0 1 .969-.278c.068 0 .152.002.254.004.101.003.178.007.23.012v.937a3.564 3.564 0 0 0-.562-.062c-.292 0-.552.061-.781.183a1.349 1.349 0 0 0-.734 1.223V134h-.923zm5.859.141c-.38 0-.726-.072-1.035-.215a1.781 1.781 0 0 1-.739-.629c-.182-.276-.273-.61-.273-1 0-.344.068-.623.203-.836a1.44 1.44 0 0 1 .543-.508 2.87 2.87 0 0 1 .75-.273c.276-.063.553-.112.832-.149.365-.047.66-.082.887-.105.229-.026.396-.069.5-.129.106-.06.16-.164.16-.313v-.031c0-.385-.106-.685-.316-.898-.209-.214-.525-.321-.95-.321-.44 0-.785.097-1.035.289-.25.193-.426.399-.527.618l-.875-.313c.156-.364.364-.648.625-.851.263-.206.55-.349.86-.43.312-.083.619-.125.921-.125.193 0 .414.023.664.07.253.044.496.137.73.278.238.14.434.352.59.636.157.284.235.664.235 1.141V134h-.922v-.813h-.047c-.063.131-.167.27-.313.418a1.79 1.79 0 0 1-.581.379c-.243.105-.538.157-.887.157zm.14-.829c.365 0 .672-.071.922-.214a1.466 1.466 0 0 0 .766-1.27v-.844c-.04.047-.125.09-.258.129-.13.037-.281.069-.453.098a21.59 21.59 0 0 1-.883.117c-.24.031-.463.082-.672.152a1.161 1.161 0 0 0-.5.309c-.125.135-.187.32-.187.555 0 .32.118.562.355.726.24.162.543.242.91.242zm4.292.688v-6h.891v.937h.078c.125-.32.327-.569.606-.746.278-.179.613-.269 1.004-.269.395 0 .725.09.988.269.265.177.472.426.62.746h.063c.154-.309.384-.555.692-.738.307-.185.676-.277 1.105-.277.537 0 .976.168 1.317.504.34.333.511.853.511 1.558V134h-.921v-4.016c0-.442-.122-.759-.364-.949a1.345 1.345 0 0 0-.855-.285c-.422 0-.749.128-.98.383-.233.252-.348.573-.348.961V134h-.938v-4.109c0-.342-.11-.616-.332-.825-.221-.211-.506-.316-.855-.316-.24 0-.464.064-.672.191a1.448 1.448 0 0 0-.5.532 1.568 1.568 0 0 0-.188.777V134h-.922zm12.077.125c-.579 0-1.077-.128-1.497-.383a2.57 2.57 0 0 1-.964-1.078c-.224-.463-.336-1.003-.336-1.617 0-.615.112-1.156.336-1.625.226-.471.541-.839.945-1.102.406-.265.88-.398 1.422-.398.312 0 .62.052.926.156.304.104.582.274.832.508.25.232.449.539.597.922.149.383.223.854.223 1.414v.39h-4.625v-.796h3.687a1.97 1.97 0 0 0-.203-.907 1.537 1.537 0 0 0-.57-.629 1.603 1.603 0 0 0-.867-.23c-.367 0-.685.091-.953.273-.266.18-.47.414-.614.704a2.065 2.065 0 0 0-.214.929v.532c0 .453.078.837.234 1.152.159.312.379.551.66.715.281.161.608.242.98.242.243 0 .462-.034.657-.102a1.4 1.4 0 0 0 .511-.312 1.42 1.42 0 0 0 .333-.524l.89.25a1.975 1.975 0 0 1-.472.797 2.29 2.29 0 0 1-.82.531 3.02 3.02 0 0 1-1.098.188zm3.886-.125v-6h.89v.906h.063c.11-.297.308-.538.594-.722a1.75 1.75 0 0 1 .969-.278c.068 0 .152.002.254.004.101.003.178.007.23.012v.937a3.564 3.564 0 0 0-.562-.062c-.292 0-.552.061-.782.183a1.349 1.349 0 0 0-.734 1.223V134h-.922zm10.624-4.43v.86h-3.5v-.86h3.5zm4.841 4.43v-8h4.797v.859h-3.828v2.703h3.469v.86h-3.47V134h-.968zm7.253-8v8h-.922v-8h.922zm4.126 8.125c-.542 0-1.017-.129-1.426-.387a2.625 2.625 0 0 1-.953-1.082c-.226-.463-.34-1.005-.34-1.625 0-.625.114-1.17.34-1.636.229-.467.547-.829.953-1.086.409-.258.884-.387 1.426-.387.542 0 1.016.129 1.422.387.409.257.726.619.953 1.086.229.466.344 1.011.344 1.636 0 .62-.115 1.162-.344 1.625a2.591 2.591 0 0 1-.953 1.082c-.406.258-.88.387-1.422.387zm0-.828c.411 0 .75-.106 1.016-.317.265-.21.462-.488.589-.832.128-.343.192-.716.192-1.117s-.064-.774-.192-1.121a1.893 1.893 0 0 0-.589-.84c-.266-.213-.605-.32-1.016-.32-.411 0-.75.107-1.016.32a1.893 1.893 0 0 0-.589.84c-.128.347-.192.72-.192 1.121s.064.774.192 1.117c.127.344.324.622.589.832.266.211.605.317 1.016.317zm5.281.703-1.828-6h.969l1.297 4.594h.062l1.282-4.594h.984l1.266 4.578h.062l1.297-4.578h.969l-1.828 6h-.907l-1.312-4.609h-.094L108.521 134h-.907zm7.703 0v-8h.922v2.953h.078c.068-.104.162-.237.282-.398.122-.164.297-.31.523-.438.229-.13.539-.195.93-.195.505 0 .95.126 1.336.379.385.252.686.61.902 1.074.216.464.324 1.01.324 1.641 0 .635-.108 1.186-.324 1.652a2.558 2.558 0 0 1-.898 1.078 2.35 2.35 0 0 1-1.325.379c-.385 0-.694-.064-.925-.191a1.73 1.73 0 0 1-.536-.442 5.94 5.94 0 0 1-.289-.414h-.109V134h-.891zm.907-3c0 .453.066.853.199 1.199.133.344.327.613.582.809.255.193.568.289.937.289.386 0 .707-.102.965-.305a1.86 1.86 0 0 0 .586-.828c.133-.349.199-.737.199-1.164 0-.422-.065-.802-.195-1.141a1.768 1.768 0 0 0-.582-.808c-.258-.201-.582-.301-.973-.301-.375 0-.69.095-.945.285a1.716 1.716 0 0 0-.578.789 3.25 3.25 0 0 0-.195 1.176zm7.566 3.141c-.38 0-.725-.072-1.035-.215a1.778 1.778 0 0 1-.738-.629c-.183-.276-.274-.61-.274-1 0-.344.068-.623.203-.836.136-.216.317-.385.543-.508.227-.122.477-.213.75-.273.276-.063.554-.112.832-.149.365-.047.66-.082.887-.105.229-.026.396-.069.5-.129.107-.06.16-.164.16-.313v-.031c0-.385-.105-.685-.316-.898-.209-.214-.525-.321-.949-.321-.441 0-.786.097-1.036.289-.25.193-.425.399-.527.618l-.875-.313c.156-.364.365-.648.625-.851.263-.206.55-.349.859-.43.313-.083.62-.125.922-.125.193 0 .414.023.664.07.253.044.496.137.731.278.237.14.433.352.59.636.156.284.234.664.234 1.141V134h-.922v-.813h-.047c-.062.131-.166.27-.312.418-.146.149-.34.275-.582.379-.242.105-.538.157-.887.157zm.141-.829c.364 0 .672-.071.922-.214.252-.144.442-.328.57-.555.13-.227.195-.465.195-.715v-.844c-.039.047-.125.09-.258.129-.13.037-.281.069-.453.098a21.051 21.051 0 0 1-.883.117 3.522 3.522 0 0 0-.671.152 1.157 1.157 0 0 0-.5.309c-.125.135-.188.32-.188.555 0 .32.119.562.356.726.239.162.542.242.91.242zm8.542-3.968-.828.234a1.55 1.55 0 0 0-.231-.402 1.115 1.115 0 0 0-.406-.328c-.172-.086-.392-.129-.66-.129-.368 0-.674.084-.918.254-.242.166-.364.379-.364.636 0 .23.084.411.25.543.167.133.427.244.782.332l.89.219c.537.13.936.33 1.2.598.263.265.394.608.394 1.027 0 .344-.099.651-.297.922a1.975 1.975 0 0 1-.82.641c-.352.156-.761.234-1.227.234-.612 0-1.118-.133-1.519-.398-.401-.266-.655-.654-.762-1.165l.875-.218c.083.323.241.565.473.726.234.162.54.242.918.242.429 0 .77-.091 1.023-.273.255-.185.383-.406.383-.664a.696.696 0 0 0-.219-.523c-.146-.144-.37-.25-.672-.321l-1-.234c-.549-.13-.953-.332-1.211-.606-.255-.276-.382-.621-.382-1.035 0-.338.095-.638.285-.898.192-.261.454-.465.785-.613a2.747 2.747 0 0 1 1.133-.223c.593 0 1.06.13 1.398.39.341.261.583.605.727 1.032zm4.012 4.781c-.578 0-1.076-.128-1.496-.383a2.578 2.578 0 0 1-.965-1.078c-.224-.463-.336-1.003-.336-1.617 0-.615.112-1.156.336-1.625.227-.471.542-.839.946-1.102.406-.265.88-.398 1.422-.398.312 0 .621.052.925.156.305.104.582.274.832.508.25.232.45.539.598.922.149.383.223.854.223 1.414v.39h-4.625v-.796h3.687c0-.339-.067-.641-.203-.907a1.54 1.54 0 0 0-.57-.629 1.603 1.603 0 0 0-.867-.23 1.66 1.66 0 0 0-.954.273 1.8 1.8 0 0 0-.613.704 2.068 2.068 0 0 0-.215.929v.532c0 .453.078.837.235 1.152.159.312.379.551.66.715.281.161.608.242.98.242.243 0 .461-.034.657-.102.198-.07.368-.174.511-.312.144-.141.254-.315.332-.524l.891.25a1.97 1.97 0 0 1-.473.797 2.281 2.281 0 0 1-.82.531 3.022 3.022 0 0 1-1.098.188zm6.668-7.266V126h6v.859h-2.515V134h-.969v-7.141h-2.516zm9.016 7.266c-.578 0-1.077-.128-1.496-.383a2.57 2.57 0 0 1-.965-1.078c-.224-.463-.336-1.003-.336-1.617 0-.615.112-1.156.336-1.625a2.66 2.66 0 0 1 .945-1.102c.407-.265.881-.398 1.422-.398.313 0 .621.052.926.156.305.104.582.274.832.508.25.232.449.539.598.922.148.383.222.854.222 1.414v.39h-4.625v-.796h3.688c0-.339-.068-.641-.203-.907a1.536 1.536 0 0 0-.571-.629 1.598 1.598 0 0 0-.867-.23c-.367 0-.685.091-.953.273-.266.18-.47.414-.613.704a2.068 2.068 0 0 0-.215.929v.532c0 .453.078.837.234 1.152.159.312.379.551.66.715.282.161.609.242.981.242.242 0 .461-.034.656-.102.198-.07.369-.174.512-.312.143-.141.254-.315.332-.524l.891.25a1.982 1.982 0 0 1-.473.797 2.29 2.29 0 0 1-.82.531 3.026 3.026 0 0 1-1.098.188zm3.887-.125v-6h.89v.937h.078c.125-.32.327-.569.606-.746.279-.179.613-.269 1.004-.269.396 0 .725.09.988.269.266.177.473.426.621.746h.063c.153-.309.384-.555.691-.738.307-.185.676-.277 1.106-.277.536 0 .975.168 1.316.504.341.333.512.853.512 1.558V134h-.922v-4.016c0-.442-.121-.759-.363-.949a1.348 1.348 0 0 0-.856-.285c-.422 0-.749.128-.98.383-.232.252-.348.573-.348.961V134h-.938v-4.109c0-.342-.11-.616-.332-.825-.221-.211-.506-.316-.855-.316-.24 0-.464.064-.672.191a1.448 1.448 0 0 0-.5.532 1.568 1.568 0 0 0-.187.777V134h-.922zm9.56 2.25V128h.891v.953h.109c.068-.104.162-.237.281-.398a1.66 1.66 0 0 1 .524-.438c.229-.13.539-.195.93-.195.505 0 .95.126 1.336.379.385.252.686.61.902 1.074.216.464.324 1.01.324 1.641 0 .635-.108 1.186-.324 1.652a2.553 2.553 0 0 1-.899 1.078 2.344 2.344 0 0 1-1.324.379c-.385 0-.694-.064-.926-.191a1.737 1.737 0 0 1-.535-.442 5.94 5.94 0 0 1-.289-.414h-.078v3.172h-.922zm.906-5.25c0 .453.067.853.2 1.199.132.344.327.613.582.809.255.193.567.289.937.289.386 0 .707-.102.965-.305.26-.206.456-.482.586-.828.133-.349.199-.737.199-1.164 0-.422-.065-.802-.195-1.141a1.768 1.768 0 0 0-.582-.808c-.258-.201-.582-.301-.973-.301-.375 0-.69.095-.945.285a1.716 1.716 0 0 0-.578.789c-.13.336-.196.728-.196 1.176zm6.719-5v8h-.922v-8h.922zm3.454 8.141c-.38 0-.725-.072-1.035-.215a1.778 1.778 0 0 1-.738-.629c-.182-.276-.274-.61-.274-1 0-.344.068-.623.204-.836.135-.216.316-.385.543-.508.226-.122.476-.213.75-.273.276-.063.553-.112.832-.149.364-.047.66-.082.886-.105.229-.026.396-.069.5-.129.107-.06.16-.164.16-.313v-.031c0-.385-.105-.685-.316-.898-.208-.214-.525-.321-.949-.321-.44 0-.785.097-1.035.289-.25.193-.426.399-.528.618l-.875-.313c.157-.364.365-.648.625-.851.263-.206.55-.349.86-.43.312-.083.619-.125.922-.125.192 0 .414.023.664.07.252.044.496.137.73.278.237.14.434.352.59.636.156.284.234.664.234 1.141V134h-.922v-.813h-.046c-.063.131-.167.27-.313.418-.146.149-.34.275-.582.379-.242.105-.538.157-.887.157zm.141-.829c.365 0 .672-.071.922-.214a1.465 1.465 0 0 0 .765-1.27v-.844c-.039.047-.125.09-.257.129a4.352 4.352 0 0 1-.454.098 21.051 21.051 0 0 1-.882.117c-.24.031-.464.082-.672.152a1.157 1.157 0 0 0-.5.309c-.125.135-.188.32-.188.555 0 .32.119.562.356.726.239.162.543.242.91.242zm6.901-5.312v.781h-3.109V128h3.109zm-2.203-1.438h.922v5.719c0 .261.038.456.113.586a.583.583 0 0 0 .297.258c.123.042.252.062.387.062.101 0 .185-.005.25-.015l.156-.031.188.828c-.063.023-.15.047-.262.07a1.931 1.931 0 0 1-.426.039c-.26 0-.515-.056-.765-.168a1.513 1.513 0 0 1-.618-.512c-.161-.229-.242-.518-.242-.867v-5.969zm6.041 7.563c-.578 0-1.077-.128-1.496-.383a2.57 2.57 0 0 1-.965-1.078c-.224-.463-.336-1.003-.336-1.617 0-.615.112-1.156.336-1.625.227-.471.542-.839.946-1.102.406-.265.88-.398 1.421-.398.313 0 .622.052.926.156.305.104.582.274.832.508.25.232.449.539.598.922.148.383.223.854.223 1.414v.39h-4.625v-.796h3.687c0-.339-.068-.641-.203-.907a1.54 1.54 0 0 0-.57-.629 1.604 1.604 0 0 0-.868-.23c-.367 0-.684.091-.953.273a1.8 1.8 0 0 0-.613.704 2.068 2.068 0 0 0-.215.929v.532c0 .453.078.837.235 1.152.158.312.378.551.66.715.281.161.608.242.98.242.242 0 .461-.034.656-.102.198-.07.369-.174.512-.312.143-.141.254-.315.332-.524l.891.25a1.97 1.97 0 0 1-.473.797 2.29 2.29 0 0 1-.82.531 3.026 3.026 0 0 1-1.098.188zm8.137-4.781-.828.234a1.521 1.521 0 0 0-.231-.402 1.115 1.115 0 0 0-.406-.328c-.172-.086-.392-.129-.66-.129-.367 0-.673.084-.918.254-.242.166-.363.379-.363.636 0 .23.083.411.25.543.166.133.427.244.781.332l.891.219c.536.13.936.33 1.199.598.263.265.394.608.394 1.027 0 .344-.099.651-.297.922a1.968 1.968 0 0 1-.82.641c-.351.156-.76.234-1.226.234-.612 0-1.119-.133-1.52-.398-.401-.266-.655-.654-.762-1.165l.875-.218c.084.323.241.565.473.726.234.162.54.242.918.242.43 0 .771-.091 1.023-.273.256-.185.383-.406.383-.664a.696.696 0 0 0-.219-.523c-.145-.144-.369-.25-.671-.321l-1-.234c-.55-.13-.954-.332-1.211-.606-.256-.276-.383-.621-.383-1.035 0-.338.095-.638.285-.898.193-.261.454-.465.785-.613a2.747 2.747 0 0 1 1.133-.223c.594 0 1.06.13 1.398.39.341.261.584.605.727 1.032zM25 123.812l4.622 1.028c.257.057.44.285.44.549v5.617a3.373 3.373 0 0 1-1.503 2.808L25 136.188l-3.56-2.374a3.373 3.373 0 0 1-1.503-2.807v-5.618c0-.264.184-.492.44-.549L25 123.812zm0 1.153-3.938.875v5.166a2.25 2.25 0 0 0 1.002 1.872L25 134.836l2.936-1.958a2.248 2.248 0 0 0 1.002-1.871v-5.167L25 124.966v-.001zm2.504 2.91.796.795-3.58 3.58-2.386-2.387.795-.795 1.59 1.591 2.785-2.785v.001z"/><g filter="url(#a)"><mask id="b" width="25.62" height="26.205" x="240.858" y="61.314" fill="#000" maskUnits="userSpaceOnUse"><path fill="#fff" d="M240.858 61.314h25.62v26.205h-25.62z"/><path fill-rule="evenodd" d="m251.842 77.733-1.607-.577c-1.098-.393-2.397.142-2.905 1.196l.118-.246a.603.603 0 0 0 .226.756l3.05 1.892c.484.3 1.355.583 1.928.622 0 0 3.377.15 3.864.795l.616.816 3.366-2.542-.43-2.319 2.113 1.048.841-.636-.616-.816c-.487-.645-.751-3.634-.751-3.634-.065-.572-.395-1.414-.744-1.876l-2.565-3.395c-.582-.74-1.682-.866-2.47-.271-.394.298-.484.844-.2 1.22l.206.272c-.568-.752-1.667-.878-2.456-.283-.394.298-.483.844-.199 1.22l.205.272c-.568-.752-1.667-.878-2.455-.283-.395.298-.484.844-.2 1.22l.205.272a1.174 1.174 0 0 0-.259-.264l-2.866-3.342a1.13 1.13 0 0 0-1.53-.167 1.052 1.052 0 0 0-.206 1.476l2.543 3.366 3.178 4.208zm5.269-5.302.841-.636 2.543 3.366-.842.635-2.542-3.365zm-1.683 1.27.842-.635 2.542 3.366-.841.635-2.543-3.365zm-1.682 1.272.841-.636 2.542 3.366-.841.636-2.542-3.366z" clip-rule="evenodd"/></mask><path fill="#fff" fill-rule="evenodd" d="m251.842 77.733-1.607-.577c-1.098-.393-2.397.142-2.905 1.196l.118-.246a.603.603 0 0 0 .226.756l3.05 1.892c.484.3 1.355.583 1.928.622 0 0 3.377.15 3.864.795l.616.816 3.366-2.542-.43-2.319 2.113 1.048.841-.636-.616-.816c-.487-.645-.751-3.634-.751-3.634-.065-.572-.395-1.414-.744-1.876l-2.565-3.395c-.582-.74-1.682-.866-2.47-.271-.394.298-.484.844-.2 1.22l.206.272c-.568-.752-1.667-.878-2.456-.283-.394.298-.483.844-.199 1.22l.205.272c-.568-.752-1.667-.878-2.455-.283-.395.298-.484.844-.2 1.22l.205.272a1.174 1.174 0 0 0-.259-.264l-2.866-3.342a1.13 1.13 0 0 0-1.53-.167 1.052 1.052 0 0 0-.206 1.476l2.543 3.366 3.178 4.208zm5.269-5.302.841-.636 2.543 3.366-.842.635-2.542-3.365zm-1.683 1.27.842-.635 2.542 3.366-.841.635-2.543-3.365zm-1.682 1.272.841-.636 2.542 3.366-.841.636-2.542-3.366z" clip-rule="evenodd"/><path fill="#000" d="m251.842 77.733-.289.804 2.697.967-1.727-2.286-.681.515zm-1.607-.577.288-.804-.288.804zm-2.561 1.706-.451.726.451-.726zm3.05 1.892.451-.726-.451.726zm1.928.622-.058.852.01.001h.01l.038-.853zm3.864.795.681-.515-.681.515zm.616.816-.682.515.515.682.682-.515-.515-.682zm3.366-2.542.515.681.421-.318-.096-.519-.84.156zm-.43-2.319.38-.765-1.531-.759.311 1.68.84-.156zm2.113 1.048-.38.765.473.235.422-.319-.515-.681zm.841-.636.515.682.682-.515-.515-.682-.682.515zm-1.367-4.45.851-.076-.001-.01-.002-.01-.848.096zm-.744-1.876-.682.515.682-.515zm-2.565-3.395.682-.515-.005-.007-.005-.006-.672.528zm-2.67.949-.681.515.681-.515zm-2.449 1.209-.682.515.682-.515zm-2.45 1.209-.682.515.682-.515zm-.054.008-.648.556.071.083.09.062.487-.701zm-2.866-3.342-.648.556.648-.556zm-1.736 1.31-.682.514.682-.515zm11.831 1.635.682-.515-.515-.682-.681.515.514.682zm2.543 3.366.515.681.681-.514-.514-.682-.682.515zm-.842.635-.681.515.515.682.681-.515-.515-.682zm-2.542-3.365-.515-.682-.682.515.515.682.682-.515zm-.841.635.682-.515-.515-.682-.682.515.515.682zm2.542 3.366.515.681.682-.514-.515-.682-.682.515zm-.841.635-.682.515.515.682.682-.515-.515-.682zm-2.543-3.365-.515-.682-.681.515.515.682.681-.515zm-.841.635.682-.515-.515-.681-.682.515.515.681zm2.542 3.366.515.682.682-.515-.515-.682-.682.515zm-.841.636-.682.515.515.681.682-.515-.515-.681zm-2.542-3.366-.515-.682-.682.515.515.682.682-.515zm-1.616 1.956-1.607-.577-.577 1.608 1.607.577.577-1.609zm-1.607-.577c-1.512-.542-3.266.184-3.963 1.63l1.54.74c.319-.661 1.163-1.006 1.846-.761l.577-1.609zm-2.423 2.37.118-.245-1.539-.741-.119.245 1.54.742zm-1.421-.986c-.32.663-.07 1.471.544 1.852l.901-1.452a.26.26 0 0 1 .115.144.276.276 0 0 1-.021.197l-1.539-.741zm.544 1.852 3.051 1.892.901-1.452-3.051-1.892-.901 1.452zm3.051 1.892c.601.372 1.606.7 2.32.748l.117-1.704c-.434-.03-1.17-.27-1.536-.496l-.901 1.452zm2.378-.104-.038.853h.008l.025.002a12.703 12.703 0 0 1 .477.03c.314.024.735.062 1.167.118.437.057.861.13 1.191.22.166.045.286.088.362.125.094.044.053.045-.01-.038l1.363-1.03a1.645 1.645 0 0 0-.621-.476 3.978 3.978 0 0 0-.645-.23 11.1 11.1 0 0 0-1.419-.265 23.337 23.337 0 0 0-1.665-.154l-.113-.006-.031-.002h-.012l-.039.853zm3.182 1.31.616.816 1.364-1.03-.617-.816-1.363 1.03zm1.813.983 3.366-2.543-1.03-1.363-3.366 2.542 1.03 1.364zm3.691-3.38-.43-2.318-1.68.311.43 2.319 1.68-.312zm-1.649-1.397 2.112 1.047.759-1.53-2.112-1.048-.759 1.53zm3.007.963.841-.635-1.03-1.364-.841.636 1.03 1.363zm1.008-1.832-.617-.816-1.363 1.03.617.816 1.363-1.03zm-.617-.816c.012.016-.011-.012-.054-.127a4.097 4.097 0 0 1-.122-.406 13.402 13.402 0 0 1-.219-1.14 25.881 25.881 0 0 1-.175-1.4l-.009-.092-.002-.023v-.006l-.851.075-.851.075v.01a14.67 14.67 0 0 0 .45 2.917c.091.362.231.83.47 1.147l1.363-1.03zm-.584-3.215a4.877 4.877 0 0 0-.319-1.197 4.836 4.836 0 0 0-.591-1.098l-1.364 1.03c.113.15.249.4.366.696.117.295.189.573.211.76l1.697-.191zm-.91-2.295-2.565-3.395-1.363 1.03 2.564 3.395 1.364-1.03zm-2.575-3.408c-.888-1.127-2.52-1.284-3.657-.425l1.03 1.364c.44-.332 1.006-.235 1.284.118l1.343-1.057zm-3.657-.425c-.74.56-.958 1.634-.366 2.417l1.363-1.03a.033.033 0 0 1 .006.013c.001.004 0 .004.001 0 .001-.006.006-.021.026-.036l-1.03-1.364zm-.366 2.417.205.272 1.363-1.03-.205-.272-1.363 1.03zm1.568-.758c-.875-1.159-2.518-1.306-3.651-.45l1.029 1.364c.443-.335.998-.23 1.259.116l1.363-1.03zm-3.651-.45c-.74.56-.958 1.634-.367 2.417l1.363-1.03.007.013c0 .004 0 .004 0 0 .001-.006.007-.021.026-.036l-1.029-1.364zm-.367 2.417.205.272 1.364-1.03-.206-.272-1.363 1.03zm1.569-.758c-.875-1.159-2.518-1.306-3.652-.45l1.03 1.364c.443-.335.998-.23 1.258.116l1.364-1.03zm-3.652-.45c-.74.56-.958 1.634-.367 2.417l1.364-1.03.006.013c.001.004 0 .004.001 0 .001-.006.006-.021.026-.036l-1.03-1.364zm-.367 2.417.206.272 1.363-1.03-.205-.272-1.364 1.03zm1.569-.758a2.034 2.034 0 0 0-.453-.451l-.975 1.403c-.01-.007-.008-.007.004.006a.699.699 0 0 1 .061.072l1.363-1.03zm-.292-.306-2.866-3.341-1.297 1.112 2.866 3.342 1.297-1.113zm-2.866-3.341a1.985 1.985 0 0 0-2.694-.293l1.03 1.363a.277.277 0 0 1 .367.042l1.297-1.112zM245.812 68a1.906 1.906 0 0 0-.373 2.673l1.364-1.03a.197.197 0 0 1 .039-.28L245.812 68zm-.373 2.673 2.543 3.366 1.363-1.03-2.542-3.365-1.364 1.03zm2.543 3.366 3.178 4.208 1.363-1.03-3.178-4.208-1.363 1.03zm9.644-.928.841-.635-1.029-1.364-.842.636 1.03 1.363zm-.355-.802 2.542 3.366 1.364-1.03-2.543-3.366-1.363 1.03zm2.709 2.17-.842.635 1.03 1.363.842-.635-1.03-1.364zm.355.801-2.542-3.365-1.364 1.03 2.543 3.365 1.363-1.03zm-4.392-.898.842-.635-1.03-1.364-.842.636 1.03 1.363zm-.355-.802 2.542 3.366 1.364-1.03-2.542-3.366-1.364 1.03zm2.709 2.17-.841.635 1.03 1.363.841-.635-1.03-1.364zm.355.801-2.542-3.365-1.363 1.03 2.542 3.365 1.363-1.03zm-4.391-.897.841-.636-1.03-1.363-.841.635 1.03 1.364zm-.356-.803 2.543 3.366 1.363-1.03-2.542-3.366-1.364 1.03zm2.71 2.17-.842.635 1.03 1.363.841-.635-1.029-1.364zm.355.802-2.543-3.366-1.363 1.03 2.542 3.366 1.364-1.03z" mask="url(#b)"/></g><defs><filter id="a" width="25.493" height="23.195" x="241.889" y="65.207" color-interpolation-filters="sRGB" filterUnits="userSpaceOnUse"><feFlood flood-opacity="0" result="BackgroundImageFix"/><feColorMatrix in="SourceAlpha" result="hardAlpha" values="0 0 0 0 0 0 0 0 0 0 0 0 0 0 0 0 0 0 127 0"/><feOffset dy="1.055"/><feGaussianBlur stdDeviation="1.582"/><feColorMatrix values="0 0 0 0 0 0 0 0 0 0 0 0 0 0 0 0 0 0 0.2 0"/><feBlend in2="BackgroundImageFix" result="effect1_dropShadow_930_9285"/><feBlend in="SourceGraphic" in2="effect1_dropShadow_930_9285" result="shape"/></filter></defs></svg>