<svg xmlns="http://www.w3.org/2000/svg" width="64" height="64" fill="none"><path fill="#FF4A00" d="M32.015 8.062c1.356.002 2.69.117 3.985.333v13.973l9.906-9.88a24.078 24.078 0 0 1 5.659 5.643l-9.906 9.88h14.009A23.92 23.92 0 0 1 56 31.985v.032a23.95 23.95 0 0 1-.332 3.976H41.656l9.909 9.878a24.292 24.292 0 0 1-2.592 3.058h-.003c-.946.944-1.97 1.81-3.06 2.585L36 41.633v13.972a24.441 24.441 0 0 1-3.983.334h-.034a24.432 24.432 0 0 1-3.981-.334V41.633l-9.906 9.88a24.075 24.075 0 0 1-5.659-5.643l9.907-9.878H8.334A23.81 23.81 0 0 1 8 32.009v-.07c.002-.351.025-.78.058-1.225l.01-.134c.098-1.25.267-2.568.267-2.568h14.009l-9.907-9.88a23.664 23.664 0 0 1 2.59-3.054l.005-.005a23.952 23.952 0 0 1 3.064-2.586l9.906 9.88V8.396a24.428 24.428 0 0 1 3.985-.333h.028zm-.002 17.955h-.023c-1.783 0-3.49.326-5.07.919a14.375 14.375 0 0 0-.92 5.053v.022c.002 1.779.33 3.482.923 5.054 1.576.593 3.284.92 5.067.92h.023c1.783 0 3.49-.327 5.066-.92.594-1.574.922-3.275.922-5.053v-.023c0-1.778-.328-3.482-.922-5.053a14.365 14.365 0 0 0-5.066-.92z"/></svg>