<svg xmlns="http://www.w3.org/2000/svg" width="24" height="24" fill="none"><path fill="#2B2B31" d="M12 4.5c2.038 0 2.292.008 3.091.045.8.037 1.343.163 1.822.349.494.19.912.448 1.328.864.382.375.677.829.865 1.33.185.477.311 1.022.349 1.82.035.8.045 1.054.045 3.092 0 2.038-.008 2.292-.045 3.091-.037.8-.163 1.343-.349 1.822-.188.5-.483.954-.865 1.328a3.687 3.687 0 0 1-1.328.865c-.478.185-1.023.311-1.822.349-.799.035-1.053.045-3.091.045-2.038 0-2.292-.008-3.091-.045-.8-.037-1.343-.163-1.822-.349a3.668 3.668 0 0 1-1.329-.865 3.678 3.678 0 0 1-.864-1.328c-.186-.478-.312-1.023-.349-1.822C4.51 14.293 4.5 14.038 4.5 12c0-2.038.008-2.292.045-3.091.037-.8.163-1.343.349-1.822.187-.5.483-.954.864-1.329a3.673 3.673 0 0 1 1.33-.864c.478-.186 1.021-.312 1.82-.349C9.709 4.51 9.963 4.5 12 4.5zm0 3.75a3.75 3.75 0 1 0 0 7.5 3.75 3.75 0 0 0 0-7.5zm4.875-.188a.938.938 0 1 0-1.875 0 .938.938 0 0 0 1.875 0zM12 9.75a2.25 2.25 0 1 1 0 4.5 2.25 2.25 0 0 1 0-4.5z"/></svg>