<svg xmlns="http://www.w3.org/2000/svg" width="224" height="112" fill="none"><g fill="#6D7079" clip-path="url(#a)"><path d="m68.323 38.472-4.37-2.534-4.37 2.534-4.371 2.502-4.37 2.533-4.37 2.534v5.035l4.37 2.534v-5.036l4.37-2.533 4.37-2.534 4.37-2.533 4.371 2.533v15.17l4.402 2.502V40.974l-4.402-2.502z"/><path d="M81.466 61.179V46.041l-4.37-2.534-4.37 2.534 4.37 2.534v15.137l-4.37 2.534-4.403-2.533-4.37-2.534-4.37-2.502-4.371 2.502 4.37 2.533 4.37 2.534 4.371 2.502 4.402 2.534 4.37-2.534 4.371-2.502V61.18z"/><path d="m68.323 68.748-4.37 2.534-4.37-2.534-4.371-2.502-4.37-2.533v-5.036l4.37-2.533 4.37-2.534 4.37-2.534v-5.035l-4.37 2.534-4.37 2.501-4.37 2.534-4.37 2.534v10.102l4.37 2.502 4.37 2.534 4.37 2.533 4.37 2.534 4.371-2.534v-5.067zm43.261-9.722v1.71c0 .823.095 1.045.222 1.235v.095h-4.339c-.063-.095-.095-.317-.095-.855v-1.077c0-1.678-.602-2.28-2.439-2.28h-4.402v4.244h-4.18v-13.08h9.659c4.846 0 5.479 1.964 5.479 3.515v.159c0 1.742-1.298 2.755-2.85 3.072 1.742.348 2.945 1.298 2.945 3.262zm-6.144-4.434c1.362 0 1.679-.57 1.679-1.235v-.032c0-.633-.349-1.203-1.679-1.203h-4.909v2.47h4.909zm11.971 7.474V49.017h4.181v13.016h-4.181v.032zm9.849-6.366v-.412c0-2.818 1.679-6.429 8.013-6.429h.602c6.239 0 7.854 2.724 7.854 4.72v.063h-4.402c-.127-.317-.634-1.552-3.769-1.552-3.104 0-3.99 1.678-3.99 3.325v.222c0 1.583.95 3.452 4.053 3.452 2.946 0 3.579-1.362 3.674-1.774h-3.642V54.94h8.171v7.189h-3.104c-.063-.443-.317-1.298-.538-1.742-.38.412-1.805 1.932-5.036 1.932h-.285c-5.859-.063-7.601-3.674-7.601-6.619zm22.613 6.366V49.017h4.18v13.016h-4.18v.032zm17.608-13.048c6.967 0 8.519 3.325 8.519 6.112v.538c0 2.882-1.298 6.398-8.519 6.398h-7.189V49.017h7.189zm-.38 9.912c4.117 0 4.529-1.963 4.529-3.388v-.095c0-1.362-.412-3.294-4.529-3.294h-2.629v6.777h2.629z"/></g><defs><clipPath id="a"><path fill="#fff" d="M46.4 36h130v40h-130z"/></clipPath></defs></svg>