<svg xmlns="http://www.w3.org/2000/svg" width="64" height="64" fill="none"><path fill="#161514" d="M32 0C14.33 0 0 14.69 0 32.81c0 14.496 9.17 26.795 21.884 31.134 1.599.303 2.186-.712 2.186-1.579 0-.782-.03-3.367-.043-6.108-8.903 1.984-10.781-3.871-10.781-3.871-1.456-3.793-3.553-4.801-3.553-4.801-2.904-2.037.218-1.995.218-1.995 3.214.232 4.906 3.381 4.906 3.381 2.854 5.016 7.486 3.566 9.312 2.728.287-2.12 1.116-3.568 2.032-4.388-7.108-.83-14.58-3.643-14.58-16.215 0-3.582 1.25-6.509 3.297-8.806-.332-.827-1.427-4.164.31-8.683 0 0 2.687-.882 8.803 3.363 2.552-.727 5.29-1.091 8.01-1.104 2.719.013 5.458.377 8.016 1.104 6.107-4.245 8.791-3.363 8.791-3.363 1.742 4.52.646 7.856.314 8.683 2.051 2.297 3.293 5.224 3.293 8.806 0 12.602-7.486 15.377-14.612 16.19 1.148 1.017 2.17 3.014 2.17 6.075 0 4.39-.036 7.924-.036 9.004 0 .873.576 1.896 2.198 1.574C54.843 59.596 64 47.302 64 32.81 64 14.69 49.673 0 32 0z"/><path fill="#161514" d="M12.214 46.883c-.07.161-.32.21-.547.099-.232-.106-.362-.326-.287-.488.069-.166.32-.212.55-.101.232.106.365.328.284.49zm1.294 1.467c-.152.144-.45.078-.652-.15-.209-.226-.248-.529-.094-.675.157-.143.446-.076.656.15.209.23.25.53.09.676zm1.259 1.872c-.195.138-.515.008-.713-.28-.196-.29-.196-.636.004-.775.199-.139.514-.014.714.273.195.294.195.64-.005.782zm1.726 1.808c-.175.195-.548.143-.821-.125-.28-.262-.357-.634-.181-.83.177-.197.552-.142.827.124.277.262.361.636.175.83zm2.38 1.049c-.077.254-.436.37-.798.262-.361-.112-.598-.41-.525-.667.075-.256.436-.376.8-.26.361.11.598.406.523.665zm2.614.194c.009.268-.298.49-.678.495-.382.009-.69-.208-.695-.471 0-.271.3-.491.682-.497.38-.008.69.207.69.474zm2.433-.421c.045.262-.219.53-.596.602-.37.069-.714-.093-.761-.352-.046-.268.222-.536.593-.606.377-.067.715.09.763.356z"/></svg>