<svg xmlns="http://www.w3.org/2000/svg" width="255" height="124" fill="none"><path fill="#fff" d="M0 0h255v124H0z"/><path fill="#8792F7" d="M29.93 27.556H25.5v8.857h4.429v-8.857zm0-8.857H25.5v4.428h4.429V18.7zm4.428 4.428H29.93v4.429h4.428v-4.429z"/><path fill="#8792F7" d="M25.501 27.556h-4.429v4.428h4.429v-4.428z"/><path fill="#6D7079" d="M58.695 20.707v7.515h-.88l-4.096-5.9h-.073v5.9h-.91v-7.515h.88l4.11 5.915h.074v-5.915h.895zm5.256 5.21v-3.331h.866v5.636h-.866v-.954h-.059a1.85 1.85 0 0 1-.616.73c-.28.198-.631.298-1.057.298-.352 0-.666-.078-.94-.232a1.617 1.617 0 0 1-.645-.704c-.157-.316-.235-.713-.235-1.193v-3.581h.866v3.523c0 .41.115.738.345.983.232.245.528.367.888.367.215 0 .434-.055.657-.165.225-.11.413-.28.565-.507.154-.227.23-.517.23-.87zm2.452 2.305v-5.636h.837v.88h.073c.117-.3.307-.534.569-.7.262-.17.576-.254.943-.254.372 0 .681.085.928.254.25.166.444.4.584.7h.058c.145-.29.361-.522.65-.693.289-.174.635-.26 1.038-.26.504 0 .917.157 1.237.473.32.313.48.801.48 1.464v3.772h-.865V24.45c0-.416-.114-.713-.341-.892a1.263 1.263 0 0 0-.804-.268c-.396 0-.703.12-.921.36-.218.237-.327.538-.327.903v3.67h-.88v-3.861c0-.32-.104-.579-.312-.774-.208-.199-.476-.298-.804-.298-.225 0-.435.06-.631.18-.193.12-.35.286-.47.5-.117.21-.176.453-.176.73v3.522h-.866zm9.099 0v-7.515h.866v2.774h.073c.064-.098.152-.223.264-.374a1.55 1.55 0 0 1 .492-.411c.215-.122.506-.184.873-.184.475 0 .893.12 1.255.356.362.238.645.574.848 1.01.203.435.304.949.304 1.54 0 .598-.101 1.115-.304 1.553a2.404 2.404 0 0 1-.844 1.013 2.21 2.21 0 0 1-1.244.356c-.362 0-.652-.06-.87-.18a1.612 1.612 0 0 1-.502-.415 5.554 5.554 0 0 1-.272-.389h-.103v.866h-.836zm.85-2.818c0 .426.063.801.188 1.127.125.322.307.576.547.76.24.18.533.27.88.27.363 0 .665-.095.907-.286a1.75 1.75 0 0 0 .55-.777c.125-.328.187-.693.187-1.094 0-.396-.06-.753-.183-1.072a1.656 1.656 0 0 0-.547-.76c-.242-.188-.547-.282-.913-.282-.353 0-.649.09-.889.268-.24.176-.42.423-.543.741a3.047 3.047 0 0 0-.183 1.105zm7.813 2.936c-.543 0-1.011-.12-1.405-.36a2.414 2.414 0 0 1-.907-1.013c-.21-.435-.315-.942-.315-1.519s.105-1.086.316-1.526a2.49 2.49 0 0 1 .888-1.035c.381-.25.826-.375 1.335-.375.294 0 .584.05.87.147.286.098.547.257.781.477.235.218.422.507.562.866.14.36.21.803.21 1.329v.367h-4.346v-.749h3.464c0-.318-.063-.602-.19-.851a1.438 1.438 0 0 0-.536-.591 1.5 1.5 0 0 0-.815-.217c-.345 0-.643.086-.895.257-.25.169-.442.39-.576.66a1.94 1.94 0 0 0-.202.874v.5c0 .425.073.786.22 1.082.15.293.356.517.62.671.264.152.572.228.921.228.228 0 .433-.032.617-.096a1.32 1.32 0 0 0 .48-.293c.135-.132.239-.296.312-.492l.837.235a1.854 1.854 0 0 1-.444.748 2.17 2.17 0 0 1-.77.5c-.306.117-.65.176-1.032.176zm3.651-.118v-5.636h.837v.851h.059c.103-.279.288-.505.558-.679.269-.173.572-.26.91-.26l.238.003c.095.003.168.006.217.011v.881a2.549 2.549 0 0 0-.202-.033 1.977 1.977 0 0 0-.327-.026c-.274 0-.518.058-.734.173a1.266 1.266 0 0 0-.69 1.148v3.567h-.865zm9.041.118c-.509 0-.955-.122-1.34-.364a2.468 2.468 0 0 1-.894-1.016c-.213-.436-.32-.944-.32-1.527 0-.587.107-1.1.32-1.537.215-.438.513-.778.895-1.02.384-.242.83-.364 1.34-.364.508 0 .953.122 1.335.364.384.242.682.582.895 1.02.216.438.323.95.323 1.537 0 .583-.108 1.091-.323 1.527a2.435 2.435 0 0 1-.895 1.016c-.382.242-.827.364-1.336.364zm0-.778c.387 0 .705-.1.954-.298.25-.198.434-.458.554-.781.12-.323.18-.673.18-1.05 0-.376-.06-.727-.18-1.053a1.775 1.775 0 0 0-.554-.789c-.25-.2-.567-.3-.954-.3-.386 0-.704.1-.954.3-.25.2-.434.464-.554.79-.12.325-.18.676-.18 1.052 0 .377.06.727.18 1.05.12.323.305.583.554.781.25.199.568.298.954.298zm6.386-4.976v.734h-3.038v-.734h3.038zm-2.128 5.636v-6.414c0-.323.076-.592.227-.807.152-.216.349-.377.591-.485.242-.107.498-.161.767-.161.213 0 .387.017.521.051.135.034.235.066.301.096l-.25.748a4.275 4.275 0 0 0-.183-.055 1.11 1.11 0 0 0-.301-.033c-.286 0-.493.072-.62.216-.125.145-.187.357-.187.635v6.21h-.866zm6.365 0v-7.515h4.507v.807h-3.597v2.54h3.259v.807h-3.259v3.361h-.91zm5.948 0v-5.636h.866v5.636h-.866zm.44-6.576a.617.617 0 0 1-.437-.172.556.556 0 0 1-.179-.415c0-.161.06-.3.179-.414a.618.618 0 0 1 .437-.173c.169 0 .313.058.433.173a.55.55 0 0 1 .184.414.55.55 0 0 1-.184.415.603.603 0 0 1-.433.172zm2.878 3.185v3.391h-.866v-5.636h.837v.88h.073a1.61 1.61 0 0 1 .602-.69c.269-.175.616-.264 1.042-.264.382 0 .715.079 1.002.235.286.154.509.39.668.705.159.313.238.71.238 1.189v3.581h-.866V24.7c0-.442-.115-.787-.345-1.034-.23-.25-.545-.375-.947-.375-.276 0-.523.06-.741.18a1.29 1.29 0 0 0-.51.525c-.125.23-.187.509-.187.836zm6.837 3.523c-.357 0-.681-.067-.972-.202a1.669 1.669 0 0 1-.694-.59c-.171-.26-.257-.573-.257-.94 0-.323.064-.584.191-.785.127-.203.297-.362.51-.477.213-.115.448-.2.705-.257.259-.059.52-.105.781-.14.343-.043.62-.076.833-.098.216-.025.372-.065.47-.121.1-.057.15-.155.15-.294v-.03c0-.362-.099-.643-.297-.843-.195-.201-.493-.301-.891-.301-.414 0-.738.09-.973.271-.235.181-.4.375-.495.58l-.822-.294c.147-.342.342-.609.587-.8a2.2 2.2 0 0 1 .807-.403c.294-.078.582-.118.866-.118.181 0 .389.022.624.066.237.042.466.129.686.261.223.132.408.332.554.598.147.267.22.624.22 1.072v3.713h-.866v-.763h-.044a1.504 1.504 0 0 1-.293.393 1.69 1.69 0 0 1-.547.355 2.105 2.105 0 0 1-.833.147zm.132-.778c.343 0 .631-.067.866-.201a1.37 1.37 0 0 0 .719-1.193v-.793c-.036.044-.117.085-.242.121a4.063 4.063 0 0 1-.425.092 19.805 19.805 0 0 1-.83.11 3.32 3.32 0 0 0-.631.143c-.193.064-.35.16-.47.29-.117.127-.176.301-.176.521 0 .301.112.529.334.683.225.151.51.227.855.227zm4.898-2.745v3.391h-.866v-5.636h.837v.88h.073a1.61 1.61 0 0 1 .602-.69c.269-.175.616-.264 1.042-.264.382 0 .716.079 1.002.235.286.154.509.39.668.705.159.313.238.71.238 1.189v3.581h-.866V24.7c0-.442-.115-.787-.345-1.034-.23-.25-.545-.375-.946-.375-.277 0-.524.06-.742.18a1.29 1.29 0 0 0-.51.525c-.124.23-.187.509-.187.836zm7.468 3.509c-.528 0-.983-.125-1.365-.375a2.438 2.438 0 0 1-.88-1.03c-.206-.439-.308-.939-.308-1.502 0-.572.105-1.077.315-1.515.213-.44.509-.784.888-1.031.382-.25.827-.375 1.336-.375.396 0 .753.074 1.071.22.318.147.579.353.782.617.203.264.329.573.378.925h-.866a1.345 1.345 0 0 0-.44-.683c-.226-.2-.529-.3-.911-.3-.337 0-.633.087-.888.264a1.72 1.72 0 0 0-.59.737c-.14.316-.209.686-.209 1.112 0 .435.068.815.205 1.137.139.323.335.574.587.753.255.178.553.268.895.268.226 0 .43-.04.613-.118a1.258 1.258 0 0 0 .738-.866h.866a2.01 2.01 0 0 1-.363.9 2.03 2.03 0 0 1-.76.63 2.45 2.45 0 0 1-1.094.232zm5.846 0c-.543 0-1.012-.12-1.405-.36a2.413 2.413 0 0 1-.907-1.013c-.21-.435-.315-.942-.315-1.519s.105-1.086.315-1.526a2.49 2.49 0 0 1 .888-1.035c.382-.25.827-.375 1.336-.375.294 0 .583.05.87.147.286.098.546.257.781.477.235.218.422.507.562.866.139.36.209.803.209 1.329v.367h-4.345v-.749h3.464c0-.318-.063-.602-.191-.851a1.433 1.433 0 0 0-.535-.591 1.502 1.502 0 0 0-.815-.217c-.345 0-.643.086-.895.257-.25.169-.442.39-.577.66a1.947 1.947 0 0 0-.201.874v.5c0 .425.073.786.22 1.082.149.293.356.517.62.671.264.152.571.228.921.228.228 0 .433-.032.616-.096.186-.066.347-.164.481-.293.135-.132.239-.296.312-.492l.837.235a1.854 1.854 0 0 1-.444.748c-.208.213-.465.38-.771.5a2.857 2.857 0 0 1-1.031.176zm7.644-4.492-.778.22a1.432 1.432 0 0 0-.217-.378 1.053 1.053 0 0 0-.381-.308 1.392 1.392 0 0 0-.621-.121c-.345 0-.632.08-.862.239-.227.156-.341.355-.341.598 0 .215.078.385.235.51.156.125.401.228.734.312l.836.205c.504.122.88.31 1.127.561.247.25.37.572.37.966 0 .322-.093.611-.279.866-.183.254-.44.455-.77.601-.33.147-.714.22-1.152.22-.575 0-1.051-.124-1.428-.374s-.615-.614-.715-1.093l.822-.206c.078.304.226.531.444.683.22.151.507.227.862.227.404 0 .724-.085.961-.256.24-.174.36-.382.36-.624a.656.656 0 0 0-.206-.492c-.137-.135-.347-.235-.631-.301l-.939-.22c-.516-.122-.895-.312-1.138-.569-.239-.26-.359-.583-.359-.972 0-.318.089-.6.268-.844.181-.245.427-.437.737-.576a2.58 2.58 0 0 1 1.064-.21c.558 0 .996.123 1.314.367.321.245.548.568.683.97zm6.602 4.492c-.509 0-.955-.122-1.339-.364a2.472 2.472 0 0 1-.896-1.016c-.213-.436-.319-.944-.319-1.527 0-.587.106-1.1.319-1.537.216-.438.514-.778.896-1.02.384-.242.83-.364 1.339-.364s.954.122 1.336.364c.384.242.682.582.895 1.02.215.438.323.95.323 1.537 0 .583-.108 1.091-.323 1.527a2.435 2.435 0 0 1-.895 1.016c-.382.242-.827.364-1.336.364zm0-.778c.386 0 .705-.1.954-.298a1.75 1.75 0 0 0 .554-.781c.12-.323.18-.673.18-1.05 0-.376-.06-.727-.18-1.053a1.772 1.772 0 0 0-.554-.789c-.249-.2-.568-.3-.954-.3-.387 0-.705.1-.954.3-.25.2-.434.464-.554.79a3.02 3.02 0 0 0-.18 1.052c0 .377.06.727.18 1.05.12.323.304.583.554.781.249.199.567.298.954.298zm3.876 2.774v-7.75h.837v.895h.102c.064-.098.152-.223.264-.374.115-.154.279-.291.492-.411.215-.122.507-.184.874-.184.474 0 .892.12 1.255.356.362.238.644.574.847 1.01.203.435.305.949.305 1.54 0 .598-.102 1.115-.305 1.553a2.4 2.4 0 0 1-.844 1.013 2.205 2.205 0 0 1-1.244.356c-.362 0-.652-.06-.869-.18a1.604 1.604 0 0 1-.503-.415 5.52 5.52 0 0 1-.272-.389h-.073v2.98h-.866zm.851-4.932c0 .426.063.801.187 1.127.125.322.307.576.547.76.24.18.533.27.881.27.362 0 .664-.095.906-.286.245-.193.428-.452.551-.777a3.07 3.07 0 0 0 .187-1.094 2.95 2.95 0 0 0-.184-1.072 1.654 1.654 0 0 0-.547-.76c-.242-.188-.546-.282-.913-.282-.352 0-.648.09-.888.268-.24.176-.421.423-.543.741a3.031 3.031 0 0 0-.184 1.105zm7.809 2.936c-.543 0-1.012-.12-1.406-.36a2.417 2.417 0 0 1-.906-1.013c-.21-.435-.315-.942-.315-1.519s.105-1.086.315-1.526a2.49 2.49 0 0 1 .888-1.035c.382-.25.827-.375 1.336-.375.293 0 .583.05.87.147.286.098.546.257.781.477.235.218.422.507.562.866.139.36.209.803.209 1.329v.367h-4.345v-.749h3.464c0-.318-.064-.602-.191-.851a1.436 1.436 0 0 0-.536-.591 1.496 1.496 0 0 0-.814-.217c-.345 0-.644.086-.896.257a1.697 1.697 0 0 0-.576.66 1.947 1.947 0 0 0-.201.874v.5c0 .425.073.786.22 1.082.149.293.356.517.62.671.264.152.571.228.921.228.227 0 .433-.032.616-.096.186-.066.347-.164.481-.293.135-.132.239-.296.312-.492l.837.235a1.854 1.854 0 0 1-.444.748c-.208.213-.465.38-.771.5a2.857 2.857 0 0 1-1.031.176zm4.517-3.509v3.391h-.866v-5.636h.837v.88h.073a1.61 1.61 0 0 1 .602-.69c.269-.175.616-.264 1.042-.264.382 0 .716.079 1.002.235.286.154.509.39.668.705.159.313.238.71.238 1.189v3.581h-.866V24.7c0-.442-.115-.787-.345-1.034-.23-.25-.545-.375-.946-.375-.277 0-.524.06-.742.18a1.29 1.29 0 0 0-.51.525c-.125.23-.187.509-.187.836zm7.542 3.509c-.543 0-1.012-.12-1.406-.36a2.417 2.417 0 0 1-.906-1.013c-.21-.435-.316-.942-.316-1.519s.106-1.086.316-1.526a2.49 2.49 0 0 1 .888-1.035c.382-.25.827-.375 1.336-.375.293 0 .583.05.869.147.287.098.547.257.782.477.235.218.422.507.561.866.14.36.21.803.21 1.329v.367h-4.345v-.749h3.464c0-.318-.064-.602-.191-.851a1.436 1.436 0 0 0-.536-.591 1.498 1.498 0 0 0-.814-.217c-.345 0-.644.086-.896.257a1.697 1.697 0 0 0-.576.66 1.948 1.948 0 0 0-.202.874v.5c0 .425.074.786.221 1.082.149.293.356.517.62.671.264.152.571.228.921.228.227 0 .433-.032.616-.096.186-.066.346-.164.481-.293.135-.132.239-.296.312-.492l.837.235a1.854 1.854 0 0 1-.444.748c-.208.213-.465.38-.771.5a2.86 2.86 0 0 1-1.031.176zm5.779 0a2.21 2.21 0 0 1-1.244-.356 2.407 2.407 0 0 1-.844-1.013c-.203-.438-.304-.955-.304-1.552 0-.592.101-1.106.304-1.541.203-.436.486-.772.848-1.01.362-.237.78-.356 1.255-.356.367 0 .657.062.87.184.215.12.379.257.491.41a6.4 6.4 0 0 1 .268.375h.074v-2.774h.866v7.515h-.837v-.866h-.103a5.454 5.454 0 0 1-.271.39 1.615 1.615 0 0 1-.503.414c-.218.12-.508.18-.87.18zm.118-.778c.347 0 .641-.09.88-.272a1.7 1.7 0 0 0 .547-.76c.125-.325.187-.7.187-1.126 0-.42-.061-.789-.183-1.105a1.61 1.61 0 0 0-.543-.74c-.24-.18-.536-.269-.888-.269-.367 0-.673.095-.918.283a1.688 1.688 0 0 0-.546.76c-.12.318-.18.675-.18 1.071 0 .401.061.766.183 1.093.125.326.309.585.551.778.244.191.548.287.91.287z"/><path fill="#000" d="M52.28 40.627v-.976h5.817v.976h-2.345v6.54h-1.13v-6.54h-2.341zm8.571 6.653c-.528 0-.99-.12-1.383-.363a2.45 2.45 0 0 1-.918-1.017c-.217-.435-.326-.944-.326-1.526 0-.585.109-1.096.326-1.534.218-.438.524-.778.918-1.02.393-.242.855-.363 1.383-.363.529 0 .99.12 1.383.363.394.242.7.582.918 1.02.218.438.326.95.326 1.534 0 .582-.108 1.091-.326 1.526a2.45 2.45 0 0 1-.918 1.017c-.393.242-.855.363-1.383.363zm.004-.92c.342 0 .626-.091.851-.272.225-.181.391-.422.5-.723.11-.301.164-.633.164-.995 0-.36-.055-.69-.165-.99a1.614 1.614 0 0 0-.499-.73c-.225-.184-.509-.276-.851-.276-.345 0-.631.092-.859.275a1.639 1.639 0 0 0-.503.73 2.92 2.92 0 0 0-.161.991c0 .362.054.694.161.995.11.3.278.542.503.723.228.18.514.271.859.271zm3.848.806V41.53h1.053v.917h.07c.117-.31.31-.552.576-.726.267-.176.586-.264.958-.264.377 0 .692.088.947.264.257.176.446.418.568.727h.06c.134-.301.348-.541.641-.72.294-.18.644-.271 1.05-.271.511 0 .928.16 1.251.48.325.32.488.804.488 1.45v3.78h-1.097V43.49c0-.382-.104-.658-.312-.83a1.135 1.135 0 0 0-.745-.256c-.357 0-.635.11-.833.33-.198.218-.297.498-.297.84v3.593h-1.094V43.42c0-.306-.095-.552-.286-.738-.19-.186-.439-.279-.745-.279-.208 0-.4.056-.576.166a1.212 1.212 0 0 0-.422.451 1.382 1.382 0 0 0-.158.671v3.475h-1.097zm11.955 0v-7.515h1.098v2.793h.066a3.08 3.08 0 0 1 .275-.408c.12-.154.286-.288.499-.403.213-.117.494-.176.844-.176a2.2 2.2 0 0 1 1.218.345c.357.23.637.561.84.994.206.433.309.954.309 1.563 0 .61-.102 1.132-.305 1.567a2.377 2.377 0 0 1-.837 1.002c-.354.232-.76.349-1.214.349-.343 0-.623-.058-.84-.173a1.59 1.59 0 0 1-.507-.404 3.06 3.06 0 0 1-.282-.41h-.092v.877h-1.072zm1.076-2.818c0 .397.057.744.172 1.043.115.298.281.532.5.7.217.167.483.25.799.25.328 0 .602-.087.822-.26.22-.177.386-.415.5-.716.114-.301.171-.64.171-1.017 0-.371-.056-.705-.168-1.002a1.533 1.533 0 0 0-.5-.7c-.22-.172-.495-.257-.825-.257-.318 0-.587.082-.807.246a1.509 1.509 0 0 0-.496.686 2.86 2.86 0 0 0-.168 1.027zm7.734 2.932c-.555 0-1.034-.118-1.435-.356a2.414 2.414 0 0 1-.924-1.009c-.216-.435-.323-.945-.323-1.53 0-.577.107-1.086.323-1.526.217-.44.52-.785.91-1.032s.848-.37 1.372-.37c.318 0 .626.052.925.157.298.106.566.27.803.496.237.225.425.517.562.877.137.357.205.791.205 1.303v.389h-4.48v-.822h3.405a1.62 1.62 0 0 0-.176-.767 1.332 1.332 0 0 0-.496-.532 1.384 1.384 0 0 0-.74-.195 1.43 1.43 0 0 0-.808.228 1.523 1.523 0 0 0-.528.587c-.123.24-.184.5-.184.781v.642c0 .377.066.698.198.962.135.264.322.466.562.605.24.137.52.206.84.206.208 0 .397-.03.569-.088a1.181 1.181 0 0 0 .73-.715l1.038.186a1.88 1.88 0 0 1-.447.804 2.17 2.17 0 0 1-.804.532 3 3 0 0 1-1.097.187zm4.645-2.025-.008-1.34h.191l2.246-2.385h1.314l-2.562 2.716h-.172l-1.01 1.009zm-1.01 1.911v-7.515h1.098v7.515h-1.097zm3.56 0-2.018-2.678.756-.767 2.609 3.446h-1.347zm3.202-1.911-.008-1.34h.191l2.246-2.385h1.314l-2.562 2.716h-.172l-1.01 1.009zm-1.01 1.911v-7.515h1.098v7.515h-1.097zm3.56 0-2.018-2.678.756-.767 2.609 3.446h-1.347zm4.39.114c-.556 0-1.034-.118-1.435-.356a2.415 2.415 0 0 1-.925-1.009c-.215-.435-.323-.945-.323-1.53 0-.577.108-1.086.323-1.526a2.51 2.51 0 0 1 .91-1.032c.392-.247.849-.37 1.373-.37.318 0 .626.052.924.157.299.106.567.27.804.496.237.225.424.517.561.877.137.357.206.791.206 1.303v.389h-4.481v-.822h3.406c0-.29-.059-.545-.177-.767a1.327 1.327 0 0 0-.495-.532 1.382 1.382 0 0 0-.741-.195 1.43 1.43 0 0 0-.807.228 1.526 1.526 0 0 0-.529.587c-.122.24-.183.5-.183.781v.642c0 .377.066.698.198.962.134.264.322.466.561.605.24.137.52.206.841.206.208 0 .397-.03.568-.088a1.178 1.178 0 0 0 .731-.715l1.038.186a1.871 1.871 0 0 1-.448.804 2.16 2.16 0 0 1-.803.532 3.008 3.008 0 0 1-1.097.187zm3.635-.114V41.53h1.061v.895h.058c.103-.303.284-.541.543-.715.262-.176.558-.264.888-.264a4.702 4.702 0 0 1 .466.025v1.05a1.972 1.972 0 0 0-.234-.04 2.25 2.25 0 0 0-.338-.026c-.259 0-.49.055-.694.165a1.235 1.235 0 0 0-.653 1.105v3.441h-1.097zm8.19-4.26-.995.176a1.175 1.175 0 0 0-.198-.363.979.979 0 0 0-.36-.282 1.298 1.298 0 0 0-.568-.11c-.311 0-.57.07-.778.209-.208.137-.312.314-.312.532 0 .188.069.34.209.455.139.115.364.209.675.282l.895.206c.519.12.906.304 1.16.554.254.25.382.574.382.972 0 .338-.098.639-.294.903a1.923 1.923 0 0 1-.811.616c-.345.15-.745.224-1.2.224-.631 0-1.146-.134-1.545-.403-.398-.272-.643-.657-.734-1.156l1.061-.162c.066.277.202.486.407.628.206.14.474.209.804.209.359 0 .647-.075.862-.224.215-.152.323-.336.323-.554a.576.576 0 0 0-.198-.444c-.13-.12-.329-.21-.598-.272l-.954-.209c-.526-.12-.915-.31-1.167-.572-.25-.262-.374-.593-.374-.995 0-.332.093-.623.278-.873.186-.25.443-.444.771-.583a2.812 2.812 0 0 1 1.127-.213c.609 0 1.088.132 1.438.396.35.262.581.613.694 1.053z"/><rect width="30.333" height="17.444" x="120.993" y="34.444" fill="#F3F5F6" rx="8.722"/><path fill="#000" d="M126.724 45.699v-.918l3.248-5.13h.723v1.35h-.459l-2.323 3.678v.058h4.451v.962h-5.64zm3.563 1.468V45.42l.008-.419v-5.35h1.075v7.515h-1.083zm5.972.102c-.503 0-.954-.087-1.35-.26a2.292 2.292 0 0 1-.936-.723 1.93 1.93 0 0 1-.367-1.079h1.153a.986.986 0 0 0 .224.58c.137.161.315.286.535.374.22.088.465.132.734.132.296 0 .558-.051.785-.154.23-.103.41-.246.54-.43.13-.185.194-.4.194-.642a1.15 1.15 0 0 0-.194-.664 1.268 1.268 0 0 0-.562-.455c-.244-.11-.54-.165-.888-.165h-.634v-.925h.634c.279 0 .524-.05.734-.15.213-.1.379-.24.499-.418.12-.181.18-.393.18-.635 0-.233-.052-.434-.158-.606a1.054 1.054 0 0 0-.44-.407 1.43 1.43 0 0 0-.668-.147c-.244 0-.473.046-.686.136a1.27 1.27 0 0 0-.514.382.984.984 0 0 0-.213.59h-1.097a1.85 1.85 0 0 1 .36-1.071c.23-.308.533-.55.91-.723.377-.173.795-.26 1.255-.26.482 0 .898.094 1.247.282.353.186.624.434.815.745.193.31.289.65.286 1.02.003.421-.115.778-.352 1.072a1.71 1.71 0 0 1-.939.59v.06c.499.075.885.273 1.159.594.277.32.414.718.411 1.192.003.414-.112.784-.345 1.112-.23.328-.544.586-.943.774-.399.186-.855.28-1.369.28zm4.044-.102v-.823l2.543-2.634c.272-.286.496-.537.672-.752.178-.218.312-.425.4-.62.088-.196.132-.404.132-.624 0-.25-.059-.465-.176-.646a1.155 1.155 0 0 0-.481-.422c-.203-.1-.432-.15-.686-.15-.269 0-.504.054-.705.164-.2.11-.354.266-.462.467a1.46 1.46 0 0 0-.162.704h-1.082c0-.457.105-.857.316-1.2.21-.342.499-.608.866-.796a2.67 2.67 0 0 1 1.251-.286c.472 0 .888.094 1.247.282.363.186.645.44.848.763.203.32.305.683.305 1.087 0 .279-.053.551-.158.818-.103.267-.283.564-.54.892-.256.325-.614.72-1.071 1.185l-1.493 1.563v.055h3.383v.972h-4.947z"/><path fill="#8792F7" d="M71.954 89.34h-1.646c-.16-.685-.881-1.245-1.177-1.614a4.305 4.305 0 1 1 6.722.001c-.296.369-1.016.929-1.176 1.614h-1.646V86.65h-1.077v2.69zm2.691 1.077v.538a1.076 1.076 0 0 1-1.076 1.076h-2.153a1.077 1.077 0 0 1-1.076-1.076v-.538h4.305z"/><path fill="#0E0E11" d="M87.027 89.111v-6.889H91.3v.895h-3.233v2.1h2.927v.89h-2.926v3.004h-1.04zm5.405 0v-5.166h.972v.82h.054a1.25 1.25 0 0 1 .498-.656c.24-.161.51-.242.813-.242a4.278 4.278 0 0 1 .428.024v.962a1.79 1.79 0 0 0-.216-.037 2.053 2.053 0 0 0-.309-.024 1.3 1.3 0 0 0-.636.152 1.125 1.125 0 0 0-.599 1.012v3.155h-1.005zm5.677.105c-.51 0-.948-.11-1.315-.327a2.213 2.213 0 0 1-.848-.925c-.197-.399-.296-.866-.296-1.402 0-.53.099-.996.296-1.4.2-.403.478-.718.834-.945.359-.226.778-.34 1.258-.34.292 0 .574.049.848.145.273.096.519.248.737.454.217.206.389.474.514.804.126.328.189.725.189 1.194v.357h-4.107v-.754h3.121c0-.264-.054-.499-.162-.703a1.22 1.22 0 0 0-.454-.487 1.27 1.27 0 0 0-.68-.179c-.282 0-.528.07-.74.209a1.4 1.4 0 0 0-.483.538c-.113.22-.169.459-.169.716v.59c0 .344.06.638.182.88.123.243.295.428.515.555.22.126.476.189.77.189.19 0 .364-.027.521-.081a1.08 1.08 0 0 0 .67-.656l.952.172a1.73 1.73 0 0 1-.41.736 1.99 1.99 0 0 1-.737.488 2.758 2.758 0 0 1-1.006.172zm5.559 0c-.509 0-.947-.11-1.315-.327a2.22 2.22 0 0 1-.848-.925c-.197-.399-.296-.866-.296-1.402 0-.53.099-.996.296-1.4a2.3 2.3 0 0 1 .835-.945c.358-.226.778-.34 1.258-.34.291 0 .574.049.847.145.274.096.519.248.737.454.217.206.389.474.515.804.125.328.188.725.188 1.194v.357h-4.107v-.754h3.121a1.48 1.48 0 0 0-.161-.703 1.224 1.224 0 0 0-1.134-.666c-.282 0-.529.07-.74.209a1.4 1.4 0 0 0-.484.538c-.112.22-.168.459-.168.716v.59c0 .344.06.638.181.88.124.243.295.428.515.555.22.126.477.189.77.189a1.6 1.6 0 0 0 .522-.081 1.078 1.078 0 0 0 .669-.656l.952.172c-.076.28-.213.526-.41.736a1.99 1.99 0 0 1-.737.488 2.76 2.76 0 0 1-1.006.172zm5.581-6.099v-.895h5.331v.895h-2.149v5.994h-1.036v-5.994h-2.146zm5.892 5.994v-5.166h.972v.82h.054a1.25 1.25 0 0 1 .498-.656c.24-.161.511-.242.814-.242a4.265 4.265 0 0 1 .427.024v.962a1.779 1.779 0 0 0-.215-.037 2.061 2.061 0 0 0-.31-.024 1.3 1.3 0 0 0-.635.152 1.129 1.129 0 0 0-.599 1.012v3.155h-1.006zm3.635 0v-5.166h1.006v5.166h-1.006zm.508-5.964a.636.636 0 0 1-.45-.175.566.566 0 0 1-.185-.423.56.56 0 0 1 .185-.424.63.63 0 0 1 .45-.178c.175 0 .324.059.448.178a.559.559 0 0 1 .188.424.566.566 0 0 1-.188.423.63.63 0 0 1-.448.175zm3.355 6.079c-.328 0-.624-.06-.888-.182a1.49 1.49 0 0 1-.629-.535c-.153-.233-.229-.519-.229-.858 0-.291.056-.531.168-.72.112-.188.264-.337.454-.447a2.38 2.38 0 0 1 .639-.249c.236-.056.476-.098.72-.127l.754-.088c.193-.025.333-.064.42-.118.088-.053.131-.14.131-.262v-.024c0-.293-.083-.52-.249-.682-.163-.162-.408-.243-.733-.243-.338 0-.605.075-.8.226a1.207 1.207 0 0 0-.401.494l-.945-.215a1.82 1.82 0 0 1 .491-.76 2 2 0 0 1 .75-.424c.283-.09.58-.135.892-.135.206 0 .425.025.656.074.233.048.45.135.652.263.204.128.371.31.501.548.13.236.195.542.195.918v3.431h-.982v-.706h-.04c-.065.13-.163.258-.293.383-.13.126-.297.23-.501.313a1.941 1.941 0 0 1-.733.125zm.218-.808c.278 0 .516-.055.714-.164.199-.11.35-.254.454-.431a1.12 1.12 0 0 0 .158-.575v-.666a.528.528 0 0 1-.209.1 2.95 2.95 0 0 1-.346.078c-.13.02-.257.04-.38.057l-.31.04a2.506 2.506 0 0 0-.535.125.915.915 0 0 0-.383.252.631.631 0 0 0-.141.43c0 .25.091.438.275.566.184.126.419.188.703.188zm4.677-6.196v6.89h-1.006v-6.89h1.006zm3.94 0h1.262l2.193 5.356h.081l2.193-5.356h1.261v6.89h-.989v-4.986h-.064l-2.031 4.975h-.821l-2.032-4.978h-.064v4.988h-.989v-6.889zm10.647 6.994c-.509 0-.947-.11-1.315-.327a2.211 2.211 0 0 1-.847-.925c-.198-.399-.296-.866-.296-1.402 0-.53.098-.996.296-1.4.199-.403.477-.718.834-.945.359-.226.778-.34 1.258-.34.291 0 .574.049.847.145.274.096.52.248.737.454.218.206.389.474.515.804.125.328.188.725.188 1.194v.357h-4.107v-.754h3.122a1.48 1.48 0 0 0-.162-.703 1.224 1.224 0 0 0-1.134-.666c-.282 0-.529.07-.74.209a1.4 1.4 0 0 0-.484.538c-.112.22-.168.459-.168.716v.59c0 .344.06.638.182.88a1.3 1.3 0 0 0 .514.555c.22.126.477.189.77.189a1.6 1.6 0 0 0 .522-.081 1.078 1.078 0 0 0 .669-.656l.952.172c-.076.28-.213.526-.41.736a1.99 1.99 0 0 1-.737.488 2.76 2.76 0 0 1-1.006.172zm3.333-.105v-5.166h.972v.82h.054a1.25 1.25 0 0 1 .498-.656c.24-.161.511-.242.814-.242a4.265 4.265 0 0 1 .427.024v.962a1.779 1.779 0 0 0-.215-.037 2.061 2.061 0 0 0-.31-.024c-.237 0-.449.05-.636.152a1.133 1.133 0 0 0-.598 1.012v3.155h-1.006z"/><rect width="49.111" height="31.5" x="183.576" y="70.611" fill="#F3F5F6" rx="3.444"/><path fill="#0E0E11" d="M202.372 85.916c0 .736-.134 1.368-.403 1.898-.27.527-.638.932-1.107 1.217a3.012 3.012 0 0 1-1.591.424 3.034 3.034 0 0 1-1.598-.424 2.968 2.968 0 0 1-1.103-1.22c-.269-.53-.404-1.161-.404-1.895 0-.735.135-1.366.404-1.893.269-.53.637-.935 1.103-1.218a3.016 3.016 0 0 1 1.598-.427c.594 0 1.124.142 1.591.427a2.94 2.94 0 0 1 1.107 1.218c.269.527.403 1.158.403 1.893zm-1.029 0c0-.56-.091-1.032-.273-1.416-.179-.385-.426-.677-.74-.874-.311-.2-.664-.3-1.059-.3-.397 0-.751.1-1.063.3-.312.197-.558.489-.74.874-.179.384-.269.856-.269 1.416 0 .561.09 1.034.269 1.42.182.383.428.675.74.874a1.94 1.94 0 0 0 1.063.297c.395 0 .748-.1 1.059-.297.314-.2.561-.49.74-.874.182-.386.273-.859.273-1.42zm2.244 5.382v-7.104h.983v.838h.084a2.79 2.79 0 0 1 .252-.374c.11-.14.262-.264.457-.37.196-.107.453-.161.774-.161.417 0 .789.105 1.117.316.327.21.584.515.77.912.188.397.283.874.283 1.433 0 .558-.093 1.037-.28 1.436a2.177 2.177 0 0 1-.766.918 1.99 1.99 0 0 1-1.114.32c-.314 0-.571-.053-.77-.158a1.46 1.46 0 0 1-.464-.37 2.756 2.756 0 0 1-.259-.377h-.061v2.741h-1.006zm.986-4.52c0 .363.053.681.158.955.105.273.258.487.458.642.199.153.444.229.733.229.3 0 .551-.08.753-.239a1.48 1.48 0 0 0 .458-.656 2.6 2.6 0 0 0 .158-.931c0-.341-.052-.647-.155-.919a1.407 1.407 0 0 0-.457-.642c-.202-.157-.454-.236-.757-.236a1.2 1.2 0 0 0-.74.226c-.2.15-.351.36-.454.629a2.627 2.627 0 0 0-.155.942zm7.087 2.687c-.509 0-.947-.109-1.315-.326a2.22 2.22 0 0 1-.848-.925c-.197-.4-.296-.867-.296-1.403 0-.53.099-.996.296-1.4a2.3 2.3 0 0 1 .835-.944c.358-.227.778-.34 1.258-.34.291 0 .574.048.847.145.274.096.519.247.737.454.217.206.389.474.515.804.125.327.188.725.188 1.194v.356h-4.107v-.753h3.121a1.48 1.48 0 0 0-.161-.703 1.224 1.224 0 0 0-1.134-.666c-.282 0-.529.07-.74.208a1.4 1.4 0 0 0-.484.538 1.56 1.56 0 0 0-.168.717v.589c0 .345.06.639.181.88.124.243.295.428.515.556.22.126.477.188.77.188a1.6 1.6 0 0 0 .522-.08 1.077 1.077 0 0 0 .669-.656l.952.171c-.076.28-.213.526-.41.737a1.989 1.989 0 0 1-.737.488 2.76 2.76 0 0 1-1.006.171zm4.339-3.172v3.068h-1.006v-5.167h.965v.841h.064c.119-.273.305-.493.559-.66.255-.165.577-.248.965-.248.352 0 .66.074.925.222.265.146.47.363.616.652.145.29.218.647.218 1.073v3.287h-1.006v-3.165c0-.375-.097-.668-.292-.878-.195-.213-.463-.32-.804-.32-.233 0-.441.05-.622.151-.18.101-.322.25-.428.445a1.467 1.467 0 0 0-.154.7z"/><rect width="185.139" height="40.472" x="52.257" y="65.875" stroke="#E8EAED" stroke-width=".861" rx="6.458"/></svg>